<svg width="40" height="40" viewBox="0 0 40 40" fill="none" xmlns="http://www.w3.org/2000/svg">
<g clip-path="url(#clip0_437_262)">
<path d="M40 0H0V40H40V0Z" fill="white"/>
<path d="M20 40C31.0457 40 40 31.0457 40 20C40 8.9543 31.0457 0 20 0C8.9543 0 0 8.9543 0 20C0 31.0457 8.9543 40 20 40Z" fill="#419AFC"/>
<path d="M30 13.125H10C9.48223 13.125 9.0625 13.5447 9.0625 14.0625V25.9375C9.0625 26.4553 9.48223 26.875 10 26.875H30C30.5178 26.875 30.9375 26.4553 30.9375 25.9375V14.0625C30.9375 13.5447 30.5178 13.125 30 13.125Z" fill="white"/>
<path d="M19.8438 23.75C22.0011 23.75 23.75 22.0011 23.75 19.8438C23.75 17.6864 22.0011 15.9375 19.8438 15.9375C17.6864 15.9375 15.9375 17.6864 15.9375 19.8438C15.9375 22.0011 17.6864 23.75 19.8438 23.75Z" fill="#419AFC"/>
<path d="M18.7545 18.394C18.957 18.394 19.1238 18.4185 19.255 18.4673C19.3872 18.5161 19.4854 18.5899 19.5495 18.6885C19.6136 18.7872 19.6456 18.9118 19.6456 19.0624C19.6456 19.1641 19.6263 19.2531 19.5876 19.3294C19.549 19.4057 19.4981 19.4703 19.4351 19.5232C19.372 19.5761 19.3038 19.6193 19.2306 19.6529L19.8867 20.6249H19.3618L18.8293 19.7689H18.5775V20.6249H18.1045V18.394H18.7545ZM18.7209 18.7816H18.5775V19.3844H18.7301C18.8867 19.3844 18.9986 19.3584 19.0658 19.3065C19.134 19.2536 19.168 19.1763 19.168 19.0746C19.168 18.9688 19.1314 18.8935 19.0582 18.8488C18.9859 18.804 18.8735 18.7816 18.7209 18.7816ZM21.08 18.8869C21.2722 18.8869 21.4273 18.9617 21.5453 19.1112C21.6644 19.2608 21.7239 19.48 21.7239 19.7689C21.7239 19.9621 21.6959 20.1249 21.64 20.2571C21.584 20.3884 21.5067 20.4875 21.408 20.5547C21.3093 20.6218 21.1959 20.6554 21.0677 20.6554C20.9853 20.6554 20.9146 20.6452 20.8556 20.6249C20.7966 20.6035 20.7463 20.5766 20.7046 20.544C20.6629 20.5104 20.6268 20.4749 20.5962 20.4372H20.5718C20.58 20.4779 20.5861 20.5196 20.5901 20.5623C20.5942 20.605 20.5962 20.6468 20.5962 20.6874V21.3756H20.1309V18.9189H20.5093L20.5749 19.1402H20.5962C20.6268 19.0944 20.6639 19.0522 20.7076 19.0136C20.7514 18.9749 20.8038 18.9444 20.8648 18.922C20.9269 18.8986 20.9986 18.8869 21.08 18.8869ZM20.9304 19.2592C20.849 19.2592 20.7844 19.276 20.7366 19.3096C20.6888 19.3431 20.6537 19.3935 20.6313 19.4606C20.61 19.5278 20.5983 19.6127 20.5962 19.7154V19.7658C20.5962 19.8757 20.6064 19.9688 20.6268 20.045C20.6481 20.1214 20.6832 20.1793 20.7321 20.219C20.7819 20.2587 20.8501 20.2785 20.9365 20.2785C21.0077 20.2785 21.0662 20.2587 21.112 20.219C21.1578 20.1793 21.1919 20.1214 21.2142 20.045C21.2376 19.9677 21.2493 19.8736 21.2493 19.7628C21.2493 19.5959 21.2234 19.4703 21.1715 19.3859C21.1196 19.3014 21.0393 19.2592 20.9304 19.2592Z" fill="white"/>
</g>
<defs>
<clipPath id="clip0_437_262">
<rect width="40" height="40" fill="white"/>
</clipPath>
</defs>
</svg>
