<svg width="41" height="41" viewBox="0 0 41 41" fill="none" xmlns="http://www.w3.org/2000/svg">
<g clip-path="url(#clip0_994_1356)">
<path d="M41 0H0V41H41V0Z" fill="white"/>
<path d="M20.5 41C31.8218 41 41 31.8218 41 20.5C41 9.17816 31.8218 0 20.5 0C9.17816 0 0 9.17816 0 20.5C0 31.8218 9.17816 41 20.5 41Z" fill="#F72585" fill-opacity="0.2"/>
<path d="M25.625 10.25H15.6953C14.2801 10.25 13.1328 11.3973 13.1328 12.8125V28.1875C13.1328 29.6027 14.2801 30.75 15.6953 30.75H25.625C27.0402 30.75 28.1875 29.6027 28.1875 28.1875V12.8125C28.1875 11.3973 27.0402 10.25 25.625 10.25Z" fill="#F72585"/>
<path d="M18.5781 20.9805C18.5781 20.5382 18.2196 20.1797 17.7773 20.1797C17.3351 20.1797 16.9766 20.5382 16.9766 20.9805V23.2227C16.9766 23.6649 17.3351 24.0234 17.7773 24.0234C18.2196 24.0234 18.5781 23.6649 18.5781 23.2227V20.9805Z" fill="#FDD3E7"/>
<path d="M21.4609 19.3789C21.4609 18.9366 21.1024 18.5781 20.6602 18.5781C20.2179 18.5781 19.8594 18.9366 19.8594 19.3789V23.2227C19.8594 23.6649 20.2179 24.0234 20.6602 24.0234C21.1024 24.0234 21.4609 23.6649 21.4609 23.2227V19.3789Z" fill="#FDD3E7"/>
<path d="M24.3438 17.457C24.3438 17.0148 23.9852 16.6562 23.543 16.6562C23.1007 16.6562 22.7422 17.0148 22.7422 17.457V23.2227C22.7422 23.6649 23.1007 24.0234 23.543 24.0234C23.9852 24.0234 24.3438 23.6649 24.3438 23.2227V17.457Z" fill="#FDD3E7"/>
</g>
<defs>
<clipPath id="clip0_994_1356">
<rect width="41" height="41" fill="white"/>
</clipPath>
</defs>
</svg>
