<svg width="32" height="32" viewBox="0 0 32 32" fill="none" xmlns="http://www.w3.org/2000/svg">
<path d="M26 2H6C4.895 2 4 2.895 4 4V6H3C2.448 6 2 6.448 2 7C2 7.552 2.448 8 3 8C4.795 8 1.855 8 6 8C6.552 8 7 8.448 7 9C7 9.552 6.552 10 6 10H4V22H3C2.448 22 2 22.448 2 23C2 23.552 2.448 24 3 24C4.795 24 1.855 24 6 24C6.552 24 7 24.448 7 25C7 25.552 6.552 26 6 26H4V28C4 29.105 4.895 30 6 30H26C27.105 30 28 29.105 28 28V4C28 2.895 27.105 2 26 2ZM16 7C18.209 7 20 8.791 20 11C20 13.209 18.209 15 16 15C13.791 15 12 13.209 12 11C12 8.791 13.791 7 16 7ZM22 24H10V22C10 18.686 12.686 16 16 16C19.314 16 22 18.686 22 22V24Z" fill="#0A6DED"/>
</svg>
