<svg width="48" height="34" viewBox="0 0 48 34" fill="none" xmlns="http://www.w3.org/2000/svg">
<rect width="48" height="34" rx="4" fill="#108EE9"/>
<path fill-rule="evenodd" clip-rule="evenodd" d="M10.3606 11.5601H10.2006C8.87101 11.5878 7.5614 12.1154 6.5958 13.023C5.4638 14.0622 4.8142 15.5767 4.7998 17.1031V17.2451C4.827 18.7397 5.4582 20.2193 6.5574 21.2475C7.531 22.1804 8.8654 22.7238 10.2198 22.7461H10.3766C12.207 22.7254 13.9686 21.7092 14.9206 20.1646C15.735 18.8841 15.9854 17.2736 15.6238 15.8052C15.3206 14.5382 14.5558 13.3839 13.4966 12.6128C12.5966 11.9464 11.483 11.5807 10.3606 11.5601ZM7.875 16.1051C8.3918 16.255 8.943 16.1638 9.4462 16.0027C9.7235 15.9121 9.99647 15.8084 10.2694 15.7048L10.2695 15.7048C10.7108 15.5373 11.1521 15.3697 11.6118 15.257C12.227 15.1142 12.9182 15.2292 13.411 15.6338C13.5085 15.7267 13.5083 15.8609 13.5081 15.9881V15.9882C13.508 16.0196 13.508 16.0506 13.5094 16.0805C13.5039 16.49 13.5059 16.8997 13.5078 17.3093V17.3094V17.3094V17.3094V17.3094C13.5107 17.9131 13.5136 18.5167 13.4926 19.1197C13.4183 19.0884 13.3445 19.0552 13.2705 19.0219C12.966 18.8848 12.6598 18.7469 12.3174 18.7405C11.6033 18.7016 10.9432 18.9366 10.2818 19.1721L10.2818 19.1721C9.7436 19.3637 9.2046 19.5556 8.635 19.6005C8.1182 19.6362 7.5782 19.5148 7.159 19.2062C7.07313 19.0883 7.07741 18.9408 7.0816 18.7964C7.08331 18.7376 7.085 18.6794 7.0806 18.6239C7.08857 18.2573 7.08504 17.8901 7.08151 17.5228V17.5228C7.07583 16.9306 7.07014 16.3384 7.1126 15.7489C7.20689 15.7905 7.29763 15.8401 7.38832 15.8896L7.38833 15.8896L7.38833 15.8896L7.38834 15.8896L7.38835 15.8896L7.38835 15.8896C7.54466 15.975 7.70086 16.0604 7.875 16.1051ZM18.7205 14.346H18.7205H18.7205H18.7204H18.7204C18.4375 14.3478 18.1546 14.3496 17.8718 14.3462C17.8714 15.2879 17.8714 16.2298 17.8714 17.1718C17.8714 18.1138 17.8714 19.0559 17.871 19.998C18.1863 19.9983 18.5013 19.9983 18.8163 19.9983C19.1313 19.9983 19.4463 19.9983 19.7614 19.9987C20.2198 19.9995 20.683 19.9123 21.0926 19.702C22.1822 19.1721 22.8134 17.898 22.6046 16.7167C22.4318 15.4871 21.3486 14.4422 20.0902 14.3589C19.6338 14.3403 19.1771 14.3432 18.7205 14.346ZM19.0625 18.3197C19.0649 17.4003 19.0672 16.481 19.059 15.5616C19.1812 15.5654 19.3041 15.5632 19.4272 15.5611H19.4272H19.4272H19.4272H19.4272C19.6963 15.5565 19.9659 15.5518 20.2294 15.6084C20.8862 15.7576 21.3926 16.3645 21.439 17.0277C21.5086 17.6878 21.1222 18.3692 20.5078 18.639C20.1748 18.795 19.8087 18.7875 19.4465 18.7799C19.3171 18.7773 19.1882 18.7746 19.0614 18.7794L19.0625 18.3197ZM24.7214 16.6318C24.7598 15.4061 25.8726 14.305 27.1238 14.347C28.3502 14.3343 29.427 15.4117 29.4758 16.6136C29.4885 17.3041 29.4866 17.9949 29.4846 18.6856V18.6856V18.6857V18.6857C29.4834 19.1226 29.4821 19.5596 29.4846 19.9964L29.4836 19.9964H29.4832H29.4829H29.4826C29.0857 19.9972 28.6895 19.998 28.2934 19.9964C28.2914 19.7941 28.2916 19.5917 28.2918 19.3895V19.3895V19.3895V19.3895C28.292 19.1873 28.2922 18.9852 28.2902 18.7834C27.8224 18.7857 27.3549 18.7853 26.8875 18.7849H26.8875H26.8874H26.8874C26.5603 18.7846 26.2332 18.7843 25.9062 18.7849C25.905 18.9358 25.9056 19.0867 25.9062 19.2376V19.2376V19.2377V19.2377C25.9072 19.4925 25.9081 19.7474 25.9006 20.0019C25.6366 19.9956 25.373 19.9963 25.1095 19.997H25.1094H25.1094H25.1093H25.1093C24.9776 19.9973 24.8459 19.9977 24.7142 19.9972C24.7157 19.5892 24.7146 19.1812 24.7135 18.7732C24.7116 18.0592 24.7097 17.3452 24.7214 16.6318ZM26.211 15.967C25.8863 16.3149 25.8958 16.7843 25.9049 17.2342C25.9072 17.3485 25.9094 17.4616 25.9062 17.5711C26.2239 17.5715 26.5418 17.5713 26.8597 17.5711H26.8597H26.8597H26.8598C27.3366 17.5708 27.8136 17.5705 28.2902 17.5719C28.2872 17.4628 28.2898 17.3503 28.2924 17.2365C28.3023 16.7968 28.3127 16.3389 28.007 15.9916C27.5806 15.4363 26.6526 15.4236 26.211 15.967ZM31.5686 16.6445C31.6038 15.5656 32.4542 14.5644 33.5334 14.3827C34.3366 14.2296 35.1974 14.543 35.7206 15.1634C36.1254 15.6053 36.3318 16.2034 36.3318 16.7969C36.3334 17.5075 36.3329 18.2178 36.3323 18.9283V18.9302C36.3321 19.2858 36.3318 19.6415 36.3318 19.9972C36.1969 19.998 36.0619 19.9975 35.9268 19.997H35.9268H35.9267C35.6662 19.9961 35.4056 19.9951 35.1454 20.0035C35.1368 19.3991 35.1382 18.7944 35.1396 18.1897V18.1897C35.1406 17.7246 35.1417 17.2594 35.1382 16.7945C35.1446 16.3629 34.9118 15.9329 34.531 15.7187C34.1358 15.4839 33.6006 15.5188 33.2382 15.8012C32.9246 16.0337 32.7494 16.4208 32.755 16.8064C32.7532 17.4143 32.7534 18.0219 32.7537 18.6296V18.6296C32.7539 19.0854 32.7541 19.5412 32.7534 19.9972C32.6082 19.9966 32.4631 19.9968 32.3179 19.9971C32.0639 19.9976 31.8098 19.998 31.5558 19.994C31.5643 19.4558 31.5627 18.9175 31.5612 18.3791C31.5595 17.8008 31.5578 17.2226 31.5686 16.6445ZM38.7974 15.4418C39.2574 14.731 40.107 14.2725 40.9654 14.3534C41.9358 14.4129 42.7966 15.1459 43.0654 16.0622C43.1646 16.3716 43.1693 16.6948 43.174 17.0176C43.1767 17.2023 43.1794 17.3869 43.1998 17.5688V19.9908C42.895 19.9991 42.5902 19.9981 42.2854 19.9971C42.1838 19.9967 42.0822 19.9964 41.9806 19.9964C41.9801 19.8661 41.9803 19.7357 41.9805 19.6053C41.981 19.3299 41.9815 19.0545 41.975 18.7794C41.4925 18.7866 41.0096 18.7856 40.5267 18.7847H40.5266H40.5265C40.216 18.784 39.9055 18.7834 39.595 18.7849C39.5946 18.9868 39.5946 19.1888 39.5946 19.3908C39.5946 19.5928 39.5946 19.7949 39.5942 19.9972H38.4022C38.4018 19.4763 38.4018 18.9557 38.4018 18.4352C38.4018 17.9147 38.4018 17.3942 38.4014 16.8738C38.3958 16.3724 38.5166 15.8631 38.7974 15.4418ZM39.8934 15.975C39.5751 16.3216 39.5846 16.7872 39.5936 17.2336C39.596 17.3482 39.5983 17.4615 39.595 17.5711C40.1252 17.5717 40.6554 17.5715 41.1853 17.5713L41.9798 17.5711C41.9763 17.4592 41.9788 17.3437 41.9813 17.227C41.9907 16.7892 42.0005 16.3343 41.6942 15.9892C41.2638 15.4331 40.3318 15.426 39.8934 15.975Z" fill="white"/>
</svg>
