<svg width="128" height="128" viewBox="0 0 128 128" fill="none" xmlns="http://www.w3.org/2000/svg">
<path d="M51.7709 18.487L22.74 49.3324C19.6953 52.5673 18 56.8423 18 61.2847V96.1164C18 105.325 25.1604 112.947 34.3515 113.522L64.5049 115.406L94.6485 113.522C103.844 112.948 111.005 105.32 111 96.1066L110.979 61.3153C110.977 56.8765 109.281 52.6058 106.239 49.3734L77.1695 18.487C70.2839 11.171 58.6566 11.171 51.7709 18.487Z" stroke="#292D32" stroke-width="7.5" stroke-linecap="round"/>
<path d="M47 110V87.9268C47 84.974 48.053 82.233 49.781 80.6879L61.4476 70.2558C63.3201 68.5814 65.6799 68.5814 67.5524 70.2558L79.219 80.6879C80.947 82.233 82 84.974 82 87.9268V110" stroke="#292D32" stroke-width="7.5" stroke-linecap="round"/>
</svg>
