<svg width="128" height="128" viewBox="0 0 128 128" fill="none" xmlns="http://www.w3.org/2000/svg">
<path d="M51.7709 18.487L22.74 49.3324C19.6953 52.5673 18 56.8423 18 61.2847V96.1164C18 105.325 25.1604 112.947 34.3515 113.522L64.5049 115.406L94.6485 113.522C103.844 112.948 111.005 105.32 111 96.1066L110.979 61.3153C110.977 56.8765 109.281 52.6058 106.239 49.3734L77.1695 18.487C70.2839 11.171 58.6566 11.171 51.7709 18.487Z" fill="#292D32" stroke="#292D32" stroke-width="7.5" stroke-linecap="round"/>
<path d="M47 117V93.3117C47 90.1428 48.053 87.2013 49.781 85.5431L61.4476 74.3477C63.3201 72.5508 65.6799 72.5508 67.5524 74.3476L79.219 85.5431C80.947 87.2013 82 90.1428 82 93.3117V117" stroke="white" stroke-width="7.5" stroke-linecap="round"/>
</svg>
