<svg width="40" height="40" viewBox="0 0 40 40" fill="none" xmlns="http://www.w3.org/2000/svg">
<g clip-path="url(#clip0_437_247)">
<path d="M40 0H0V40H40V0Z" fill="white"/>
<path d="M20 40C31.0457 40 40 31.0457 40 20C40 8.9543 31.0457 0 20 0C8.9543 0 0 8.9543 0 20C0 31.0457 8.9543 40 20 40Z" fill="#419AFC"/>
<path d="M26.5625 10.9375H13.4375C11.7116 10.9375 10.3125 12.3366 10.3125 14.0625V25.9375C10.3125 27.6634 11.7116 29.0625 13.4375 29.0625H26.5625C28.2884 29.0625 29.6875 27.6634 29.6875 25.9375V14.0625C29.6875 12.3366 28.2884 10.9375 26.5625 10.9375Z" fill="white"/>
<path d="M20 25.3125C22.934 25.3125 25.3125 22.934 25.3125 20C25.3125 17.066 22.934 14.6875 20 14.6875C17.066 14.6875 14.6875 17.066 14.6875 20C14.6875 22.934 17.066 25.3125 20 25.3125Z" fill="white" stroke="#419AFC" stroke-width="4"/>
<path d="M20.1562 20.3125C20.5877 20.3125 20.9375 19.9627 20.9375 19.5312C20.9375 19.0998 20.5877 18.75 20.1562 18.75C19.7248 18.75 19.375 19.0998 19.375 19.5312C19.375 19.9627 19.7248 20.3125 20.1562 20.3125Z" fill="#419AFC"/>
<path d="M20.4688 20H19.8438C19.7575 20 19.6875 20.07 19.6875 20.1562V21.0938C19.6875 21.18 19.7575 21.25 19.8438 21.25H20.4688C20.555 21.25 20.625 21.18 20.625 21.0938V20.1562C20.625 20.07 20.555 20 20.4688 20Z" fill="#419AFC"/>
<path d="M15.9375 28.125H15C14.6548 28.125 14.375 28.4048 14.375 28.75V30C14.375 30.3452 14.6548 30.625 15 30.625H15.9375C16.2827 30.625 16.5625 30.3452 16.5625 30V28.75C16.5625 28.4048 16.2827 28.125 15.9375 28.125Z" fill="white"/>
<path d="M25.3125 28.125H24.375C24.0298 28.125 23.75 28.4048 23.75 28.75V30C23.75 30.3452 24.0298 30.625 24.375 30.625H25.3125C25.6577 30.625 25.9375 30.3452 25.9375 30V28.75C25.9375 28.4048 25.6577 28.125 25.3125 28.125Z" fill="white"/>
</g>
<defs>
<clipPath id="clip0_437_247">
<rect width="40" height="40" fill="white"/>
</clipPath>
</defs>
</svg>
