<svg width="17" height="16" viewBox="0 0 17 16" fill="none" xmlns="http://www.w3.org/2000/svg">
<path d="M10.4017 6.65257C10.5758 6.82837 10.7139 7.03707 10.8081 7.26676C10.9024 7.49645 10.9509 7.74263 10.9509 7.99124C10.9508 8.23985 10.9023 8.48603 10.8081 8.71571C10.7139 8.9454 10.5758 9.1541 10.4017 9.32989C10.2275 9.50568 10.0208 9.64512 9.79335 9.74026C9.56586 9.83539 9.32204 9.88436 9.07581 9.88435C8.82959 9.88435 8.58577 9.83537 8.35829 9.74023C8.1308 9.64509 7.92411 9.50563 7.75 9.32983" stroke="#626262" stroke-width="1.5" stroke-linecap="round"/>
<path d="M8.5 3.27173C5.58926 3.27173 3.34925 4.9261 1.47085 7.21824C1.1861 7.56572 1.18596 8.06469 1.47072 8.41218C1.97045 9.022 2.49577 9.58667 3.05251 10.0871M5.30532 11.6279C6.27585 12.0934 7.33412 12.3589 8.5 12.3589C11.4107 12.3589 13.6508 10.7045 15.5291 8.41234C15.8139 8.06486 15.814 7.56585 15.5293 7.21837C14.49 5.95021 13.3401 4.87726 12.0272 4.17169" stroke="#419AFC" stroke-width="1.4" stroke-linecap="round" stroke-linejoin="round"/>
<path d="M14.5915 1.08744L1.7501 14.6304" stroke="#626262" stroke-width="1.5" stroke-linecap="round" stroke-linejoin="round"/>
</svg>
