<svg width="20" height="20" viewBox="0 0 20 20" fill="none" xmlns="http://www.w3.org/2000/svg">
<path d="M9.67986 7.85003C9.30586 7.94403 9.07286 8.34703 9.15986 8.75003C9.87686 12.078 10.0329 15.565 9.61186 18.836C9.55886 19.246 9.82386 19.626 10.2039 19.682C10.236 19.6868 10.2684 19.6891 10.3009 19.689C10.6419 19.689 10.9399 19.418 10.9889 19.043C11.4329 15.591 11.2689 11.915 10.5139 8.41103C10.4269 8.00603 10.0539 7.75803 9.67986 7.85103V7.85003ZM8.06886 12.073C7.68686 12.111 7.40586 12.477 7.44086 12.889C7.61086 14.857 7.56586 16.799 7.30886 18.661C7.25286 19.071 7.51486 19.452 7.89386 19.513C7.9279 19.5186 7.96236 19.5213 7.99686 19.521C8.33586 19.521 8.63286 19.254 8.68386 18.881C8.95686 16.901 9.00386 14.838 8.82486 12.751C8.78986 12.338 8.43886 12.031 8.06886 12.073ZM9.15886 5.41403C8.37486 5.61103 7.70886 6.12603 7.28286 6.86303C6.85587 7.60548 6.72075 8.48036 6.90386 9.31703C6.99186 9.72703 7.07186 10.137 7.14086 10.546C7.20886 10.954 7.58086 11.223 7.94986 11.149C8.32786 11.074 8.57686 10.683 8.50786 10.276C8.43401 9.84126 8.35065 9.40816 8.25786 8.97703C8.1597 8.52685 8.23279 8.05624 8.46286 7.65703C8.69286 7.25903 9.05186 6.98103 9.47286 6.87603C10.3449 6.65603 11.2139 7.24603 11.4159 8.18503C12.1619 11.646 12.3579 15.115 11.9959 18.494C11.9529 18.905 12.2259 19.277 12.6079 19.324C12.6344 19.3277 12.6611 19.3297 12.6879 19.33C13.0369 19.33 13.3369 19.048 13.3779 18.666C13.7569 15.115 13.5519 11.474 12.7699 7.84603C12.3949 6.10303 10.7789 5.01203 9.15786 5.41403H9.15886ZM6.74786 5.94703C6.86292 5.78848 6.91497 5.59284 6.89391 5.39807C6.87284 5.2033 6.78016 5.02331 6.63386 4.89303C6.56372 4.83228 6.48158 4.78697 6.39277 4.76006C6.30396 4.73315 6.21049 4.72523 6.11842 4.73684C6.02636 4.74844 5.93777 4.7793 5.85841 4.8274C5.77906 4.8755 5.71073 4.93977 5.65786 5.01603C5.5351 5.1844 5.4216 5.35933 5.31786 5.54003C4.56227 6.85403 4.3234 8.40242 4.64786 9.88303C5.24186 12.64 5.38086 15.471 5.04886 18.073C4.99686 18.483 5.26286 18.861 5.64286 18.918C5.67469 18.9222 5.70676 18.9242 5.73886 18.924C6.08086 18.924 6.37886 18.652 6.42686 18.277C6.77986 15.497 6.63386 12.477 6.00186 9.54403C5.86685 8.92569 5.8635 8.28586 5.99203 7.66614C6.12056 7.04641 6.37808 6.46068 6.74786 5.94703ZM15.1099 12.819C14.7269 12.839 14.4299 13.191 14.4499 13.605C14.5132 14.982 14.4935 16.3615 14.3909 17.736C14.3589 18.15 14.6439 18.511 15.0269 18.546C15.0458 18.5474 15.0648 18.5481 15.0839 18.548C15.4429 18.548 15.7469 18.251 15.7759 17.858C15.8829 16.436 15.9039 14.98 15.8379 13.531C15.8189 13.117 15.4839 12.808 15.1099 12.819ZM14.9399 11.784C14.969 11.784 14.998 11.782 15.0269 11.778C15.4079 11.728 15.6769 11.353 15.6309 10.942C15.4888 9.71187 15.2865 8.48941 15.0249 7.27903C14.4729 4.70503 12.2749 2.83603 9.80186 2.83603C9.41086 2.83603 9.01986 2.88303 8.63786 2.97803C8.32186 3.05803 8.01286 3.16803 7.71686 3.30503C7.36486 3.47003 7.20286 3.91203 7.35486 4.29203C7.50786 4.67203 7.91786 4.84703 8.26886 4.68203C8.48786 4.58003 8.71886 4.49803 8.95086 4.44003C9.22886 4.37003 9.51486 4.33603 9.80086 4.33603C11.6359 4.33603 13.2629 5.71603 13.6709 7.61903C13.9209 8.77703 14.1169 9.95703 14.2509 11.127C14.2949 11.507 14.5949 11.784 14.9409 11.784H14.9399ZM17.2819 6.71603C16.9711 5.25435 16.2734 3.90295 15.2619 2.80303C15.2 2.73396 15.1242 2.67871 15.0395 2.64089C14.9548 2.60307 14.8631 2.58352 14.7704 2.58352C14.6776 2.58352 14.5859 2.60307 14.5012 2.64089C14.4165 2.67871 14.3408 2.73396 14.2789 2.80303C14.1473 2.94948 14.0744 3.13929 14.074 3.33615C14.0736 3.53301 14.1459 3.72309 14.2769 3.87003C15.1036 4.7729 15.6736 5.88054 15.9279 7.07803C16.5726 10.0661 16.8616 13.12 16.7889 16.176C16.7789 16.59 17.0809 17 17.4649 17H17.4839C17.8589 17 18.1679 16.625 18.1789 16.218C18.2547 13.0264 17.9536 9.83705 17.2819 6.71603ZM3.38986 12.855C3.42401 12.855 3.45811 12.8523 3.49186 12.847C3.87186 12.787 4.13386 12.405 4.07886 11.996C3.99232 11.363 3.88157 10.7336 3.74686 10.109C3.3649 8.37123 3.64481 6.55344 4.53186 5.01103C5.41486 3.48103 6.79886 2.41303 8.42586 2.00503C9.84418 1.66113 11.3398 1.86017 12.6189 2.56303C12.9609 2.75003 13.3789 2.60003 13.5519 2.23003C13.7249 1.86003 13.5869 1.40903 13.2439 1.22303C11.6786 0.364078 9.8488 0.121524 8.11386 0.543032C6.12386 1.04303 4.43186 2.34803 3.35186 4.21703C2.26773 6.10261 1.92545 8.32461 2.39186 10.449C2.51986 11.043 2.62486 11.636 2.70286 12.214C2.75286 12.587 3.05086 12.854 3.38986 12.854V12.855ZM3.59686 14H3.57386C3.18986 14 2.88986 14.25 2.90186 14.663C2.92886 15.511 2.90586 16.243 2.83186 17.053C2.79486 17.465 3.07386 17.831 3.45586 17.871C3.47879 17.8733 3.50182 17.8743 3.52486 17.874C3.69838 17.8794 3.86721 17.8172 3.99588 17.7007C4.12455 17.5841 4.20304 17.4222 4.21486 17.249C4.29486 16.374 4.32086 15.526 4.29186 14.612C4.27986 14.207 3.96986 14 3.59686 14Z" fill="#292D32"/>
</svg>
