<svg width="59" height="42" viewBox="0 0 59 42" fill="none" xmlns="http://www.w3.org/2000/svg">
<rect width="59" height="42" rx="4" fill="white"/>
<path fill-rule="evenodd" clip-rule="evenodd" d="M9.51317 16.084C10.0727 15.9931 10.6468 16.0036 11.209 16.0596C11.7302 16.1669 12.2561 16.2867 12.7343 16.527C13.7021 16.9873 14.5259 17.7332 15.0749 18.6516C15.5301 19.5003 15.8432 20.4523 15.7963 21.4247C15.8095 23.4209 14.5405 25.323 12.7429 26.1716C11.5776 26.724 10.222 26.7997 8.97675 26.4969C8.13446 26.2388 7.3219 25.8214 6.70818 25.1801C6.12354 24.6396 5.68225 23.9509 5.40214 23.2096C5.03682 22.2977 5.00379 21.2838 5.15904 20.3233C5.4431 18.8966 6.32767 17.5884 7.57954 16.8299C8.1622 16.4474 8.83207 16.2202 9.51317 16.084ZM8.76535 18.6457C8.34387 18.6885 7.88342 18.836 7.65023 19.2152C7.3926 19.5784 7.36572 20.0328 7.34018 20.4644L7.33379 20.5702C7.32854 20.679 7.31878 20.7877 7.30903 20.8965L7.30903 20.8965C7.28935 21.1159 7.26966 21.3354 7.28689 21.5564C7.29973 21.7056 7.30879 21.8553 7.31785 22.0051V22.0051V22.0051C7.3405 22.3792 7.36315 22.7535 7.44477 23.1207C7.54585 23.5835 7.96402 23.9424 8.42513 24.0266C9.28451 24.181 10.16 24.1675 11.0302 24.154L11.2691 24.1504C11.6252 24.1307 11.9812 24.0945 12.3333 24.0385C12.8605 23.97 13.3263 23.5421 13.4128 23.0154C13.5641 22.3695 13.5912 21.7032 13.5462 21.0442C13.4617 20.6215 13.1618 20.2403 12.7542 20.0856C12.5705 19.9972 12.3668 19.9977 12.167 19.9982H12.167C12.1318 19.9983 12.0967 19.9984 12.0618 19.998C11.6688 19.9985 11.2758 19.9983 10.8828 19.9981H10.8828C10.1951 19.9977 9.5075 19.9973 8.82018 20.0007C8.74116 20.0021 8.66742 19.9752 8.59433 19.9485C8.5672 19.9386 8.54017 19.9287 8.51299 19.9203C8.51101 19.7729 8.5163 19.5523 8.71514 19.5483C9.23291 19.5367 9.75117 19.5401 10.2694 19.5436C10.9519 19.5481 11.6343 19.5526 12.3155 19.5227C12.2415 19.1803 12.0321 18.8228 11.6714 18.728C11.3457 18.6411 11.0088 18.597 10.6739 18.566C10.5783 18.5649 10.4827 18.563 10.3869 18.5612C9.84433 18.5509 9.29935 18.5405 8.76535 18.6457ZM12.4542 21.5215C12.2805 21.4748 12.0724 21.5432 12.0116 21.7217C11.9735 21.9271 12.0346 22.1249 12.0953 22.3215C12.1208 22.4041 12.1463 22.4864 12.1642 22.569C12.184 22.5805 12.2138 22.5976 12.2435 22.6147C12.2732 22.6319 12.303 22.649 12.3228 22.6605C12.3908 22.621 12.4602 22.5854 12.5322 22.5545C12.54 22.3808 12.582 22.2136 12.624 22.0466C12.6426 21.9725 12.6612 21.8984 12.6769 21.8237C12.6445 21.7006 12.5632 21.588 12.4542 21.5215Z" fill="#01ACD7"/>
<path fill-rule="evenodd" clip-rule="evenodd" d="M22.5835 17.7248C22.0742 17.526 21.5087 17.5484 20.9749 17.6142C19.8201 17.792 18.8068 18.6702 18.4646 19.7836C18.3093 20.2247 18.3126 20.7007 18.3536 21.1609C18.4916 22.3381 19.3802 23.3717 20.5078 23.7319C21.3072 23.9728 22.2294 23.9807 22.9673 23.5495C23.0637 23.4964 23.1512 23.4307 23.2388 23.3651C23.3205 23.3038 23.4022 23.2425 23.4912 23.1913L23.4926 23.2525C23.5035 23.7377 23.5159 24.2865 23.1464 24.6529C22.8986 24.9545 22.5241 25.1131 22.1455 25.1711C21.327 25.3205 20.4616 25.042 19.8532 24.4837C19.7179 24.621 19.5762 24.7522 19.4345 24.8833C19.2053 25.0955 18.9761 25.3076 18.7744 25.5457C19.4112 26.1461 20.2178 26.5793 21.0925 26.6946C21.9473 26.8019 22.8669 26.7499 23.6286 26.312C24.2747 25.9545 24.7834 25.3442 24.9829 24.6325C25.1067 24.2779 25.105 23.899 25.1034 23.5284L25.1031 23.4659C25.1024 21.5032 25.1024 19.5413 25.1031 17.5786C24.7936 17.5748 24.484 17.575 24.1744 17.5752C23.9509 17.5753 23.7273 17.5754 23.5038 17.574L23.5045 17.7357V17.7358C23.5055 17.911 23.5065 18.0862 23.5024 18.2614C23.227 18.0369 22.9224 17.8387 22.5835 17.7248ZM20.5548 19.4353C20.8197 19.2009 21.1711 19.1114 21.514 19.0607C22.1964 18.9573 22.964 19.2687 23.3135 19.8777C23.4544 20.1245 23.4486 20.4034 23.4427 20.6796V20.6796V20.6796V20.6796V20.6796C23.4407 20.7764 23.4387 20.8727 23.443 20.9673C23.5004 21.548 23.0466 22.0602 22.5267 22.2577C21.8984 22.4934 21.1235 22.5092 20.5752 22.0741C19.7534 21.4598 19.7369 20.0581 20.5548 19.4353ZM36.619 17.5754C35.9359 17.5707 35.2238 17.7742 34.7316 18.2653C34.7273 18.2026 34.7232 18.1399 34.7191 18.0774V18.0773L34.7191 18.0773L34.7191 18.0772L34.7191 18.0772L34.719 18.0768C34.712 17.9688 34.705 17.8612 34.6966 17.7538C34.1589 17.7472 33.6211 17.7452 33.0834 17.7538C33.0841 19.3787 33.084 21.0035 33.0839 22.6284V22.638C33.0838 23.8534 33.0837 25.0689 33.084 26.2844C33.4619 26.3087 33.8407 26.3065 34.2193 26.3044C34.3954 26.3034 34.5715 26.3025 34.7475 26.3041C34.7598 25.5513 34.757 24.7981 34.7543 24.0447C34.7534 23.7875 34.7524 23.5302 34.7521 23.273C35.9386 24.2125 37.8273 24.1091 38.8942 23.0313C40.0555 21.8706 40.1223 19.802 39.0038 18.5906C38.4152 17.9164 37.5115 17.5438 36.619 17.5754ZM34.83 20.0193C35.0038 19.4985 35.5349 19.1877 36.0509 19.0857C36.5827 18.9784 37.1772 19.112 37.5881 19.4728C38.2844 20.1035 38.2897 21.3156 37.633 21.976C36.9744 22.6113 35.8091 22.5994 35.1544 21.9641C34.8756 21.7185 34.7296 21.334 34.7541 20.9667C34.7595 20.8698 34.7569 20.7716 34.7543 20.6732V20.6732V20.6732V20.6732V20.6731V20.6731C34.7484 20.4505 34.7425 20.2275 34.83 20.0193ZM28.2595 17.6563C29.1983 17.468 30.2255 17.5813 31.0427 18.1021C31.6644 18.476 32.1374 19.0824 32.3488 19.7743C32.6388 20.6836 32.5086 21.7238 31.9656 22.5152C31.4259 23.3125 30.5043 23.801 29.553 23.8925C28.9671 23.932 28.3613 23.9122 27.807 23.6996C26.8888 23.3921 26.1185 22.637 25.8476 21.704C25.557 20.8297 25.6917 19.829 26.1898 19.0547C26.6509 18.3305 27.4239 17.8361 28.2595 17.6563ZM28.6526 19.0942C28.4187 19.1607 28.2001 19.2766 28.0085 19.4247C27.3452 19.9455 27.1834 20.9752 27.6557 21.6724C28.1955 22.5593 29.588 22.7344 30.3187 21.9918C30.6761 21.6645 30.8459 21.176 30.7983 20.6974C30.8386 19.6361 29.6574 18.7808 28.6526 19.0942ZM43.9875 17.6149C43.0263 17.4891 41.9852 17.6228 41.1878 18.2081C40.7274 18.5728 40.3336 19.0745 40.2557 19.671C40.4852 19.7101 40.7129 19.7596 40.9406 19.8091L40.9406 19.8091C41.2372 19.8736 41.5337 19.938 41.8346 19.9798C41.9647 19.459 42.4179 19.0449 42.9497 18.9593C43.2939 18.9 43.6519 18.9178 43.9869 19.0192C44.2795 19.114 44.5021 19.4333 44.374 19.7375C44.1353 19.9544 43.8105 20.02 43.5012 20.0825C43.4612 20.0905 43.4216 20.0985 43.3824 20.1068L43.2213 20.1296C42.436 20.2402 41.6196 20.3551 40.9513 20.8073C40.1249 21.3834 40.1216 22.739 40.8859 23.3684C41.5168 23.909 42.4053 23.9708 43.1968 23.8662C43.7444 23.7641 44.296 23.5278 44.6455 23.0781C44.6475 23.1889 44.6475 23.2997 44.6475 23.4107V23.411C44.6475 23.522 44.6475 23.6331 44.6495 23.7444C44.7699 23.7442 44.8904 23.7438 45.0109 23.7434H45.0111H45.0113H45.0114H45.0114C45.3938 23.7422 45.7765 23.741 46.1596 23.747C46.1611 23.0032 46.1609 22.2596 46.1607 21.5161V21.5161V21.5161C46.1606 20.9585 46.1604 20.401 46.161 19.8435C46.1669 19.3912 46.0011 18.9507 45.7514 18.5781C45.3458 18.0105 44.6574 17.7241 43.9875 17.6149ZM41.9079 22.1208C41.8207 21.9147 41.9892 21.7113 42.1576 21.6099C42.4974 21.4233 42.8798 21.3537 43.2615 21.2842C43.7214 21.2004 44.1803 21.1169 44.5623 20.8291C44.5586 20.9195 44.5615 21.0141 44.5645 21.1101C44.5744 21.4341 44.5848 21.773 44.3462 22.0148C43.8851 22.473 43.1829 22.5573 42.5626 22.5178C42.3049 22.5027 41.966 22.4138 41.9079 22.1208ZM46.8246 17.7492C46.647 17.7495 46.4694 17.7498 46.2918 17.7498C46.7604 18.7257 47.2394 19.6967 47.7184 20.6677C48.1679 21.5788 48.6174 22.49 49.0584 23.4053C48.8417 23.8803 48.606 24.3465 48.3703 24.8128C48.1212 25.3056 47.8721 25.7984 47.6454 26.3015C47.8362 26.3007 48.0272 26.3021 48.2182 26.3036C48.6428 26.3069 49.0676 26.3101 49.4918 26.2883C50.8837 23.4455 52.2743 20.6026 53.6636 17.7584C53.0393 17.7426 52.4157 17.7452 51.7921 17.7558C51.1935 19.0653 50.5878 20.3721 49.9787 21.6764C49.7991 21.2899 49.6175 20.9043 49.436 20.5186C49.1396 19.8887 48.8431 19.2589 48.555 18.6255C48.5089 18.5223 48.4581 18.4213 48.4072 18.3202C48.314 18.1348 48.2208 17.9495 48.1567 17.7518C47.7127 17.7476 47.2686 17.7484 46.8246 17.7492Z" fill="#010101"/>
</svg>
