<svg width="162" height="158" viewBox="0 0 162 158" fill="none" xmlns="http://www.w3.org/2000/svg">
<path d="M133 138H43V80.9517C43 79.8734 43.8464 79 44.89 79H131.11C132.154 79 133 79.8734 133 80.9517V138Z" fill="#D3D3D3"/>
<path d="M46 83H130V133H46V83Z" fill="#F2F2F2"/>
<path d="M29.2217 154C28.3938 155.003 29.9758 158 32.4568 158H146.627C149.106 158 150.668 155.003 149.719 154H29.2217Z" fill="#D3D3D3"/>
<path d="M148.683 153.96C149.628 155.086 148.39 156 145.921 156H32.2241C29.7533 156 28.4194 155.086 29.2438 153.96L40.8842 138.04C41.7087 136.913 43.866 136 45.7042 136H130.292C132.128 136 134.386 136.913 135.331 138.04C139.78 143.349 144.233 148.652 148.683 153.96Z" fill="#F2F2F2"/>
<path opacity="0.5" d="M55.2092 141.226H51.3929C51.9329 140.402 52.2034 139.989 52.7422 139.164H56.4077L55.2092 141.226ZM60.1552 141.226H56.3389C56.8011 140.402 57.0322 139.989 57.4934 139.164H61.1578L60.1552 141.226ZM58.5748 138.77H53.0038L53.507 138H58.9934L58.5748 138.77ZM65.1043 138.77L59.5318 138.77L59.9346 138H65.421C65.295 138.308 65.2304 138.462 65.1043 138.77ZM71.6344 138.77H66.0613L66.3628 138H71.8518L71.6344 138.77ZM78.1634 138.77H72.5919L72.792 138H78.2795C78.2343 138.308 78.2107 138.462 78.1634 138.77ZM84.694 138.77H79.1209L79.2222 138H84.7082L84.694 138.77ZM91.2235 138.77H85.652V138H91.1379C91.1726 138.308 91.1878 138.462 91.2235 138.77ZM97.7541 138.77H92.1815L92.0796 138H97.5676C97.6412 138.308 97.679 138.462 97.7541 138.77ZM104.285 138.77H98.7116L98.5099 138H103.996C104.112 138.308 104.17 138.462 104.285 138.77ZM110.815 138.77H105.242C105.12 138.462 105.059 138.308 104.938 138H110.427L110.815 138.77ZM117.343 138.77H111.772C111.61 138.462 111.529 138.308 111.369 138H116.854C117.049 138.308 117.147 138.462 117.343 138.77ZM124.63 138.77H118.302L117.797 138H124.028C124.268 138.308 124.39 138.462 124.63 138.77ZM65.0991 141.226H61.2839C61.6673 140.402 61.8601 139.99 62.2424 139.165L65.9069 139.164C65.5844 139.99 65.4226 140.401 65.0991 141.226ZM70.044 141.226H66.2283C66.5345 140.402 66.6868 139.989 66.9935 139.164L70.658 139.165L70.044 141.226ZM74.99 141.226H71.1748C71.4028 140.401 71.5173 139.99 71.7442 139.164H75.4086C75.2416 139.989 75.1565 140.402 74.99 141.226ZM79.935 141.226H76.1198C76.2689 140.402 76.3425 139.988 76.4932 139.164H80.1587C80.0684 139.989 80.0227 140.402 79.935 141.226ZM84.8773 141.226H81.0652L81.2438 139.164H84.9072C84.8962 139.989 84.8904 140.402 84.8773 141.226ZM89.8248 141.226H86.0097L85.9949 139.164H89.6583C89.7256 139.989 89.7587 140.402 89.8248 141.226ZM94.7693 141.226H90.9556L90.7466 139.164H94.4084C94.5534 139.989 94.6248 140.402 94.7693 141.226ZM99.7132 141.226H95.899C95.7378 140.402 95.6564 139.989 95.4941 139.164H99.1585C99.3796 139.989 99.491 140.402 99.7132 141.226ZM53.611 143.975H49.5967L50.9434 141.914H54.8095L53.611 143.975ZM58.8175 143.975H54.8016C55.2638 143.151 55.4949 142.738 55.9561 141.914H59.8222C59.4194 142.738 59.2177 143.15 58.8175 143.975ZM64.0219 143.975H60.006C60.3894 143.151 60.5801 142.738 60.9646 141.914H64.8291C64.5061 142.738 64.3438 143.15 64.0219 143.975ZM69.2268 143.975H65.2099C65.5156 143.151 65.6689 142.738 65.9736 141.914H69.8402C69.5944 142.738 69.4715 143.15 69.2268 143.975ZM74.4322 143.975H70.4169C70.6449 143.151 70.7578 142.738 70.9852 141.915C72.532 141.915 73.3035 141.914 74.8503 141.914C74.6817 142.738 74.5993 143.15 74.4322 143.975ZM79.6351 143.975H75.6198L75.9942 141.914H79.8588C79.77 142.738 79.7243 143.15 79.6351 143.975ZM84.8389 143.975H80.8252L81.0048 141.914H84.8673L84.8389 143.975ZM90.0449 143.975H86.0296L86.0149 141.914H89.8795C89.9451 142.738 89.9798 143.15 90.0449 143.975ZM95.2488 143.975H91.2356C91.151 143.151 91.1085 142.738 91.026 141.914H94.8885L95.2488 143.975ZM100.453 143.975H96.4389C96.2766 143.151 96.1947 142.738 96.0335 141.914H99.898L100.453 143.975ZM52.0143 146.724H47.7983C48.3367 145.9 48.6077 145.487 49.1471 144.663L53.2128 144.662C52.7333 145.486 52.4928 145.899 52.0143 146.724ZM57.4787 146.724H53.2638L54.4166 144.663H58.4834C58.0816 145.486 57.8799 145.899 57.4787 146.724ZM62.9441 146.724H58.7271L59.6856 144.663H63.7514L62.9441 146.724ZM68.408 146.724H64.1905L64.9546 144.663H69.0214L68.408 146.724ZM73.8718 146.724H69.6575C69.8844 145.9 69.9999 145.487 70.2258 144.663H74.2909C74.125 145.486 74.0404 145.899 73.8718 146.724ZM79.3352 146.724H75.1203C75.2694 145.9 75.3456 145.487 75.4953 144.663H79.561L79.3352 146.724ZM84.7985 146.724H80.5857L80.7643 144.663H84.8279C84.8174 145.486 84.8111 145.899 84.7985 146.724ZM90.2666 146.724H86.0501C86.0454 145.9 86.0417 145.487 86.0354 144.663H90.1006C90.1673 145.486 90.1993 145.899 90.2666 146.724ZM95.7299 146.724H91.5166C91.432 145.9 91.3895 145.487 91.306 144.663H95.3696C95.5135 145.486 95.5865 145.899 95.7299 146.724ZM101.193 146.724H96.9768C96.816 145.9 96.7352 145.487 96.5729 144.663H100.638L101.193 146.724ZM50.4166 149.471H46C46.5389 148.647 46.8104 148.235 47.3493 147.411H51.6141C51.2156 148.098 50.8164 148.785 50.4166 149.471ZM56.1415 149.471H51.7259L52.8804 147.411H57.1462C56.7444 148.235 56.5422 148.647 56.1415 149.471ZM61.8648 149.471H57.4493C57.8327 148.647 58.0249 148.235 58.4094 147.411H62.6736C62.3506 148.235 62.1894 148.647 61.8648 149.471ZM67.5702 149.537H63.1468C63.4641 148.687 63.6206 148.261 63.9357 147.412H68.2031C67.95 148.261 67.8239 148.687 67.5702 149.537ZM101.934 149.471H68.8975C69.1238 148.647 69.2373 148.235 69.4652 147.411H101.379L101.934 149.471ZM77.5142 154H102.576L100.465 150.489H79.509L77.5142 154ZM104.188 141.226H100.373C100.139 140.402 100.024 139.989 99.7919 139.164H103.456C103.749 139.988 103.894 140.402 104.188 141.226ZM105.163 143.975H101.146C100.914 143.151 100.799 142.738 100.566 141.914H104.433C104.724 142.738 104.87 143.15 105.163 143.975ZM106.138 146.724H101.921C101.689 145.9 101.574 145.487 101.341 144.663H105.407C105.699 145.486 105.844 145.899 106.138 146.724ZM107.112 149.471H102.696L102.115 147.411H106.381L107.112 149.471ZM108.66 141.226H104.845C104.542 140.402 104.39 139.989 104.088 139.164H107.753C108.115 139.989 108.297 140.402 108.66 141.226ZM109.871 143.975H105.855C105.552 143.151 105.4 142.738 105.098 141.914H108.963C109.325 142.738 109.508 143.15 109.871 143.975ZM111.08 146.724H106.864L106.106 144.663H110.172C110.536 145.486 110.716 145.899 111.08 146.724ZM112.29 149.471H107.872C107.571 148.647 107.419 148.235 107.117 147.411H111.382C111.745 148.235 111.926 148.647 112.29 149.471ZM113.133 141.226H109.318L108.385 139.164H112.05C112.483 139.989 112.701 140.402 113.133 141.226ZM114.577 143.975H110.562L109.628 141.914H113.494C113.927 142.738 114.145 143.15 114.577 143.975ZM116.023 146.724H111.807C111.433 145.9 111.248 145.487 110.873 144.663H114.94L116.023 146.724ZM117.467 149.471H113.051C112.678 148.647 112.492 148.235 112.117 147.411H116.384L117.467 149.471ZM117.605 141.226H113.791L112.682 139.164H116.345C116.851 139.989 117.102 140.402 117.605 141.226ZM119.285 143.975H115.27L114.161 141.914H118.026C118.53 142.738 118.783 143.15 119.285 143.975ZM120.965 146.724H116.75C116.306 145.9 116.085 145.487 115.64 144.663H119.706C120.21 145.486 120.462 145.899 120.965 146.724ZM122.645 149.471H118.229C117.859 148.784 117.49 148.097 117.119 147.411H121.386C121.889 148.235 122.141 148.647 122.645 149.471ZM122.08 141.226H118.264C117.749 140.402 117.491 139.989 116.977 139.164H120.643C121.217 139.989 121.504 140.402 122.08 141.226ZM123.993 143.975H119.977C119.462 143.151 119.206 142.738 118.692 141.914H122.558C123.132 142.738 123.419 143.15 123.993 143.975ZM125.908 146.724H121.691C121.177 145.9 120.921 145.487 120.406 144.663H124.473C125.048 145.486 125.334 145.899 125.908 146.724ZM127.822 149.471H123.405L122.12 147.411H126.387L127.822 149.471ZM126.551 141.226H122.737C122.152 140.402 121.86 139.989 121.273 139.164H124.939C125.584 139.989 125.906 140.402 126.551 141.226ZM128.701 143.975H124.685C124.102 143.151 123.808 142.738 123.224 141.914H127.089L128.701 143.975ZM130.85 146.724H126.634C126.049 145.9 125.758 145.487 125.173 144.663H129.238C129.883 145.486 130.205 145.899 130.85 146.724ZM133 149.471H128.582L127.122 147.411H131.388C132.033 148.235 132.354 148.647 133 149.471Z" fill="#D3D3D3"/>
<path d="M109 133H70C70.2786 131.872 70.5338 130.971 70.7577 130.344C70.8737 130.022 71.0335 129.718 71.2327 129.439C71.9238 128.464 73.107 127.634 74.6313 126.932C76.4509 126.094 78.7538 125.435 81.2785 124.912C83.961 124.364 86.8873 123.969 89.7364 123.683C89.9291 123.666 90.1197 123.646 90.3124 123.629C93.4813 123.335 96.5258 123.173 98.9823 123.094C102.374 122.978 104.66 123.002 104.66 123.002C104.66 123.002 104.843 123.293 105.164 123.874C105.917 125.253 107.422 128.273 109 133Z" fill="#0B4870"/>
<path d="M80 68C79.8097 68.7098 79.4745 69.3671 79 70L79.2842 68.2107C79.5241 68.1309 79.7641 68.0791 80 68Z" fill="#FFE3CA"/>
<path d="M141 93.0489C141 93.0489 143.47 90.8365 142.981 89.1767C142.566 87.7681 143.192 86.1904 143.348 85.5356C143.559 84.6683 143.644 81.8528 144.314 82.006C145.448 82.2722 145.186 86.7667 145.325 87.7248C145.465 88.6819 148.469 85.4763 149.493 85.3086C150.519 85.1373 155.733 90.2431 153.41 92.2151C151.087 94.1829 147.884 94.9816 147.545 95.4067C147.207 95.8319 145.615 97 145.615 97L141 93.0489Z" fill="#F1B99E"/>
<path d="M148 85.9945C148 85.9945 155.715 79.9639 156.558 80.0002C157.404 80.0348 157.696 80.4837 156.997 81.0767C156.301 81.6714 149.712 87.128 149.712 87.128C149.712 87.128 160.015 81.553 160.715 81.4285C161.121 81.3548 161.433 82.1522 161.086 82.5068C160.741 82.8574 151.153 89.0142 151.153 89.0142C151.153 89.0142 160.782 83.8257 161.396 83.8994C161.934 83.9658 162.318 84.8715 161.629 85.306C160.941 85.7398 152.27 91.0724 152.27 91.0724C152.27 91.0724 159.513 87.7489 159.995 88.1202C160.288 88.3503 160.706 88.8551 158.813 89.6525C156.917 90.451 152.794 93 152.794 93L148 85.9945Z" fill="#F1B99E"/>
<path d="M90.2092 64.9831C90.1451 65 90.0633 65 90 65V64.9642C90.0633 64.9831 90.1451 64.9831 90.2092 64.9831ZM95 62V62.1462C94.9726 62.1757 94.9458 62.2058 94.9196 62.2366C94.7429 62.4549 94.549 62.6542 94.3565 62.855C94.2756 62.9281 94.2119 62.9997 94.1324 63.0727C94.2277 62.9649 94.3403 62.8366 94.4383 62.7278C94.5829 62.5642 94.7266 62.3644 94.8866 62.163C94.9196 62.1099 94.9512 62.0562 95 62Z" fill="#EEBEA7"/>
<path d="M99 55.4377C97.9915 57.7257 96.7619 59.7887 95.3673 61.4201C95.1853 61.6446 94.9822 61.8691 94.7997 62.0573V61.9066C94.744 61.964 94.7079 62.0199 94.6703 62.0747C94.4877 62.2824 94.3238 62.4885 94.1588 62.6571C94.0469 62.7699 93.9185 62.9017 93.8098 63.0129C93.7711 63.0324 93.736 63.0704 93.6994 63.1072C93.6438 63.1631 93.5891 63.22 93.5329 63.2385C93.3884 63.3678 93.2352 63.4867 93.0746 63.5943C92.8735 63.7445 92.6905 63.8752 92.4894 63.988C92.4415 64.0212 92.3925 64.0527 92.3425 64.0823C92.1574 64.1936 91.9759 64.2879 91.8119 64.3622C91.6469 64.4528 91.4744 64.5283 91.2964 64.5878L91.2788 64.6068C91.1324 64.6447 91.0216 64.7006 90.8927 64.738C90.855 64.757 90.8205 64.776 90.7824 64.776C90.6555 64.8129 90.5266 64.8498 90.3972 64.8698C90.3616 64.8698 90.3431 64.8877 90.3065 64.8877H90.2503C90.1595 64.9078 90.0503 64.9262 89.9585 64.9452C89.8662 64.9631 89.7564 64.9631 89.6651 64.9631C89.5744 64.9826 89.48 64.9826 89.4068 64.9826H89.3893C89.3718 65 89.3532 65 89.3346 64.9826C89.2614 64.9826 89.1681 64.9826 89.0959 64.9631V65C88.9866 65 88.8758 64.9826 88.7484 64.9631C88.619 64.9452 88.4726 64.9262 88.3432 64.9078C88.27 64.8877 88.1983 64.8877 88.1045 64.8698C88.0323 64.8498 87.9581 64.8498 87.8849 64.8129C87.5002 64.7191 87.1347 64.5688 86.7485 64.3622C86.6281 64.3017 86.5115 64.2334 86.3995 64.1577C85.7947 63.8014 85.207 63.2949 84.6012 62.6566C84.3831 62.4331 84.1805 62.1696 83.9603 61.906C83.0251 60.7059 82.0909 59.1135 81.2278 57.0885C80.876 56.2787 80.5455 55.4593 80.2369 54.6312C80.6947 55.5499 79.8961 46.9796 80.0802 47.2806C77.5864 42.405 80.0719 46.4177 80.9546 44C86.4737 46.3808 97.2022 50.4879 97.2022 46.3244C97.2022 46.3244 97.4404 48.856 97.7167 51.4809C97.9364 53.6372 98.1751 55.8699 98.2859 56.7132C98.2854 56.7127 98.5772 56.2436 99 55.4377Z" fill="#F4C7B1"/>
<path d="M90.2092 64.9831C90.1451 65 90.0633 65 90 65V64.9642C90.0633 64.9831 90.1451 64.9831 90.2092 64.9831ZM95 62V62.1462C94.9726 62.1757 94.9458 62.2058 94.9196 62.2366C94.7429 62.4549 94.549 62.6542 94.3565 62.855C94.2756 62.9281 94.2119 62.9997 94.1324 63.0727C94.2277 62.9649 94.3403 62.8366 94.4383 62.7278C94.5829 62.5642 94.7266 62.3644 94.8866 62.163C94.9196 62.1099 94.9512 62.0562 95 62Z" fill="#EEBEA7"/>
<path d="M80.5438 54.4654C79.0424 51.4567 76.6237 45.707 77.0555 40.2602V40.2404C76.3812 35.7281 81.9134 27.597 90.3533 28.0156C98.7917 27.597 104.325 35.7281 103.65 40.2404V40.2602C103.911 43.5541 103.123 46.9434 102.149 49.7819C102.768 49.761 103.366 49.8376 103.967 50.0474C107.325 51.1714 108.9 55.6082 107.475 59.931C106.069 64.2719 102.186 66.861 98.8291 65.738C97.2719 65.2236 96.09 63.9866 95.4347 62.3669V62.0061C95.6213 61.8156 95.8296 61.587 96.0151 61.359C97.4411 59.7024 98.6984 57.6074 99.7295 55.2838C99.2973 56.1028 99.0347 57.1091 99.0347 57.1091C98.9214 56.2537 98.6409 53.4554 98.4164 51.2656C98.1333 48.6 97.8903 46.0292 97.8903 46.0292C97.8903 50.2577 86.9204 46.0865 81.2771 43.6687L80.5438 54.4654Z" fill="#FFBE55"/>
<path d="M95 62V62.517C95 62.8815 94.9846 63.322 95 63.8201C94.5332 64.5094 94.0673 65.0851 93.5852 65.525C93.423 65.6785 93.263 65.8131 93.103 65.9467C92.9815 66.0556 92.8522 66.1517 92.7167 66.2337H92.7013C91.962 66.7313 91.2219 66.9806 90.4989 67H90.1283C90.0804 67 90.033 67 90 66.9806V65.1222C90.0633 65.1422 90.1451 65.1422 90.2092 65.1422C90.2255 65.1599 90.2418 65.1599 90.2571 65.1422H90.2725C90.3543 65.1599 90.4189 65.1599 90.4989 65.1599C90.5956 65.1599 90.7076 65.1422 90.8039 65.1222C90.9159 65.1039 91.0456 65.0845 91.1586 65.0657C91.2219 65.0452 91.2856 65.0452 91.3674 65.0269C91.432 65.0065 91.4957 65.0065 91.5603 64.9688C91.8979 64.8729 92.2187 64.7194 92.5549 64.5083C92.653 64.4523 92.7664 64.3759 92.8613 64.2994C93.2142 64.0695 93.5522 63.7614 93.8897 63.3597C93.939 63.3409 93.9869 63.2827 94.0357 63.2256C94.0673 63.1879 94.0985 63.1492 94.1324 63.1292C94.2277 63.0156 94.3403 62.8805 94.4383 62.7658C94.5829 62.5934 94.7266 62.3829 94.8866 62.1707C94.9196 62.1158 94.9512 62.0592 95 62Z" fill="#A5735B"/>
<path d="M90 77.6895V129L98.7803 128.622L106 128.299L105.265 119.334L104.457 109.306C103.204 109.842 101.956 110.392 100.715 110.956C101.054 106.994 101.204 103.355 100.979 100.379C100.095 89.3087 98.7232 80.2869 97.651 74.392V74.3728C97.763 73.2359 97.6124 71.9657 97.3503 70.7909C97.3117 70.5485 97.2616 70.3081 97.2002 70.0705C97.1246 69.8046 97.0697 69.559 96.9941 69.3123L96.8234 68.7444C96.7864 68.6117 96.7293 68.479 96.6934 68.3645C96.5556 67.9007 96.3918 67.4452 96.203 67H96.1665C96.3171 67.683 96.8435 69.9576 97.5004 73.539V73.5587C97.0702 75.4539 95.6962 76.5152 94.0036 77.104C93.9856 77.104 93.9491 77.1216 93.928 77.1216C92.7643 77.5206 91.448 77.6714 90.1892 77.69C90.1326 77.6895 90.0571 77.7092 90 77.6895Z" fill="#0E538C"/>
<path d="M109.735 93.3639C110.214 94.0531 110.89 95.3234 111.569 96.7616C111.47 98.349 111.35 99.3001 111.35 99.3001C111.35 99.3001 110.613 101.112 109.635 103.951C109.375 104.659 106.865 117.209 106.586 118.032C106.525 118.181 106.484 118.349 106.426 118.498C105.509 118.927 105.714 118.179 104.117 118.779C103.641 118.964 103.121 119.151 102.582 119.374C102.503 119.414 102.404 119.45 102.262 119.506C102.103 119.562 101.944 119.618 101.784 119.692C100.724 120.12 99.6674 120.556 98.6151 121C98.9727 117.097 100.344 102.924 100.104 99.992C99.1672 89.0858 97.7128 80.1975 96.5755 74.3899V74.371C96.5144 74.0912 96.4769 73.8303 96.4164 73.5684V73.549C95.7185 70.0205 95.1603 67.7802 95 67.1067H100.165V67.145C101.6 67.0511 108.373 66.1582 113 70.2851C110.447 69.2578 107.064 70.1874 105.929 70.842C105.47 71.0883 105.046 71.3895 104.67 71.738C104.092 72.2434 103.619 72.845 103.276 73.5122C99.9659 79.9177 108.338 91.3829 109.735 93.3639Z" fill="#2A94F4"/>
<path d="M109 133H98C98.1148 131.447 98.2609 129.836 98.4228 128.194C98.5876 126.431 98.7841 124.639 98.9714 122.838C99.0339 122.216 99.0988 121.598 99.1603 120.978C99.1603 120.978 99.1641 120.978 99.1684 120.974C100.505 120.432 102.261 117.916 104.187 117.074C104.232 117.056 104.274 117.035 104.321 117.018C104.87 116.81 105.415 118.495 105.977 118.269C106.337 122.502 107.625 128.024 109 133Z" fill="#2A94F4"/>
<path d="M90 66.2457V77.9909C90.0533 78.0114 90.1238 77.9909 90.177 77.9909C91.3518 77.9715 92.5803 77.8151 93.6662 77.4008C93.6864 77.4008 93.72 77.3826 93.7367 77.3826C95.3158 76.7715 96.5981 75.6699 97 73.7027V73.6823C96.387 69.9648 95.8963 67.6045 95.7553 66.895H95.5092V66.5217C95.5092 66.2861 95.4909 66.0693 95.4909 65.8525C95.4741 65.1441 95.4741 64.4755 95.4569 63.8257V63C94.9484 63.7079 94.439 64.2991 93.9133 64.7509C93.7508 64.9135 93.5749 65.0585 93.3881 65.1839C93.2551 65.2952 93.114 65.3938 92.9664 65.4787H92.9496C92.0886 66.03 91.2467 66.2656 90.4049 66.2656C90.2638 66.2656 90.1238 66.2656 90 66.2457Z" fill="#F4C7B1"/>
<path d="M143.617 90.9528L144.054 91.7441L144.067 91.7593L147.474 97.8968L148 98.8415C148 98.8415 146.968 99.2655 145.343 99.9661C143.864 100.603 141.901 101.44 139.774 102.378C139.184 102.647 138.591 102.91 137.996 103.167C133.858 105.037 129.503 107.034 127.322 108.312C122.564 111.082 118.605 112.049 116.192 111.998C113.793 111.933 108.531 97.4588 107.709 93.9862C106.875 90.5288 103.797 84.158 101.591 78.0917C100.657 75.5142 100.927 73.2397 101.726 71.434C102.79 68.9861 104.794 67.4041 106.032 67.1513C106.519 67.0372 107.02 66.9873 107.52 67.0027C108.291 67.006 109.019 67.1567 109.702 67.4262C116.399 70.0853 118.472 84.2228 118.864 86.6307C119.008 87.4663 119.411 88.8674 119.929 90.3971C121.078 93.9754 122.75 98.2938 122.75 98.2938C126.112 96.8171 127.5 96.3952 128.781 96.0209C129.711 95.7438 130.589 95.5181 132.106 94.9239C132.563 94.7511 133.052 94.5496 133.578 94.3665C134.862 93.8926 136.151 93.434 137.445 92.9908C140.646 91.9008 143.617 90.9528 143.617 90.9528Z" fill="#2A94F4"/>
<path d="M90 65.1222V66.9806C89.9425 67 89.9046 67 89.846 67H89.4009C88.5323 66.9806 87.6441 66.7313 86.7571 66.2337H86.7387C86.5765 66.1508 86.4214 66.0548 86.2751 65.9467C86.0784 65.8119 85.8859 65.6713 85.6976 65.525C85.1191 65.0851 84.559 64.5089 84 63.8201C84.0184 63.0732 84 62.4405 84 62C84.2315 62.2693 84.4446 62.538 84.674 62.7668C85.311 63.419 85.9292 63.937 86.5652 64.3005C86.6812 64.377 86.8162 64.454 86.9322 64.5094C87.3383 64.7205 87.7233 64.874 88.1272 64.9698C88.2042 65.0075 88.2818 65.0075 88.3582 65.028C88.4574 65.0463 88.5323 65.0463 88.6093 65.0668C88.7453 65.0856 88.8993 65.105 89.0354 65.1233C89.1688 65.1432 89.2859 65.161 89.4009 65.161C89.4768 65.161 89.5749 65.161 89.6519 65.1432C89.6714 65.161 89.6909 65.161 89.7094 65.1432H89.7278C89.8053 65.1422 89.904 65.1422 90 65.1222Z" fill="#A5735B"/>
<path d="M90 77.6895V129L81.2194 128.622L74 128.299L74.7335 119.334L75.5415 109.306C76.7074 109.8 78.0238 110.387 79.2842 110.956C78.9444 106.994 78.7964 103.355 79.021 100.379C79.9041 89.3087 81.2755 80.2869 82.3472 74.392V74.3728C82.2362 73.2359 82.3868 71.9657 82.649 70.7909C82.6854 70.5426 82.743 70.2985 82.8001 70.0705C82.8757 69.8046 82.9296 69.559 83.0051 69.3123L83.1758 68.7444C83.2128 68.6117 83.2699 68.479 83.3069 68.3645C83.4455 67.9011 83.6088 67.4456 83.7963 67H83.8327C83.6826 67.683 83.1552 69.9576 82.4983 73.539V73.5587C82.9296 75.4539 84.3036 76.5152 85.9968 77.104C86.0148 77.104 86.0518 77.1216 86.0719 77.1216C87.2356 77.5206 88.553 77.6714 89.8108 77.69C89.8668 77.6895 89.944 77.7092 90 77.6895Z" fill="#0E538C"/>
<path d="M83 67C82.8582 67.6786 82.36 69.9383 81.7394 73.4964V73.5159C81.6865 73.7795 81.6505 74.0431 81.5971 74.3253V74.3443C80.5846 80.2007 79.2891 89.1637 78.4548 100.161C78.2421 103.118 78.3824 106.734 78.7034 110.67C77.5307 110.11 76.352 109.563 75.1677 109.03C74.689 108.804 74.2257 108.617 73.8013 108.429C72.3784 107.826 71.6325 107.393 70.8163 106.959C70.7643 106.809 70.7274 106.64 70.674 106.489C70.4254 105.661 70.1952 104.869 69.9646 104.155C69.0934 101.292 68.4368 99.4649 68.4368 99.4649C68.4368 99.4649 68.331 98.5057 68.2421 96.9051C68.8457 95.4542 69.4498 94.1738 69.8767 93.4788C71.1188 91.4811 78.5776 79.9197 75.6291 73.4604C75.3232 72.7875 74.902 72.1808 74.3869 71.6713C74.0517 71.3202 73.6752 71.0165 73.2666 70.7677C72.2566 70.1082 68.2731 70.8545 66 71.8904C70.1208 67.7273 77.1228 66.9449 78.4014 67.0397V67.0011H83V67ZM80.9705 133H69.5392C69.8827 131.811 70.2217 130.592 70.5377 129.368C71.5557 125.49 72.3979 121.553 72.6815 118.353C73.2641 118.578 73.8357 118.785 74.4064 118.992C76.4663 119.762 78.3475 120.5 79.7649 121.046C79.8927 122.281 80.032 123.521 80.1682 124.75C80.2921 125.917 80.4189 127.077 80.5312 128.221C80.6994 129.854 80.8507 131.455 80.9705 133Z" fill="#2A94F4"/>
<path d="M90 66.2457V77.9909C89.9477 78.0114 89.8762 77.9909 89.823 77.9909C88.6494 77.9715 87.4201 77.8151 86.3343 77.4008C86.3161 77.4008 86.2816 77.3826 86.2643 77.3826C84.6844 76.7715 83.4024 75.6699 83 73.7027V73.6823C83.6129 69.9648 84.1055 67.6045 84.2451 66.895H84.4911V66.5217C84.4911 66.2861 84.5094 66.0693 84.5094 65.8525C84.5261 65.1441 84.5261 64.4755 84.5434 63.8257V63C85.0518 63.7079 85.5611 64.2991 86.0873 64.7509C86.2643 64.9284 86.4389 65.0656 86.6124 65.1839C86.7539 65.3017 86.894 65.3985 87.034 65.4787H87.0508C87.9108 66.03 88.7554 66.2656 89.5952 66.2656C89.7362 66.2656 89.8757 66.2656 90 66.2457Z" fill="#F4C7B1"/>
<path d="M94.9744 116.257C94.8414 117.11 94.2905 117.75 94.2905 117.75C94.2905 117.75 94.6132 118.873 93.8726 119.61C93.8726 119.61 94.1195 120.676 93.1502 121.374C93.1502 121.374 93.3784 122.422 92.617 122.868C92.617 122.868 90.9627 123.082 90.3567 122.965C87.8989 122.395 85.4465 121.8 83 121.181L84.6153 114.259V114.241C85.319 113.756 85.9832 113.309 86.1932 113.174C86.7067 112.862 88.4561 112.961 90.2595 113.541C92.0105 114.104 93.9683 114.899 94.5186 115.209C94.8045 115.364 95.0877 115.424 94.9744 116.257Z" fill="#EEA886"/>
<path d="M85 113.495L84.7945 114.348V114.366L83.2138 120.98L82.9722 122C82.9722 122 81.9479 121.611 80.3091 121.017C78.822 120.48 76.8517 119.758 74.6938 118.999C74.0982 118.794 73.5016 118.59 72.8903 118.369C68.6669 116.923 64.2014 115.422 61.783 114.867C56.5185 113.643 53.0198 111.68 51.3089 110.032C49.6173 108.383 55.3462 94.6362 57.0403 91.6345C58.7147 88.6328 60.6844 82.0747 63.0855 76.3134C64.1083 73.8669 65.7999 72.441 67.5683 71.7005C69.9506 70.6808 72.4432 70.9027 73.501 71.5515C73.9292 71.796 74.3236 72.0948 74.6744 72.4405C75.2139 72.9418 75.6551 73.5387 75.9754 74.2007C79.0636 80.5556 71.2515 91.9303 69.9506 93.8957C69.5035 94.5794 68.8708 95.8397 68.2386 97.2666C66.7134 100.563 65.0762 104.732 65.0762 104.732C68.4797 105.937 69.7629 106.566 70.9347 107.158C71.7896 107.585 72.5708 108.011 74.0611 108.605C74.5055 108.789 74.9908 108.973 75.4922 109.196C76.6457 109.679 77.9483 110.252 79.1954 110.809C81.1374 111.689 83.0723 112.584 85 113.495Z" fill="#2A94F4"/>
<path d="M102.867 50L102.701 42.4772C102.677 41.222 102.701 39.9786 102.522 38.8146C102.344 37.6339 102.023 36.4779 101.525 35.4078C100.547 33.2627 98.9047 31.4521 96.843 30.3038C94.7834 29.1376 92.3878 28.6076 89.9987 28.6173C87.6101 28.6076 85.2096 29.1376 83.1582 30.3038C81.0921 31.4521 79.4508 33.2627 78.4692 35.4078C77.9746 36.4774 77.6537 37.6339 77.4757 38.8146C77.2965 39.9911 77.3144 41.2058 77.2976 42.4772L77.1288 50H76.1834L76.0216 42.4772C76.0065 41.2436 75.9496 39.9446 76.1163 38.6328C76.2808 37.3333 76.6006 36.037 77.1293 34.8179C78.1532 32.3587 80.0661 30.2741 82.3805 28.9557C84.6982 27.6168 87.3742 27.0135 89.9992 27C92.6259 27.0135 95.2991 27.6168 97.6163 28.9557C99.9324 30.2741 101.843 32.3587 102.865 34.8179C103.393 36.037 103.717 37.3333 103.884 38.6328C104.049 39.9549 103.994 41.2312 103.98 42.4772L103.816 50H102.867Z" fill="#0E538C"/>
<path d="M77.6793 54C76.3382 54 76 52.8206 76 51.3638V46.6373C76 45.182 76.3382 44 77.6793 44H78V54H77.6793Z" fill="#0B4870"/>
<path d="M78 44H79V54H78V44Z" fill="#2A94F4"/>
<path d="M103.48 54C105.49 54 106 52.8206 106 51.3638V46.6373C106 45.182 105.49 44 103.48 44H103V54H103.48Z" fill="#0B4870"/>
<path d="M102 44H103V54H102V44Z" fill="#2A94F4"/>
<path d="M91 63V62.0941C94.8148 62.0941 102.08 56.7683 102.08 54H103C103 57.5043 94.9634 63 91 63Z" fill="#CCE9FF"/>
<path d="M91.7501 63H90.2506C89.0065 63 88 62.5533 88 61.9988C88 61.4463 89.0065 61 90.2506 61H91.7501C92.9928 61 94 61.4467 94 61.9988C93.9994 62.5533 92.9928 63 91.7501 63Z" fill="#0B4870"/>
<path d="M58 12.9735V20.2769L57.956 30.1912L57.8971 42.1659L57.8599 51L49.0278 42.1321L46.3328 42.1226L10.5943 41.956C4.55639 40.7822 0 35.4875 0 29.139V12.9735C0 6.2676 5.0886 0.729123 11.6247 0L47.4476 0.164438C53.4616 1.34721 58 6.6319 58 12.9735Z" fill="#0A6DED"/>
<path opacity="0.8" d="M47 13.0114C47.0002 13.2755 46.9504 13.5371 46.8533 13.7812C46.7562 14.0253 46.6138 14.2472 46.4343 14.4341C46.2547 14.621 46.0414 14.7693 45.8067 14.8706C45.5719 14.9719 45.3203 15.0242 45.0661 15.0244H11.936C11.6817 15.0244 11.4298 14.9723 11.1949 14.8711C10.9599 14.7699 10.7464 14.6216 10.5667 14.4347C10.3869 14.2478 10.2443 14.0258 10.1471 13.7816C10.0498 13.5374 9.99986 13.2757 10 13.0114C10 12.7472 10.0501 12.4856 10.1474 12.2415C10.2447 11.9974 10.3873 11.7757 10.5671 11.5889C10.7469 11.4021 10.9603 11.254 11.1952 11.1529C11.43 11.0519 11.6818 10.9999 11.936 11H45.0661C46.1334 11 47 11.9 47 13.0114ZM47 20.5022C46.9997 21.0355 46.796 21.5469 46.4335 21.9243C46.071 22.3018 45.5793 22.5145 45.0661 22.5158H11.936C11.4226 22.5148 10.9305 22.3022 10.5676 21.9248C10.2047 21.5473 10.0006 21.0358 10 20.5022C9.99993 20.2379 10.0499 19.9762 10.1472 19.732C10.2445 19.4878 10.387 19.266 10.5668 19.079C10.7466 18.8921 10.96 18.7438 11.195 18.6426C11.4299 18.5414 11.6817 18.4893 11.936 18.4892H45.0661C45.3203 18.4894 45.5719 18.5417 45.8067 18.6429C46.0414 18.7442 46.2547 18.8926 46.4343 19.0795C46.6138 19.2664 46.7562 19.4883 46.8533 19.7324C46.9504 19.9765 47.0002 20.2381 47 20.5022ZM36.8787 27.9925C36.8787 29.0961 36.0089 30 34.9395 30H11.9339C11.4219 29.9994 10.9311 29.7876 10.5693 29.4112C10.2075 29.0348 10.0043 28.5246 10.0043 27.9925C10.0043 27.4363 10.215 26.9361 10.5672 26.5707C10.7459 26.3826 10.9587 26.2333 11.1933 26.1312C11.4278 26.0292 11.6796 25.9765 11.9339 25.9762H34.9395C35.4538 25.9768 35.9469 26.1894 36.3105 26.5675C36.6741 26.9455 36.8784 27.458 36.8787 27.9925Z" fill="#CCE9FF"/>
</svg>
