<svg width="128" height="128" viewBox="0 0 128 128" fill="none" xmlns="http://www.w3.org/2000/svg">
<path d="M41.9091 95.868L19 103L29.9091 83.2499C32.0909 77.7638 22.2727 76.0511 22.2727 55.8194C22.2727 33.3264 43.5455 24 61.5455 24C79.5455 24 109 25.4331 109 60.2083C109 75.0209 97 98.0624 41.9091 95.868Z" stroke="#292D32" stroke-width="7.5" stroke-linejoin="round"/>
<path d="M60.1519 63.2378V61.9009C60.1519 61.0819 60.2663 60.3592 60.4951 59.7329C60.724 59.0946 61.0913 58.4924 61.5972 57.9263C62.103 57.3481 62.7715 56.758 63.6025 56.1558C64.3493 55.6258 64.9455 55.1501 65.3911 54.7285C65.8488 54.307 66.18 53.8914 66.3848 53.4819C66.6016 53.0604 66.71 52.5846 66.71 52.0547C66.71 51.2718 66.4209 50.6756 65.8428 50.2661C65.2646 49.8566 64.4577 49.6519 63.4219 49.6519C62.3861 49.6519 61.3563 49.8145 60.3325 50.1396C59.3208 50.4648 58.291 50.8924 57.2432 51.4224L55.2739 47.4658C56.4784 46.7913 57.7852 46.2493 59.1943 45.8398C60.6035 45.4183 62.1452 45.2075 63.8193 45.2075C66.3968 45.2075 68.3901 45.8278 69.7993 47.0684C71.2205 48.2969 71.9312 49.8626 71.9312 51.7656C71.9312 52.7773 71.7686 53.6566 71.4434 54.4033C71.1302 55.138 70.6484 55.8245 69.998 56.4629C69.3597 57.0892 68.5588 57.7516 67.5952 58.4502C66.8726 58.9801 66.3185 59.4258 65.9331 59.7871C65.5477 60.1484 65.2827 60.5098 65.1382 60.8711C65.0057 61.2204 64.9395 61.6479 64.9395 62.1538V63.2378H60.1519ZM59.5737 69.4165C59.5737 68.2843 59.8809 67.4894 60.4951 67.0317C61.1214 66.5741 61.8742 66.3452 62.7534 66.3452C63.6086 66.3452 64.3433 66.5741 64.9575 67.0317C65.5838 67.4894 65.897 68.2843 65.897 69.4165C65.897 70.5005 65.5838 71.2834 64.9575 71.7651C64.3433 72.2469 63.6086 72.4878 62.7534 72.4878C61.8742 72.4878 61.1214 72.2469 60.4951 71.7651C59.8809 71.2834 59.5737 70.5005 59.5737 69.4165Z" fill="#292D32"/>
</svg>
