<svg width="128" height="128" viewBox="0 0 128 128" fill="none" xmlns="http://www.w3.org/2000/svg">
<path d="M41.1636 95.868L18 103L29.0303 83.2499C31.2364 77.7638 21.3091 76.0511 21.3091 55.8194C21.3091 33.3264 42.8182 24 61.0182 24C79.2182 24 109 25.4331 109 60.2083C109 75.0209 96.8667 98.0624 41.1636 95.868Z" fill="#292D32" stroke="#292D32" stroke-width="7.5" stroke-linejoin="round"/>
<path d="M59.1519 63.2378V61.9009C59.1519 61.0819 59.2663 60.3592 59.4951 59.7329C59.724 59.0946 60.0913 58.4924 60.5972 57.9263C61.103 57.3481 61.7715 56.758 62.6025 56.1558C63.3493 55.6258 63.9455 55.1501 64.3911 54.7285C64.8488 54.307 65.18 53.8914 65.3848 53.4819C65.6016 53.0604 65.71 52.5846 65.71 52.0547C65.71 51.2718 65.4209 50.6756 64.8428 50.2661C64.2646 49.8566 63.4577 49.6519 62.4219 49.6519C61.3861 49.6519 60.3563 49.8145 59.3325 50.1396C58.3208 50.4648 57.291 50.8924 56.2432 51.4224L54.2739 47.4658C55.4784 46.7913 56.7852 46.2493 58.1943 45.8398C59.6035 45.4183 61.1452 45.2075 62.8193 45.2075C65.3968 45.2075 67.3901 45.8278 68.7993 47.0684C70.2205 48.2969 70.9312 49.8626 70.9312 51.7656C70.9312 52.7773 70.7686 53.6566 70.4434 54.4033C70.1302 55.138 69.6484 55.8245 68.998 56.4629C68.3597 57.0892 67.5588 57.7516 66.5952 58.4502C65.8726 58.9801 65.3185 59.4258 64.9331 59.7871C64.5477 60.1484 64.2827 60.5098 64.1382 60.8711C64.0057 61.2204 63.9395 61.6479 63.9395 62.1538V63.2378H59.1519ZM58.5737 69.4165C58.5737 68.2843 58.8809 67.4894 59.4951 67.0317C60.1214 66.5741 60.8742 66.3452 61.7534 66.3452C62.6086 66.3452 63.3433 66.5741 63.9575 67.0317C64.5838 67.4894 64.897 68.2843 64.897 69.4165C64.897 70.5005 64.5838 71.2834 63.9575 71.7651C63.3433 72.2469 62.6086 72.4878 61.7534 72.4878C60.8742 72.4878 60.1214 72.2469 59.4951 71.7651C58.8809 71.2834 58.5737 70.5005 58.5737 69.4165Z" fill="white"/>
</svg>
