<svg width="42" height="42" viewBox="0 0 42 42" fill="none" xmlns="http://www.w3.org/2000/svg">
<path d="M16.2932 8.10156H9.50312C8.82129 8.10156 8.26855 8.6543 8.26855 9.33613V16.1263C8.26855 16.8081 8.82129 17.3608 9.50312 17.3608H16.2932C16.9751 17.3608 17.5278 16.8081 17.5278 16.1263V9.33613C17.5278 8.6543 16.9751 8.10156 16.2932 8.10156Z" stroke="white" stroke-width="3" stroke-linecap="round" stroke-linejoin="round"/>
<path d="M16.2932 24.3057H9.50312C8.82129 24.3057 8.26855 24.8584 8.26855 25.5402V32.3304C8.26855 33.0122 8.82129 33.5649 9.50312 33.5649H16.2932C16.9751 33.5649 17.5278 33.0122 17.5278 32.3304V25.5402C17.5278 24.8584 16.9751 24.3057 16.2932 24.3057Z" stroke="white" stroke-width="3" stroke-linecap="round" stroke-linejoin="round"/>
<path d="M32.4969 8.10156H25.7067C25.0249 8.10156 24.4722 8.6543 24.4722 9.33613V16.1263C24.4722 16.8081 25.0249 17.3608 25.7067 17.3608H32.4969C33.1787 17.3608 33.7314 16.8081 33.7314 16.1263V9.33613C33.7314 8.6543 33.1787 8.10156 32.4969 8.10156Z" stroke="white" stroke-width="3" stroke-linecap="round" stroke-linejoin="round"/>
<path d="M24.4722 24.3057V27.7779" stroke="white" stroke-width="3" stroke-linecap="round" stroke-linejoin="round"/>
<path d="M24.4722 33.5649H30.2592V24.3057" stroke="white" stroke-width="3" stroke-linecap="round" stroke-linejoin="round"/>
<path d="M30.2593 26.6206H33.7315" stroke="white" stroke-width="3" stroke-linecap="round" stroke-linejoin="round"/>
</svg>
