<svg width="41" height="41" viewBox="0 0 41 41" fill="none" xmlns="http://www.w3.org/2000/svg">
<g clip-path="url(#clip0_994_1335)">
<path d="M41 0H0V41H41V0Z" fill="white"/>
<path d="M20.5 41C31.8218 41 41 31.8218 41 20.5C41 9.17816 31.8218 0 20.5 0C9.17816 0 0 9.17816 0 20.5C0 31.8218 9.17816 41 20.5 41Z" fill="#7209B7" fill-opacity="0.2"/>
<path d="M20.3398 32.0312C26.7968 32.0312 32.0312 26.7968 32.0312 20.3398C32.0312 13.8829 26.7968 8.64844 20.3398 8.64844C13.8829 8.64844 8.64844 13.8829 8.64844 20.3398C8.64844 26.7968 13.8829 32.0312 20.3398 32.0312Z" stroke="#7209B7"/>
<path d="M26.9062 20.3398C26.9062 23.652 26.1203 26.6193 24.8829 28.7367C23.6364 30.8696 22.0082 32.0312 20.3398 32.0312C18.6715 32.0312 17.0433 30.8696 15.7968 28.7367C14.5594 26.6193 13.7734 23.652 13.7734 20.3398C13.7734 17.0277 14.5594 14.0604 15.7968 11.943C17.0433 9.81011 18.6715 8.64844 20.3398 8.64844C22.0082 8.64844 23.6364 9.81011 24.8829 11.943C26.1203 14.0604 26.9062 17.0277 26.9062 20.3398Z" stroke="#7209B7"/>
<path d="M20.3398 26.9062C17.0253 26.9062 14.056 26.1372 11.9376 24.9267C9.80111 23.7058 8.64844 22.1168 8.64844 20.5C8.64844 18.8832 9.80111 17.2942 11.9376 16.0733C14.056 14.8628 17.0253 14.0938 20.3398 14.0938C23.6544 14.0938 26.6237 14.8628 28.7421 16.0733C30.8786 17.2942 32.0312 18.8832 32.0312 20.5C32.0312 22.1168 30.8786 23.7058 28.7421 24.9267C26.6237 26.1372 23.6544 26.9062 20.3398 26.9062Z" stroke="#7209B7"/>
<path d="M20.5 32.0312V8.96875" stroke="#7209B7"/>
<path d="M8.9668 20.5661L32.0292 20.5" stroke="#7209B7"/>
</g>
<defs>
<clipPath id="clip0_994_1335">
<rect width="41" height="41" fill="white"/>
</clipPath>
</defs>
</svg>
