<svg width="41" height="41" viewBox="0 0 41 41" fill="none" xmlns="http://www.w3.org/2000/svg">
<g clip-path="url(#clip0_994_1383)">
<path d="M41 0H0V41H41V0Z" fill="white"/>
<path d="M20.5 41C31.8218 41 41 31.8218 41 20.5C41 9.17816 31.8218 0 20.5 0C9.17816 0 0 9.17816 0 20.5C0 31.8218 9.17816 41 20.5 41Z" fill="#4CC9F0" fill-opacity="0.2"/>
<path d="M26.2656 12.4922H14.7344C13.496 12.4922 12.4922 13.496 12.4922 14.7344V27.8672C12.4922 29.1055 13.496 30.1094 14.7344 30.1094H26.2656C27.504 30.1094 28.5078 29.1055 28.5078 27.8672V14.7344C28.5078 13.496 27.504 12.4922 26.2656 12.4922Z" fill="#4CC9F0"/>
<path d="M17.9375 22.1016L19.7582 24.0234L23.7031 20.1797" stroke="#DBF4FC" stroke-linecap="round" stroke-linejoin="round"/>
<path d="M23.0625 11.2109H18.2578C17.5502 11.2109 16.9766 11.7846 16.9766 12.4922V13.7734C16.9766 14.4811 17.5502 15.0547 18.2578 15.0547H23.0625C23.7701 15.0547 24.3438 14.4811 24.3438 13.7734V12.4922C24.3438 11.7846 23.7701 11.2109 23.0625 11.2109Z" fill="#4CC9F0" stroke="#DBF4FC"/>
</g>
<defs>
<clipPath id="clip0_994_1383">
<rect width="41" height="41" fill="white"/>
</clipPath>
</defs>
</svg>
