<svg width="48" height="34" viewBox="0 0 48 34" fill="none" xmlns="http://www.w3.org/2000/svg">
<rect width="48" height="34" rx="4" fill="#E82529"/>
<path fill-rule="evenodd" clip-rule="evenodd" d="M21.258 5.46549C21.4994 5.41629 21.7658 5.43199 21.9773 5.56704C22.2588 5.73663 22.4118 6.07406 22.3844 6.3958C22.3348 6.9768 21.8636 7.50092 21.2819 7.60177C21.0127 7.65097 20.7189 7.59165 20.506 7.41613C20.2956 7.24863 20.1781 6.9768 20.1957 6.7102C20.2421 6.13338 20.6697 5.57611 21.258 5.46549ZM30.1617 5.78129C30.3698 5.76354 30.5797 5.7662 30.7896 5.76887C30.9181 5.7705 31.0465 5.77213 31.1744 5.76908C31.2858 5.7698 31.3971 5.76939 31.5084 5.76898C31.6666 5.7684 31.8249 5.76781 31.9831 5.77048C32.0552 5.76315 32.1185 5.83398 32.1002 5.90447C31.8958 7.37818 31.6898 8.85178 31.4837 10.3253L31.4836 10.3266L31.4834 10.328L31.4831 10.3297L31.4829 10.3315L31.4826 10.3335L31.4823 10.3356L31.482 10.3377L31.4817 10.3399L31.4814 10.3423L31.4799 10.3527L31.4797 10.3541L31.4795 10.3556L31.4794 10.3562L31.4794 10.3567L31.4793 10.3573L31.4792 10.3578C31.3191 11.5032 31.1589 12.6486 30.9995 13.7939L30.999 13.7975C30.9907 13.8509 30.9807 13.9152 30.9235 13.9394C30.8722 13.9527 30.8194 13.9522 30.7669 13.9516C30.7491 13.9515 30.7314 13.9513 30.7138 13.9516C30.4495 13.9504 30.1853 13.9507 29.921 13.9509H29.921H29.921H29.921H29.921H29.9209H29.9209H29.9209H29.9209H29.9208H29.9208H29.9208C29.6567 13.9512 29.3926 13.9515 29.1286 13.9502C29.042 13.9631 28.9685 13.878 28.9931 13.7953C29.2126 12.2145 29.4335 10.6339 29.6545 9.05342L29.6546 9.05307L29.6547 9.05222L29.6548 9.05146L29.6549 9.05041C29.8016 8.00131 29.9483 6.95222 30.0945 5.90308C30.1005 5.85667 30.1124 5.80083 30.1617 5.78129ZM15.0349 6.08292C14.7745 6.08026 14.5141 6.0776 14.2552 6.09535C14.1707 6.12082 14.1151 6.20317 14.1099 6.28867C13.9611 7.39363 13.813 8.49871 13.6648 9.60383C13.5493 10.465 13.4339 11.3262 13.3181 12.1873C13.2843 12.4225 13.3107 12.6675 13.4022 12.8877C13.6844 13.5702 14.4318 13.9928 15.1613 13.9897L15.4956 13.9899C16.4994 13.9905 17.5033 13.9912 18.507 13.9893C18.5985 13.9946 18.6801 13.9185 18.6843 13.8285L18.7404 13.4544L18.7404 13.4544L18.7405 13.4544L18.7405 13.4544L18.7405 13.4543L18.7405 13.4543L18.7405 13.4543L18.7405 13.4543L18.7405 13.4543L18.7405 13.4542L18.7405 13.4542C18.7986 13.0676 18.8568 12.6808 18.9113 12.2938C18.9314 12.2013 18.8399 12.1228 18.7501 12.1364C18.3692 12.136 17.9882 12.1362 17.6072 12.1364C17.004 12.1368 16.4007 12.1371 15.7975 12.135C15.5878 12.1444 15.4065 11.9385 15.4474 11.7337C15.5769 10.8324 15.7086 9.9313 15.8404 9.03024C15.9722 8.12915 16.104 7.22806 16.2335 6.3267C16.2563 6.2119 16.1631 6.09221 16.0456 6.08697C15.936 6.08072 15.8261 6.0818 15.7162 6.08287C15.6483 6.08354 15.5803 6.0842 15.5125 6.08314C15.3535 6.08618 15.1942 6.08455 15.0349 6.08292H15.0349H15.0349H15.0349H15.0349H15.0349H15.0349H15.0349H15.0349H15.0349H15.0349ZM24.2698 7.99469C24.8902 7.92595 25.5154 7.92106 26.1393 7.91687C26.7192 7.92036 27.3291 8.05122 27.7816 8.43088C28.1954 8.77145 28.4206 9.29488 28.4663 9.81866C28.4989 10.1101 28.4591 10.4001 28.4195 10.6891L28.4195 10.6891C28.4081 10.7717 28.3968 10.8542 28.3872 10.9367C28.2821 11.7212 28.1639 12.5038 28.0457 13.2863L28.0457 13.2863L28.0457 13.2864L28.0456 13.2865L28.0456 13.2866L28.0456 13.2866L28.0456 13.2867L28.0456 13.2868L28.0456 13.2869L28.0456 13.2869L27.9741 13.7611C27.9705 13.8682 27.8688 13.9488 27.7629 13.9345C27.5532 13.9338 27.3434 13.9342 27.1337 13.9345C26.8135 13.9351 26.4933 13.9356 26.1731 13.9324C26.0521 13.9331 25.9655 13.8044 25.9968 13.692L26.0477 13.3376C26.136 12.7214 26.2244 12.1049 26.3195 11.4894C26.3337 11.3916 26.3493 11.2939 26.365 11.1961L26.365 11.1961L26.365 11.196L26.365 11.196L26.365 11.196L26.365 11.196L26.365 11.1959L26.365 11.1959L26.365 11.1959L26.365 11.1958L26.365 11.1958C26.4143 10.8884 26.4636 10.5806 26.4673 10.2688L26.4669 10.2517C26.4633 10.073 26.4592 9.87188 26.3265 9.73561C26.1766 9.58381 25.9585 9.52484 25.7519 9.49937C25.4845 9.46761 25.2146 9.49413 24.9503 9.53705L24.7329 11.0565C24.597 12.0064 24.461 12.9563 24.3254 13.9063C24.0126 13.6411 23.6019 13.4701 23.1853 13.5154C22.8784 13.5256 22.6019 13.6704 22.3471 13.8271L22.4622 13.0416C22.618 11.9781 22.7737 10.9148 22.9358 9.85215C22.9514 9.75927 22.9658 9.66612 22.9803 9.57294L22.9803 9.57291V9.5729C23.021 9.31045 23.0617 9.04781 23.1279 8.7903C23.1814 8.5907 23.2659 8.38342 23.4393 8.25675C23.6756 8.07845 23.9802 8.03551 24.2663 7.99517L24.2698 7.99469ZM20.285 8.06441C20.233 8.06418 20.1809 8.06394 20.1309 8.07844C20.0472 8.1074 19.9979 8.19115 19.9919 8.27559C19.8896 9.00514 19.7865 9.73463 19.6835 10.4641C19.5283 11.5627 19.3731 12.6612 19.2203 13.7601C19.196 13.8557 19.2861 13.9471 19.3825 13.9338C19.9233 13.9349 20.4642 13.9352 21.005 13.9338C21.138 13.9415 21.2453 13.8229 21.2482 13.6955C21.3578 12.9191 21.4682 12.1428 21.5786 11.3664C21.7231 10.3496 21.8676 9.33279 22.0107 8.31572C22.0378 8.19568 21.94 8.06622 21.8143 8.06727C21.5429 8.06381 21.2714 8.06437 20.9999 8.06494H20.9998C20.7784 8.0654 20.5569 8.06585 20.3354 8.06413C20.3187 8.06456 20.3018 8.06448 20.285 8.06441ZM33.5968 8.24175C33.6647 8.15765 33.7703 8.10775 33.8794 8.11229C34.0647 8.1124 34.2502 8.11209 34.4356 8.11178H34.4356H34.4356H34.4357H34.4357H34.4357H34.4358H34.4358C34.8377 8.11111 35.2397 8.11045 35.6416 8.11403C35.7721 8.11019 35.8288 8.28955 35.731 8.36911C35.2048 8.94795 34.6776 9.52574 34.1503 10.1036L34.1501 10.1039L34.1498 10.1041L34.1496 10.1044L34.1494 10.1046L34.1492 10.1048L34.149 10.1051L34.1486 10.1055L33.6809 10.6181L34.2093 11.7408C34.6594 12.6971 35.1096 13.6534 35.5585 14.6104C35.6455 14.7511 35.5272 14.9517 35.3604 14.9406C34.8316 14.9427 34.3023 14.9423 33.7734 14.9409C33.671 14.9486 33.5859 14.8757 33.5514 14.7849C33.2014 14.0301 32.8507 13.2754 32.5001 12.5207L32.4984 12.517L32.4967 12.5134L32.4946 12.509L32.4942 12.5082L32.4939 12.5074L32.4935 12.5066L32.4931 12.5058L32.4928 12.505L32.4924 12.5042L32.492 12.5034C32.1915 11.8565 31.8909 11.2096 31.5907 10.5626C31.953 10.1441 32.3148 9.72524 32.6766 9.30643L32.6795 9.30307L32.681 9.3013C32.9862 8.94803 33.2914 8.59478 33.5968 8.24175ZM23.7719 14.3285C23.5699 14.2081 23.3222 14.1931 23.0948 14.2357C22.4896 14.3386 22.0459 14.914 22.0096 15.5062C22.0012 15.7407 22.0941 15.9776 22.2651 16.1403C22.4671 16.3374 22.7648 16.4226 23.0435 16.3835C23.6529 16.3077 24.1561 15.7606 24.2001 15.1569C24.2244 14.8313 24.0615 14.4918 23.7719 14.3285ZM17.3354 14.86C17.1894 14.859 17.042 14.8579 16.901 14.9001C16.6293 14.9772 16.4041 15.1834 16.2947 15.441C15.9072 16.2926 15.5195 17.1442 15.1319 17.9958L15.1318 17.9959L15.1317 17.9961L15.1317 17.9962L15.1316 17.9963L15.1315 17.9965L15.1315 17.9966C14.4434 19.5081 13.7553 21.0195 13.0683 22.5313C13.0014 22.6384 13.0999 22.7836 13.2245 22.7651C13.7773 22.764 14.3301 22.7602 14.8829 22.7557C14.9984 22.7595 15.1117 22.6915 15.1564 22.585C15.2511 22.3697 15.3437 22.1533 15.4363 21.937L15.4363 21.937L15.4363 21.9369L15.4363 21.9369L15.4364 21.9369L15.4364 21.9369L15.4365 21.9367L15.4365 21.9365L15.4366 21.9365L15.4366 21.9364L15.4366 21.9364L15.4366 21.9364L15.4366 21.9364C15.5292 21.72 15.6218 21.5037 15.7166 21.2883C15.7349 21.2213 15.8084 21.2147 15.8672 21.2178C16.1487 21.2186 16.4303 21.2184 16.712 21.2182C17.0875 21.2179 17.463 21.2176 17.8384 21.2196C17.8951 21.2129 17.9489 21.2555 17.9496 21.3131C17.9732 21.5272 17.9939 21.7416 18.0145 21.9559L18.0145 21.956L18.0145 21.9561L18.0145 21.9562L18.0145 21.9562L18.0145 21.9563L18.0145 21.9564C18.0332 22.1503 18.0519 22.3442 18.0728 22.5379C18.0823 22.6824 18.2177 22.8 18.3631 22.7927C18.5195 22.7927 18.676 22.7929 18.8325 22.7931H18.8326H18.8326H18.8326H18.8327H18.8327L18.8367 22.7931C19.2314 22.7937 19.6262 22.7942 20.0208 22.7913C20.1577 22.7927 20.2629 22.6482 20.227 22.5187C19.9705 20.995 19.7127 19.4713 19.4549 17.9477C19.3116 17.1009 19.1684 16.2542 19.0253 15.4075C18.9803 15.1077 18.7033 14.8652 18.3968 14.8617C18.2001 14.8592 18.0031 14.8597 17.8061 14.8602H17.8061H17.8061H17.806H17.806H17.806H17.806C17.6746 14.8605 17.5433 14.8609 17.4119 14.8603C17.3867 14.8604 17.3614 14.8602 17.3361 14.86H17.336H17.3359H17.3358L17.3354 14.86ZM16.8899 18.4625L16.89 18.4623C17.0677 18.0137 17.2453 17.565 17.4309 17.1198C17.4686 17.0856 17.52 17.1292 17.5094 17.1742L17.5333 17.4309C17.5958 18.1033 17.6583 18.776 17.7167 19.4487C17.7318 19.5205 17.6639 19.5806 17.5942 19.5729C17.4774 19.5725 17.3604 19.5731 17.2434 19.5736H17.2434H17.2433H17.2433H17.2432H17.2432L17.2427 19.5736H17.2427H17.2427H17.2426H17.2426H17.2426H17.2425C16.9983 19.5748 16.754 19.5759 16.5104 19.569C16.4568 19.546 16.4783 19.4932 16.496 19.4499C16.5 19.44 16.5038 19.4306 16.5065 19.4221C16.6362 19.1031 16.7631 18.7828 16.8899 18.4625ZM31.9993 15.8183C31.915 15.8173 31.8304 15.8162 31.7487 15.8367C31.6449 15.8614 31.565 15.9539 31.5629 16.061C31.4638 17.0685 31.3662 18.0763 31.2687 19.0841L31.2683 19.0878C31.2195 19.5923 31.1707 20.0968 31.1217 20.6012C31.0953 20.7164 31.1889 20.841 31.311 20.8354C31.5934 20.8377 31.8759 20.8372 32.1586 20.8366L32.4412 20.8361C32.5422 20.8452 32.6369 20.768 32.6488 20.6682C32.9473 19.2104 33.2445 17.7519 33.5416 16.2937L33.5824 16.0935C33.6102 15.9923 33.5891 15.8377 33.4599 15.8241C33.1849 15.8163 32.9096 15.8175 32.6341 15.8187H32.6341H32.6341H32.634H32.634H32.6338C32.4515 15.8195 32.2692 15.8203 32.0869 15.8185C32.0578 15.8191 32.0286 15.8187 31.9993 15.8183ZM29.6972 16.9903C28.9555 16.7896 28.1831 16.6958 27.4146 16.7363C26.7326 16.7614 26.0253 16.9072 25.469 17.3204C24.9222 17.7147 24.5752 18.3268 24.3947 18.9633C24.2254 19.5663 24.1575 20.1979 24.1815 20.8232C24.2078 21.3703 24.3553 21.9548 24.774 22.3401C25.2153 22.7487 25.8374 22.8673 26.4191 22.9179C27.3734 23.0069 28.3478 22.8708 29.238 22.5191C29.3577 22.4765 29.4762 22.4092 29.5385 22.2943C29.5941 22.1932 29.6055 22.0788 29.617 21.9651C29.622 21.9152 29.627 21.8655 29.6356 21.817C29.7295 21.0833 29.8231 20.3496 29.9166 19.6158L29.9186 19.6006L29.9187 19.5997L29.9188 19.5987L29.9189 19.5977L29.9191 19.5967C30.0131 18.8592 30.1072 18.1217 30.2015 17.3843C30.2138 17.2956 30.2163 17.1854 30.1325 17.1295C30.0435 17.0734 29.9409 17.0498 29.8386 17.0264L29.8386 17.0264C29.7909 17.0154 29.7433 17.0045 29.6972 16.9903ZM26.3498 19.5816C26.4124 19.2871 26.5081 18.9877 26.7111 18.7567C26.9138 18.5166 27.2333 18.3704 27.5507 18.4004C27.7327 18.4165 27.9125 18.4521 28.0909 18.4922L27.9232 19.7876L27.7555 21.0821C27.4617 21.1655 27.1492 21.2269 26.8445 21.1721C26.5862 21.1302 26.3878 20.9153 26.3167 20.6728C26.2101 20.3161 26.2727 19.9375 26.3498 19.5816ZM22.8727 16.84H22.8726H22.8726C22.5822 16.8383 22.2918 16.8367 22.0022 16.8479C21.8886 16.8723 21.8087 16.9781 21.7999 17.0904C21.7407 17.5136 21.6824 17.9368 21.624 18.36C21.476 19.4338 21.328 20.5076 21.1662 21.5793C21.1572 21.6341 21.1487 21.6892 21.1403 21.7444C21.0909 22.0662 21.0408 22.3926 20.8843 22.6824C20.7453 22.949 20.5176 23.1632 20.2541 23.3081C20.0747 23.4142 19.8814 23.4919 19.6884 23.5694C19.6354 23.5908 19.5823 23.6121 19.5296 23.634C19.4423 23.6608 19.3881 23.7547 19.43 23.8409C19.5567 24.2345 19.6861 24.6271 19.816 25.0197L19.824 25.0407C19.858 25.1304 19.903 25.2494 20.0183 25.2378C20.3635 25.1791 20.6978 25.0657 21.0222 24.9366C21.5413 24.7185 22.0476 24.4135 22.3788 23.9498C22.6757 23.5199 22.8517 23.0209 22.9794 22.5191C23.125 21.9458 23.1993 21.3598 23.2736 20.7743L23.2736 20.7741C23.3004 20.5627 23.3272 20.3513 23.3573 20.1406C23.4635 19.3942 23.5618 18.6467 23.6602 17.8991L23.6603 17.8985L23.6604 17.8979C23.6947 17.6369 23.7291 17.3759 23.7638 17.1149C23.7757 17.0398 23.78 16.9523 23.7184 16.8961C23.6665 16.8383 23.5881 16.8389 23.5148 16.8395C23.4987 16.8396 23.4828 16.8397 23.4675 16.8392C23.2693 16.8422 23.071 16.8411 22.8727 16.84ZM31.5397 21.4576C31.8054 21.3961 32.0988 21.4014 32.342 21.535C32.6492 21.6949 32.8487 22.0361 32.8293 22.3805C32.8029 22.8767 32.4402 23.3224 31.9753 23.4913C31.6438 23.6172 31.2487 23.6008 30.9496 23.4023C30.7103 23.2491 30.546 22.979 30.5446 22.6936C30.552 22.1255 30.9735 21.5797 31.5397 21.4576ZM34.1954 25.7444C31.3071 25.6889 28.4164 25.81 25.5397 26.0665C22.3946 26.3572 19.2583 26.7505 16.1473 27.2955C14.6419 27.5642 13.139 27.8559 11.6572 28.2342C11.905 28.3686 12.1523 28.5038 12.3996 28.6391C12.6648 28.7841 12.93 28.9292 13.1957 29.0731C13.4979 29.2374 13.8614 29.2814 14.1957 29.2004C14.4175 29.1469 14.639 29.0926 14.8606 29.0383C15.2885 28.9336 15.7163 28.8288 16.1451 28.729C18.931 28.0712 21.7545 27.5844 24.5872 27.1748C27.1461 26.8056 29.7169 26.5194 32.2945 26.3171C34.3787 26.1551 36.4675 26.0435 38.558 26.0163C38.3297 25.9793 38.0997 25.9585 37.8696 25.9377C37.7957 25.931 37.7218 25.9244 37.648 25.9172C36.4998 25.8184 35.3478 25.7678 34.1954 25.7444Z" fill="#FEFEFE"/>
</svg>
