<svg width="41" height="41" viewBox="0 0 41 41" fill="none" xmlns="http://www.w3.org/2000/svg">
<g clip-path="url(#clip0_994_1253)">
<path d="M41 0H0V41H41V0Z" fill="white"/>
<path d="M20.5 41C31.8218 41 41 31.8218 41 20.5C41 9.17816 31.8218 0 20.5 0C9.17816 0 0 9.17816 0 20.5C0 31.8218 9.17816 41 20.5 41Z" fill="#02BC79" fill-opacity="0.2"/>
<path d="M21.1138 9.62023C21.5039 9.0863 22.3488 9.42158 22.2667 10.0777L20.8898 21.0818C20.8378 21.4975 20.4073 21.7523 20.0179 21.5977L14.8524 19.5481C14.4629 19.3936 14.3242 18.913 14.5713 18.5747L21.1138 9.62023Z" fill="#02BC79"/>
<path d="M20.0531 31.5705C19.6753 32.1131 18.8229 31.7974 18.89 31.1396L20.0146 20.1068C20.0571 19.69 20.4816 19.4255 20.8745 19.5711L26.0856 21.5019C26.4784 21.6475 26.6281 22.1248 26.3888 22.4686L20.0531 31.5705Z" fill="#02BC79"/>
<path d="M14.4141 18.8984C14.4141 18.7215 14.5575 18.5781 14.7344 18.5781H25.9453C26.2991 18.5781 26.5859 18.8649 26.5859 19.2188V22.1016C26.5859 22.2785 26.4425 22.4219 26.2656 22.4219H15.0547C14.7009 22.4219 14.4141 22.1351 14.4141 21.7812V18.8984Z" fill="#02BC79"/>
</g>
<defs>
<clipPath id="clip0_994_1253">
<rect width="41" height="41" fill="white"/>
</clipPath>
</defs>
</svg>
