<svg width="41" height="41" viewBox="0 0 41 41" fill="none" xmlns="http://www.w3.org/2000/svg">
<g clip-path="url(#clip0_994_1327)">
<path d="M41 0H0V41H41V0Z" fill="white"/>
<path d="M20.5 41C31.8218 41 41 31.8218 41 20.5C41 9.17816 31.8218 0 20.5 0C9.17816 0 0 9.17816 0 20.5C0 31.8218 9.17816 41 20.5 41Z" fill="#02BC79" fill-opacity="0.2"/>
<path d="M27.5469 10.25H13.4531C12.0379 10.25 10.8906 11.3973 10.8906 12.8125V28.1875C10.8906 29.6027 12.0379 30.75 13.4531 30.75H27.5469C28.9621 30.75 30.1094 29.6027 30.1094 28.1875V12.8125C30.1094 11.3973 28.9621 10.25 27.5469 10.25Z" fill="#02BC79"/>
<path d="M20.2043 14.4767C20.5944 13.9427 21.4393 14.278 21.3572 14.9341L20.6657 20.4608C20.6137 20.8765 20.1832 21.1312 19.7938 20.9767L17.1995 19.9473C16.8101 19.7928 16.6714 19.3122 16.9185 18.9739L20.2043 14.4767Z" fill="#CCF2E4"/>
<path d="M20.6532 26.4621C20.2754 27.0048 19.423 26.689 19.4901 26.0311L20.0549 20.4901C20.0973 20.0734 20.5219 19.8088 20.9148 19.9544L23.532 20.9241C23.9248 21.0697 24.0745 21.5469 23.8352 21.8908L20.6532 26.4621Z" fill="#CCF2E4"/>
<path d="M16.6562 19.6416C16.6562 19.4647 16.7997 19.3213 16.9766 19.3213H23.3828C23.7366 19.3213 24.0234 19.6081 24.0234 19.9619V21.2432C24.0234 21.4201 23.88 21.5635 23.7031 21.5635H17.2969C16.9431 21.5635 16.6562 21.2766 16.6562 20.9229V19.6416Z" fill="#CCF2E4"/>
</g>
<defs>
<clipPath id="clip0_994_1327">
<rect width="41" height="41" fill="white"/>
</clipPath>
</defs>
</svg>
