<svg width="18" height="22" viewBox="0 0 18 22" fill="none" xmlns="http://www.w3.org/2000/svg">
<path d="M1 11.0829C1 9.66019 2.06688 8.46366 3.48027 8.3012L8.68027 7.7035C8.89272 7.67908 9.10728 7.67908 9.31973 7.7035L14.5197 8.3012C15.9331 8.46366 17 9.66019 17 11.0829V17.2622C17 18.6251 16.0188 19.79 14.6757 20.0215L9.47574 20.9181C9.1609 20.9724 8.8391 20.9724 8.52426 20.9181L3.32426 20.0215C1.98124 19.79 1 18.6251 1 17.2622V11.0829Z" stroke="#0A6DED" stroke-width="1.5"/>
<circle cx="8.99979" cy="13.2222" r="1.11111" fill="#626262" stroke="#626262" stroke-width="1.5"/>
<path d="M5 8V3.8C5 2.2536 6.2536 1 7.8 1H10.2C11.7464 1 13 2.2536 13 3.8V8" stroke="#0A6DED" stroke-width="1.5" stroke-linecap="round"/>
<path d="M9 14.3335V16.5557" stroke="#626262" stroke-width="1.5" stroke-linecap="round"/>
</svg>
