<svg width="24" height="24" viewBox="0 0 24 24" fill="none" xmlns="http://www.w3.org/2000/svg">
<path d="M11.8573 5.43906C11.9022 5.30086 12.0978 5.30086 12.1427 5.43906L12.8644 7.66028C12.8845 7.72209 12.9421 7.76393 13.007 7.76393H15.3426C15.4879 7.76393 15.5483 7.94987 15.4307 8.03528L13.5413 9.40808C13.4887 9.44628 13.4667 9.51398 13.4868 9.57578L14.2085 11.797C14.2534 11.9352 14.0952 12.0501 13.9777 11.9647L12.0882 10.5919C12.0356 10.5537 11.9644 10.5537 11.9118 10.5919L10.0223 11.9647C9.90479 12.0501 9.74661 11.9352 9.79152 11.797L10.5132 9.57578C10.5333 9.51398 10.5113 9.44627 10.4587 9.40808L8.56926 8.03528C8.4517 7.94987 8.51212 7.76393 8.65743 7.76393H10.993C11.0579 7.76393 11.1155 7.72209 11.1356 7.66028L11.8573 5.43906Z" stroke="#292D32" stroke-width="1.5"/>
<circle cx="12" cy="9" r="7" stroke="#292D32" stroke-width="1.5"/>
<path d="M7.07648 13.7806L5.64095 16.2539L4.19901 18.8925C4.12403 19.0298 4.08653 19.0984 4.10544 19.1471C4.11131 19.1623 4.12029 19.1759 4.13167 19.1868C4.16834 19.2222 4.24129 19.2072 4.38718 19.1773L6.99682 18.6422C7.05766 18.6297 7.08808 18.6235 7.11442 18.6348C7.12297 18.6385 7.13105 18.6435 7.13842 18.6495C7.16109 18.6683 7.17268 18.7003 7.19585 18.7644L8.13294 21.3548C8.18389 21.4956 8.20936 21.566 8.25362 21.5825C8.26742 21.5877 8.28198 21.5894 8.29621 21.5876C8.34184 21.5819 8.37561 21.5185 8.44314 21.3919L9.71654 19.0032L10.537 17.5018L10.9472 16.7511L11.4413 15.7133" stroke="#292D32" stroke-width="1.5" stroke-linejoin="round"/>
<path d="M11.9957 15.9917L13.578 18.8884L14.8524 21.318C14.9215 21.4496 14.956 21.5154 15.0058 21.5273C15.0214 21.531 15.0373 21.5314 15.0526 21.5284C15.1016 21.5189 15.1313 21.4546 15.1908 21.3261L16.2724 18.9867C16.2965 18.9347 16.3085 18.9087 16.3312 18.8942C16.3385 18.8895 16.3466 18.8858 16.3552 18.8831C16.3815 18.875 16.4123 18.8813 16.4737 18.8939L19.1014 19.432C19.2415 19.4607 19.3116 19.4751 19.3482 19.4471C19.3597 19.4383 19.3687 19.4271 19.3748 19.4144C19.3941 19.3738 19.3615 19.3134 19.2964 19.1925L18.1255 17.0204L17.3974 15.6324L17.0333 14.9383L16.488 14.0366" stroke="#292D32" stroke-width="1.5" stroke-linejoin="round"/>
</svg>
