<svg width="40" height="40" viewBox="0 0 40 40" fill="none" xmlns="http://www.w3.org/2000/svg">
<g clip-path="url(#clip0_437_172)">
<path d="M40 0H0V40H40V0Z" fill="white"/>
<path d="M20 40C31.0457 40 40 31.0457 40 20C40 8.9543 31.0457 0 20 0C8.9543 0 0 8.9543 0 20C0 31.0457 8.9543 40 20 40Z" fill="#419AFC"/>
<path d="M26.5625 9.6875H13.4375C11.539 9.6875 10 11.2265 10 13.125V26.875C10 28.7735 11.539 30.3125 13.4375 30.3125H26.5625C28.461 30.3125 30 28.7735 30 26.875V13.125C30 11.2265 28.461 9.6875 26.5625 9.6875Z" fill="white"/>
<path d="M19.6875 13.4375H14.6875C14.3423 13.4375 14.0625 13.7173 14.0625 14.0625C14.0625 14.4077 14.3423 14.6875 14.6875 14.6875H19.6875C20.0327 14.6875 20.3125 14.4077 20.3125 14.0625C20.3125 13.7173 20.0327 13.4375 19.6875 13.4375Z" fill="#419AFC"/>
<path d="M25.625 17.1875H14.6875C14.3423 17.1875 14.0625 17.4673 14.0625 17.8125C14.0625 18.1577 14.3423 18.4375 14.6875 18.4375H25.625C25.9702 18.4375 26.25 18.1577 26.25 17.8125C26.25 17.4673 25.9702 17.1875 25.625 17.1875Z" fill="#419AFC"/>
<path d="M25.625 20.9375H14.6875C14.3423 20.9375 14.0625 21.2173 14.0625 21.5625C14.0625 21.9077 14.3423 22.1875 14.6875 22.1875H25.625C25.9702 22.1875 26.25 21.9077 26.25 21.5625C26.25 21.2173 25.9702 20.9375 25.625 20.9375Z" fill="#419AFC"/>
<path d="M25.625 24.6875H14.6875C14.3423 24.6875 14.0625 24.9673 14.0625 25.3125C14.0625 25.6577 14.3423 25.9375 14.6875 25.9375H25.625C25.9702 25.9375 26.25 25.6577 26.25 25.3125C26.25 24.9673 25.9702 24.6875 25.625 24.6875Z" fill="#419AFC"/>
</g>
<defs>
<clipPath id="clip0_437_172">
<rect width="40" height="40" fill="white"/>
</clipPath>
</defs>
</svg>
