<svg width="51" height="37" viewBox="0 0 51 37" fill="none" xmlns="http://www.w3.org/2000/svg">
<rect width="51" height="37" rx="4" fill="#4C3494"/>
<path fill-rule="evenodd" clip-rule="evenodd" d="M41.6634 14.0306C40.4653 12.9559 38.8178 12.4536 37.2331 12.6072C36.8371 12.6439 36.4443 12.7154 36.0631 12.83C34.6666 13.238 33.4418 14.2099 32.7105 15.4843C31.7273 17.1649 31.6096 19.322 32.3685 21.114C32.9321 22.464 34.0094 23.5844 35.3301 24.1786C36.83 24.8534 38.6051 24.8738 40.1184 24.2302C40.8898 23.9005 41.5894 23.3969 42.1503 22.7661C43.1745 21.6298 43.7193 20.0792 43.6846 18.5439C43.6756 16.8411 42.9399 15.1437 41.6634 14.0306ZM34.8021 16.1622C35.3653 15.3095 36.2941 14.7149 37.2995 14.5881C38.0968 14.478 38.9328 14.6392 39.6235 15.0636C40.2869 15.4635 40.8055 16.0907 41.1154 16.8058C41.7276 18.2323 41.5903 20.0004 40.6659 21.2585C40.2276 21.8545 39.6123 22.3191 38.9136 22.5483C38.0361 22.8386 37.0481 22.7761 36.2169 22.3671C35.5615 22.0469 35.0135 21.5162 34.6501 20.8776C33.8377 19.4438 33.8845 17.5354 34.8021 16.1622ZM15.9141 13.2354C14.8329 12.6662 13.5746 12.4759 12.3716 12.6381C11.2119 12.7898 10.0972 13.3006 9.23214 14.1022C8.34484 14.9083 7.72194 16.002 7.45263 17.1782C7.12758 18.5744 7.27739 20.0865 7.8994 21.3777C8.47057 22.5837 9.46311 23.5787 10.6594 24.1407C11.8441 24.7004 13.2099 24.8345 14.4851 24.5623C15.7104 24.3033 16.842 23.6203 17.6575 22.6566C18.4351 21.7463 18.9194 20.5901 19.0554 19.395C19.1869 18.2805 19.0242 17.1297 18.5769 16.1021C18.0468 14.8753 17.0922 13.8405 15.9141 13.2354ZM11.1044 15.2316C11.5815 14.8815 12.1473 14.6614 12.7301 14.5853C13.4279 14.4939 14.1542 14.6062 14.7852 14.9264C15.528 15.2945 16.1241 15.939 16.475 16.6962C16.8737 17.5404 16.982 18.5136 16.8318 19.4338C16.6931 20.2735 16.3154 21.0837 15.7117 21.6815C15.1927 22.2136 14.5025 22.5682 13.7743 22.6828C12.8826 22.8254 11.936 22.6293 11.1887 22.1094C10.4168 21.5864 9.8751 20.7517 9.64101 19.8455C9.41005 18.9506 9.43903 17.9833 9.74089 17.1092C9.99772 16.3647 10.4695 15.6908 11.1044 15.2316ZM19.5936 12.9083L19.5931 12.9083C19.5928 13.3407 19.5929 13.7732 19.593 14.2058C19.5931 14.4221 19.5931 14.6385 19.5931 14.8548C19.882 14.8555 20.1707 14.8554 20.4594 14.8553C20.5557 14.8553 20.652 14.8552 20.7484 14.8552C21.4631 16.5252 22.177 18.1957 22.8908 19.866C23.4087 21.078 23.9265 22.2899 24.4447 23.5016C24.686 24.064 25.1929 24.5029 25.7828 24.6419C25.9975 24.6989 26.2188 24.6966 26.4394 24.6943C26.508 24.6936 26.5765 24.6929 26.6447 24.694C27.3217 23.0743 28.001 21.4556 28.6802 19.8369C29.4897 17.9076 30.2992 15.9784 31.1049 14.0478C31.1254 13.8129 31.1223 13.5756 31.1192 13.3385C31.1173 13.1948 31.1153 13.0511 31.1187 12.9079H27.3742V12.9083C27.3737 13.5576 27.3733 14.2064 27.3742 14.8552C27.5372 14.8554 27.7002 14.8554 27.8632 14.8553C28.0806 14.8553 28.2979 14.8552 28.5152 14.8557C28.2171 15.5975 27.9197 16.3397 27.6223 17.0819C27.0456 18.5208 26.469 19.9596 25.8872 21.3961C25.435 20.3086 24.983 19.2211 24.5309 18.1336C24.0767 17.041 23.6225 15.9483 23.1682 14.8557C23.3599 14.855 23.5517 14.8551 23.7436 14.8552C23.9355 14.8554 24.1275 14.8555 24.3195 14.8548V12.9083C22.7443 12.9074 21.1692 12.9079 19.5936 12.9083Z" fill="white"/>
</svg>
