<svg width="41" height="41" viewBox="0 0 41 41" fill="none" xmlns="http://www.w3.org/2000/svg">
<g clip-path="url(#clip0_994_1246)">
<path d="M41 0H0V41H41V0Z" fill="white"/>
<path d="M20.5 41C31.8218 41 41 31.8218 41 20.5C41 9.17816 31.8218 0 20.5 0C9.17816 0 0 9.17816 0 20.5C0 31.8218 9.17816 41 20.5 41Z" fill="#4CC9F0" fill-opacity="0.2"/>
<path d="M16.6562 22.1016C16.6562 21.217 15.9392 20.5 15.0547 20.5C14.1702 20.5 13.4531 21.217 13.4531 22.1016V27.5469C13.4531 28.4314 14.1702 29.1484 15.0547 29.1484C15.9392 29.1484 16.6562 28.4314 16.6562 27.5469V22.1016Z" fill="#4CC9F0"/>
<path d="M22.1016 17.6172C22.1016 16.7327 21.3845 16.0156 20.5 16.0156C19.6155 16.0156 18.8984 16.7327 18.8984 17.6172V27.5469C18.8984 28.4314 19.6155 29.1484 20.5 29.1484C21.3845 29.1484 22.1016 28.4314 22.1016 27.5469V17.6172Z" fill="#4CC9F0"/>
<path d="M27.5469 13.1328C27.5469 12.2483 26.8298 11.5312 25.9453 11.5312C25.0608 11.5312 24.3438 12.2483 24.3438 13.1328V27.5469C24.3438 28.4314 25.0608 29.1484 25.9453 29.1484C26.8298 29.1484 27.5469 28.4314 27.5469 27.5469V13.1328Z" fill="#4CC9F0"/>
</g>
<defs>
<clipPath id="clip0_994_1246">
<rect width="41" height="41" fill="white"/>
</clipPath>
</defs>
</svg>
