<svg width="41" height="41" viewBox="0 0 41 41" fill="none" xmlns="http://www.w3.org/2000/svg">
<g clip-path="url(#clip0_994_1260)">
<path d="M41 0H0V41H41V0Z" fill="white"/>
<path d="M20.5 41C31.8218 41 41 31.8218 41 20.5C41 9.17816 31.8218 0 20.5 0C9.17816 0 0 9.17816 0 20.5C0 31.8218 9.17816 41 20.5 41Z" fill="#6285C7" fill-opacity="0.2"/>
<path d="M30.8141 10.5703H20.1156C19.6203 10.5703 19.2188 10.9719 19.2188 11.4672V19.0426C19.2188 19.5379 19.6203 19.9395 20.1156 19.9395H30.8141C31.3094 19.9395 31.7109 19.5379 31.7109 19.0426V11.4672C31.7109 10.9719 31.3094 10.5703 30.8141 10.5703Z" stroke="#4361EE" stroke-width="1.5"/>
<path d="M22.3418 13.6934L25.2727 15.8915C25.3866 15.9769 25.5431 15.9769 25.657 15.8915L28.5879 13.6934" stroke="#4361EE" stroke-width="1.5" stroke-linecap="round"/>
<path d="M12.4956 17.8528L13.1736 18.4006C14.2811 19.2955 14.421 20.9289 13.4817 21.9994L13.3876 22.1066C12.7145 22.8737 12.5349 24.0068 13.2073 24.7736C13.8504 25.5071 14.7135 26.1524 15.9673 26.8554C16.956 27.4097 18.1921 27.1467 18.9394 26.2951L19.0049 26.2204C19.8957 25.2052 21.4319 25.0735 22.4824 25.9223L23.1116 26.4307C24.014 27.1599 24.3282 28.4326 23.6795 29.3942C23.0672 30.3017 22.3843 31.0117 21.5782 31.592C21.064 31.9622 20.4016 32.0444 19.7895 31.8801C13.805 30.2731 10.1846 27.3533 7.58735 21.9453C7.36121 21.4744 7.28715 20.933 7.47053 20.4437C7.85788 19.4102 8.58227 18.5398 9.70199 17.707C10.5373 17.0858 11.6865 17.199 12.4956 17.8528Z" stroke="#4361EE" stroke-width="1.5"/>
<path d="M19.1089 26.543L23.2542 29.8925" stroke="#4361EE" stroke-width="1.5"/>
<path d="M9.43652 18.7275L13.5819 22.077" stroke="#4361EE" stroke-width="1.5"/>
</g>
<defs>
<clipPath id="clip0_994_1260">
<rect width="41" height="41" fill="white"/>
</clipPath>
</defs>
</svg>
