<svg width="41" height="41" viewBox="0 0 41 41" fill="none" xmlns="http://www.w3.org/2000/svg">
<g clip-path="url(#clip0_994_1371)">
<path d="M41 0H0V41H41V0Z" fill="white"/>
<path d="M20.5 41C31.8218 41 41 31.8218 41 20.5C41 9.17816 31.8218 0 20.5 0C9.17816 0 0 9.17816 0 20.5C0 31.8218 9.17816 41 20.5 41Z" fill="#7209B7" fill-opacity="0.2"/>
<path d="M27.2266 9.92969H13.7734C11.8275 9.92969 10.25 11.5072 10.25 13.4531V27.5469C10.25 29.4928 11.8275 31.0703 13.7734 31.0703H27.2266C29.1725 31.0703 30.75 29.4928 30.75 27.5469V13.4531C30.75 11.5072 29.1725 9.92969 27.2266 9.92969Z" fill="#7209B7"/>
<path d="M17.6025 22.422H16.8752V19.5974H15.9438V18.9921H18.5339V19.5974H17.6025V22.422ZM21.1614 22.422L20.9128 21.6056H19.6623L19.4136 22.422H18.6301L19.8406 18.978H20.7298L21.945 22.422H21.1614ZM20.7391 20.9956L20.4905 20.198C20.4748 20.1448 20.4537 20.0768 20.4271 19.9939C20.4021 19.9094 20.3763 19.8242 20.3497 19.7382C20.3247 19.6506 20.3043 19.5747 20.2887 19.5106C20.2731 19.5747 20.2512 19.6545 20.223 19.7499C20.1964 19.8437 20.1706 19.9329 20.1456 20.0173C20.1206 20.1018 20.1026 20.162 20.0916 20.198L19.8453 20.9956H20.7391ZM25.152 22.422H24.3216L23.5239 21.1247L22.7262 22.422H21.9473L23.0852 20.6531L22.0201 18.9921H22.8224L23.5614 20.2261L24.2864 18.9921H25.0699L23.9931 20.693L25.152 22.422Z" fill="#D8CEED"/>
</g>
<defs>
<clipPath id="clip0_994_1371">
<rect width="41" height="41" fill="white"/>
</clipPath>
</defs>
</svg>
