<svg width="41" height="41" viewBox="0 0 41 41" fill="none" xmlns="http://www.w3.org/2000/svg">
<g clip-path="url(#clip0_994_1317)">
<path d="M41 0H0V41H41V0Z" fill="white"/>
<path d="M20.5 41C31.8218 41 41 31.8218 41 20.5C41 9.17816 31.8218 0 20.5 0C9.17816 0 0 9.17816 0 20.5C0 31.8218 9.17816 41 20.5 41Z" fill="#4361EE" fill-opacity="0.2"/>
<path d="M20.6602 20.8203C21.1024 20.8203 21.4609 20.4618 21.4609 20.0195C21.4609 19.5773 21.1024 19.2188 20.6602 19.2188C20.2179 19.2188 19.8594 19.5773 19.8594 20.0195C19.8594 20.4618 20.2179 20.8203 20.6602 20.8203Z" fill="#FF8E75"/>
<path d="M20.9805 20.5H20.3398C20.2514 20.5 20.1797 20.5717 20.1797 20.6602V21.6211C20.1797 21.7095 20.2514 21.7812 20.3398 21.7812H20.9805C21.0689 21.7812 21.1406 21.7095 21.1406 21.6211V20.6602C21.1406 20.5717 21.0689 20.5 20.9805 20.5Z" fill="#FF8E75"/>
<path d="M16.0451 15.4497C16.6487 14.3221 18.2653 14.3221 18.8689 15.4497L23.2686 23.6677C23.8397 24.7346 23.0668 26.0252 21.8566 26.0252H13.0574C11.8472 26.0252 11.0743 24.7346 11.6455 23.6677L16.0451 15.4497Z" fill="#4361EE"/>
<path d="M24.0542 11.273C24.6586 10.1486 26.2712 10.1486 26.8756 11.273L27.9413 13.2556C28.5148 14.3225 27.742 15.6154 26.5306 15.6154H24.3992C23.1878 15.6154 22.415 14.3225 22.9885 13.2556L24.0542 11.273Z" fill="#4361EE"/>
<path d="M17.457 32.6719C21.0836 32.6719 24.0234 29.732 24.0234 26.1055C24.0234 22.4789 21.0836 19.5391 17.457 19.5391C13.8305 19.5391 10.8906 22.4789 10.8906 26.1055C10.8906 29.732 13.8305 32.6719 17.457 32.6719Z" fill="#4361EE"/>
<path d="M25.4648 19.2188C27.3223 19.2188 28.8281 17.6413 28.8281 15.6953C28.8281 13.7494 27.3223 12.1719 25.4648 12.1719C23.6074 12.1719 22.1016 13.7494 22.1016 15.6953C22.1016 17.6413 23.6074 19.2188 25.4648 19.2188Z" fill="#4361EE"/>
</g>
<defs>
<clipPath id="clip0_994_1317">
<rect width="41" height="41" fill="white"/>
</clipPath>
</defs>
</svg>
