<svg width="40" height="40" viewBox="0 0 40 40" fill="none" xmlns="http://www.w3.org/2000/svg">
<g clip-path="url(#clip0_437_268)">
<path d="M40 0H0V40H40V0Z" fill="white"/>
<path d="M20 40C31.0457 40 40 31.0457 40 20C40 8.9543 31.0457 0 20 0C8.9543 0 0 8.9543 0 20C0 31.0457 8.9543 40 20 40Z" fill="#419AFC"/>
<path d="M29.0625 10.3125H10.625C10.1072 10.3125 9.6875 10.7322 9.6875 11.25V23.125C9.6875 23.6428 10.1072 24.0625 10.625 24.0625H29.0625C29.5803 24.0625 30 23.6428 30 23.125V11.25C30 10.7322 29.5803 10.3125 29.0625 10.3125Z" fill="white"/>
<path d="M19.8438 20.9375C22.0011 20.9375 23.75 19.1886 23.75 17.0312C23.75 14.8739 22.0011 13.125 19.8438 13.125C17.6864 13.125 15.9375 14.8739 15.9375 17.0312C15.9375 19.1886 17.6864 20.9375 19.8438 20.9375Z" fill="#419AFC"/>
<path d="M18.7545 15.5815C18.957 15.5815 19.1238 15.606 19.255 15.6548C19.3872 15.7036 19.4854 15.7774 19.5495 15.876C19.6136 15.9747 19.6456 16.0993 19.6456 16.2499C19.6456 16.3516 19.6263 16.4406 19.5876 16.5169C19.549 16.5932 19.4981 16.6578 19.4351 16.7107C19.372 16.7636 19.3038 16.8068 19.2306 16.8404L19.8867 17.8124H19.3618L18.8293 16.9564H18.5775V17.8124H18.1045V15.5815H18.7545ZM18.7209 15.9691H18.5775V16.5719H18.7301C18.8867 16.5719 18.9986 16.5459 19.0658 16.494C19.134 16.4411 19.168 16.3638 19.168 16.2621C19.168 16.1563 19.1314 16.081 19.0582 16.0363C18.9859 15.9915 18.8735 15.9691 18.7209 15.9691ZM21.08 16.0744C21.2722 16.0744 21.4273 16.1492 21.5453 16.2987C21.6644 16.4483 21.7239 16.6675 21.7239 16.9564C21.7239 17.1496 21.6959 17.3124 21.64 17.4446C21.584 17.5759 21.5067 17.675 21.408 17.7422C21.3093 17.8093 21.1959 17.8429 21.0677 17.8429C20.9853 17.8429 20.9146 17.8327 20.8556 17.8124C20.7966 17.791 20.7463 17.7641 20.7046 17.7315C20.6629 17.6979 20.6268 17.6624 20.5962 17.6247H20.5718C20.58 17.6654 20.5861 17.7071 20.5901 17.7498C20.5942 17.7925 20.5962 17.8343 20.5962 17.8749V18.5631H20.1309V16.1064H20.5093L20.5749 16.3277H20.5962C20.6268 16.2819 20.6639 16.2397 20.7076 16.2011C20.7514 16.1624 20.8038 16.1319 20.8648 16.1095C20.9269 16.0861 20.9986 16.0744 21.08 16.0744ZM20.9304 16.4467C20.849 16.4467 20.7844 16.4635 20.7366 16.4971C20.6888 16.5306 20.6537 16.581 20.6313 16.6481C20.61 16.7153 20.5983 16.8002 20.5962 16.9029V16.9533C20.5962 17.0632 20.6064 17.1563 20.6268 17.2325C20.6481 17.3089 20.6832 17.3668 20.7321 17.4065C20.7819 17.4462 20.8501 17.466 20.9365 17.466C21.0077 17.466 21.0662 17.4462 21.112 17.4065C21.1578 17.3668 21.1919 17.3089 21.2142 17.2325C21.2376 17.1552 21.2493 17.0611 21.2493 16.9503C21.2493 16.7834 21.2234 16.6578 21.1715 16.5734C21.1196 16.4889 21.0393 16.4467 20.9304 16.4467Z" fill="white"/>
<path d="M20.9375 25H19.0625C18.8899 25 18.75 25.1399 18.75 25.3125V28.4375C18.75 28.6101 18.8899 28.75 19.0625 28.75H20.9375C21.1101 28.75 21.25 28.6101 21.25 28.4375V25.3125C21.25 25.1399 21.1101 25 20.9375 25Z" fill="white"/>
<path d="M20.4951 31.8566C20.245 32.1816 19.7548 32.1816 19.5046 31.8566L17.5269 29.2875C17.2105 28.8765 17.5035 28.2812 18.0222 28.2812H21.9776C22.4963 28.2812 22.7893 28.8765 22.4729 29.2875L20.4951 31.8566Z" fill="white"/>
</g>
<defs>
<clipPath id="clip0_437_268">
<rect width="40" height="40" fill="white"/>
</clipPath>
</defs>
</svg>
