<svg width="41" height="41" viewBox="0 0 41 41" fill="none" xmlns="http://www.w3.org/2000/svg">
<g clip-path="url(#clip0_994_1239)">
<path d="M41 0H0V41H41V0Z" fill="white"/>
<path d="M20.5 41C31.8218 41 41 31.8218 41 20.5C41 9.17816 31.8218 0 20.5 0C9.17816 0 0 9.17816 0 20.5C0 31.8218 9.17816 41 20.5 41Z" fill="#4361EE" fill-opacity="0.2"/>
<path d="M25.625 10.25H15.6953C14.2801 10.25 13.1328 11.3973 13.1328 12.8125V28.1875C13.1328 29.6027 14.2801 30.75 15.6953 30.75H25.625C27.0402 30.75 28.1875 29.6027 28.1875 28.1875V12.8125C28.1875 11.3973 27.0402 10.25 25.625 10.25Z" fill="#4361EE"/>
<path d="M23.543 27.8672H18.0977C17.8323 27.8672 17.6172 28.0823 17.6172 28.3477C17.6172 28.613 17.8323 28.8281 18.0977 28.8281H23.543C23.8083 28.8281 24.0234 28.613 24.0234 28.3477C24.0234 28.0823 23.8083 27.8672 23.543 27.8672Z" fill="#D9DFFC"/>
<path d="M16.3359 10.25H24.9844V10.8906C24.9844 11.2444 24.6976 11.5312 24.3438 11.5312H16.9766C16.6227 11.5312 16.3359 11.2444 16.3359 10.8906V10.25Z" fill="#D9DFFC"/>
</g>
<defs>
<clipPath id="clip0_994_1239">
<rect width="41" height="41" fill="white"/>
</clipPath>
</defs>
</svg>
