<svg width="41" height="41" viewBox="0 0 41 41" fill="none" xmlns="http://www.w3.org/2000/svg">
<g clip-path="url(#clip0_994_1309)">
<path d="M41 0H0V41H41V0Z" fill="white"/>
<path d="M20.5 41C31.8218 41 41 31.8218 41 20.5C41 9.17816 31.8218 0 20.5 0C9.17816 0 0 9.17816 0 20.5C0 31.8218 9.17816 41 20.5 41Z" fill="#4CC9F0" fill-opacity="0.2"/>
<path d="M21.7812 10.8906H11.8516C10.4363 10.8906 9.28906 12.0379 9.28906 13.4531V28.8281C9.28906 30.2434 10.4363 31.3906 11.8516 31.3906H21.7812C23.1965 31.3906 24.3438 30.2434 24.3438 28.8281V13.4531C24.3438 12.0379 23.1965 10.8906 21.7812 10.8906Z" fill="#4CC9F0"/>
<path d="M19.3789 28.8281H14.2539C13.9886 28.8281 13.7734 29.0432 13.7734 29.3086C13.7734 29.5739 13.9886 29.7891 14.2539 29.7891H19.3789C19.6443 29.7891 19.8594 29.5739 19.8594 29.3086C19.8594 29.0432 19.6443 28.8281 19.3789 28.8281Z" fill="#DBF4FC"/>
<path d="M25.959 19.8477L25.9473 21.7695C25.9462 21.9464 26.0887 22.0907 26.2656 22.0918L29.4687 22.1113C29.6456 22.1124 29.7899 21.9698 29.7909 21.7929L29.8026 19.8711C29.8037 19.6942 29.6612 19.5499 29.4843 19.5488L26.2812 19.5293C26.1043 19.5283 25.96 19.6708 25.959 19.8477Z" fill="#4CC9F0"/>
<path d="M32.9844 20.3438C33.3159 20.6022 33.3127 21.1046 32.9783 21.359L30.3325 23.3701C29.9093 23.6919 29.301 23.3878 29.3042 22.8562L29.3289 18.802C29.3321 18.2703 29.9441 17.9738 30.3634 18.3006L32.9844 20.3438Z" fill="#4CC9F0"/>
</g>
<defs>
<clipPath id="clip0_994_1309">
<rect width="41" height="41" fill="white"/>
</clipPath>
</defs>
</svg>
