<svg width="30" height="30" viewBox="0 0 30 30" fill="none" xmlns="http://www.w3.org/2000/svg">
<path d="M10 26.25H5C4.66848 26.25 4.35054 26.1183 4.11612 25.8839C3.8817 25.6495 3.75 25.3315 3.75 25V20C3.75 19.6685 3.6183 19.3505 3.38388 19.1161C3.14946 18.8817 2.83152 18.75 2.5 18.75C2.16848 18.75 1.85054 18.8817 1.61612 19.1161C1.3817 19.3505 1.25 19.6685 1.25 20V25C1.25 25.9946 1.64509 26.9484 2.34835 27.6517C3.05161 28.3549 4.00544 28.75 5 28.75H10C10.3315 28.75 10.6495 28.6183 10.8839 28.3839C11.1183 28.1495 11.25 27.8315 11.25 27.5C11.25 27.1685 11.1183 26.8505 10.8839 26.6161C10.6495 26.3817 10.3315 26.25 10 26.25ZM27.5 18.75C27.1685 18.75 26.8505 18.8817 26.6161 19.1161C26.3817 19.3505 26.25 19.6685 26.25 20V25C26.25 25.3315 26.1183 25.6495 25.8839 25.8839C25.6495 26.1183 25.3315 26.25 25 26.25H20C19.6685 26.25 19.3505 26.3817 19.1161 26.6161C18.8817 26.8505 18.75 27.1685 18.75 27.5C18.75 27.8315 18.8817 28.1495 19.1161 28.3839C19.3505 28.6183 19.6685 28.75 20 28.75H25C25.9946 28.75 26.9484 28.3549 27.6517 27.6517C28.3549 26.9484 28.75 25.9946 28.75 25V20C28.75 19.6685 28.6183 19.3505 28.3839 19.1161C28.1495 18.8817 27.8315 18.75 27.5 18.75ZM25 1.25H20C19.6685 1.25 19.3505 1.3817 19.1161 1.61612C18.8817 1.85054 18.75 2.16848 18.75 2.5C18.75 2.83152 18.8817 3.14946 19.1161 3.38388C19.3505 3.6183 19.6685 3.75 20 3.75H25C25.3315 3.75 25.6495 3.8817 25.8839 4.11612C26.1183 4.35054 26.25 4.66848 26.25 5V10C26.25 10.3315 26.3817 10.6495 26.6161 10.8839C26.8505 11.1183 27.1685 11.25 27.5 11.25C27.8315 11.25 28.1495 11.1183 28.3839 10.8839C28.6183 10.6495 28.75 10.3315 28.75 10V5C28.75 4.00544 28.3549 3.05161 27.6517 2.34835C26.9484 1.64509 25.9946 1.25 25 1.25ZM2.5 11.25C2.83152 11.25 3.14946 11.1183 3.38388 10.8839C3.6183 10.6495 3.75 10.3315 3.75 10V5C3.75 4.66848 3.8817 4.35054 4.11612 4.11612C4.35054 3.8817 4.66848 3.75 5 3.75H10C10.3315 3.75 10.6495 3.6183 10.8839 3.38388C11.1183 3.14946 11.25 2.83152 11.25 2.5C11.25 2.16848 11.1183 1.85054 10.8839 1.61612C10.6495 1.3817 10.3315 1.25 10 1.25H5C4.00544 1.25 3.05161 1.64509 2.34835 2.34835C1.64509 3.05161 1.25 4.00544 1.25 5V10C1.25 10.3315 1.3817 10.6495 1.61612 10.8839C1.85054 11.1183 2.16848 11.25 2.5 11.25ZM12.5 6.25H7.5C7.16848 6.25 6.85054 6.3817 6.61612 6.61612C6.3817 6.85054 6.25 7.16848 6.25 7.5V12.5C6.25 12.8315 6.3817 13.1495 6.61612 13.3839C6.85054 13.6183 7.16848 13.75 7.5 13.75H12.5C12.8315 13.75 13.1495 13.6183 13.3839 13.3839C13.6183 13.1495 13.75 12.8315 13.75 12.5V7.5C13.75 7.16848 13.6183 6.85054 13.3839 6.61612C13.1495 6.3817 12.8315 6.25 12.5 6.25ZM11.25 11.25H8.75V8.75H11.25V11.25ZM17.5 13.75H22.5C22.8315 13.75 23.1495 13.6183 23.3839 13.3839C23.6183 13.1495 23.75 12.8315 23.75 12.5V7.5C23.75 7.16848 23.6183 6.85054 23.3839 6.61612C23.1495 6.3817 22.8315 6.25 22.5 6.25H17.5C17.1685 6.25 16.8505 6.3817 16.6161 6.61612C16.3817 6.85054 16.25 7.16848 16.25 7.5V12.5C16.25 12.8315 16.3817 13.1495 16.6161 13.3839C16.8505 13.6183 17.1685 13.75 17.5 13.75ZM18.75 8.75H21.25V11.25H18.75V8.75ZM12.5 16.25H7.5C7.16848 16.25 6.85054 16.3817 6.61612 16.6161C6.3817 16.8505 6.25 17.1685 6.25 17.5V22.5C6.25 22.8315 6.3817 23.1495 6.61612 23.3839C6.85054 23.6183 7.16848 23.75 7.5 23.75H12.5C12.8315 23.75 13.1495 23.6183 13.3839 23.3839C13.6183 23.1495 13.75 22.8315 13.75 22.5V17.5C13.75 17.1685 13.6183 16.8505 13.3839 16.6161C13.1495 16.3817 12.8315 16.25 12.5 16.25ZM11.25 21.25H8.75V18.75H11.25V21.25ZM17.5 20C17.8315 20 18.1495 19.8683 18.3839 19.6339C18.6183 19.3995 18.75 19.0815 18.75 18.75C19.0815 18.75 19.3995 18.6183 19.6339 18.3839C19.8683 18.1495 20 17.8315 20 17.5C20 17.1685 19.8683 16.8505 19.6339 16.6161C19.3995 16.3817 19.0815 16.25 18.75 16.25H17.5C17.1685 16.25 16.8505 16.3817 16.6161 16.6161C16.3817 16.8505 16.25 17.1685 16.25 17.5V18.75C16.25 19.0815 16.3817 19.3995 16.6161 19.6339C16.8505 19.8683 17.1685 20 17.5 20ZM22.5 16.25C22.1685 16.25 21.8505 16.3817 21.6161 16.6161C21.3817 16.8505 21.25 17.1685 21.25 17.5V21.25C20.9185 21.25 20.6005 21.3817 20.3661 21.6161C20.1317 21.8505 20 22.1685 20 22.5C20 22.8315 20.1317 23.1495 20.3661 23.3839C20.6005 23.6183 20.9185 23.75 21.25 23.75H22.5C22.8315 23.75 23.1495 23.6183 23.3839 23.3839C23.6183 23.1495 23.75 22.8315 23.75 22.5V17.5C23.75 17.1685 23.6183 16.8505 23.3839 16.6161C23.1495 16.3817 22.8315 16.25 22.5 16.25ZM17.5 21.25C17.2528 21.25 17.0111 21.3233 16.8055 21.4607C16.6 21.598 16.4398 21.7932 16.3451 22.0216C16.2505 22.2501 16.2258 22.5014 16.274 22.7439C16.3222 22.9863 16.4413 23.2091 16.6161 23.3839C16.7909 23.5587 17.0137 23.6777 17.2561 23.726C17.4986 23.7742 17.7499 23.7495 17.9784 23.6549C18.2068 23.5602 18.402 23.4 18.5393 23.1945C18.6767 22.9889 18.75 22.7472 18.75 22.5C18.75 22.1685 18.6183 21.8505 18.3839 21.6161C18.1495 21.3817 17.8315 21.25 17.5 21.25Z" fill="#292D32"/>
</svg>
