<svg width="28" height="28" viewBox="0 0 28 28" fill="none" xmlns="http://www.w3.org/2000/svg">
<path d="M10.8369 5.44434H6.27397C5.81577 5.44434 5.44434 5.81577 5.44434 6.27397V10.8369C5.44434 11.2951 5.81577 11.6666 6.27397 11.6666H10.8369C11.2951 11.6666 11.6666 11.2951 11.6666 10.8369V6.27397C11.6666 5.81577 11.2951 5.44434 10.8369 5.44434Z" stroke="#419AFC" stroke-width="2" stroke-linecap="round" stroke-linejoin="round"/>
<path d="M10.8369 16.3333H6.27397C5.81577 16.3333 5.44434 16.7047 5.44434 17.1629V21.7258C5.44434 22.184 5.81577 22.5555 6.27397 22.5555H10.8369C11.2951 22.5555 11.6666 22.184 11.6666 21.7258V17.1629C11.6666 16.7047 11.2951 16.3333 10.8369 16.3333Z" stroke="#419AFC" stroke-width="2" stroke-linecap="round" stroke-linejoin="round"/>
<path d="M21.7256 5.44434H17.1626C16.7044 5.44434 16.333 5.81577 16.333 6.27397V10.8369C16.333 11.2951 16.7044 11.6666 17.1626 11.6666H21.7256C22.1838 11.6666 22.5552 11.2951 22.5552 10.8369V6.27397C22.5552 5.81577 22.1838 5.44434 21.7256 5.44434Z" stroke="#419AFC" stroke-width="2" stroke-linecap="round" stroke-linejoin="round"/>
<path d="M16.333 16.3333V18.6666" stroke="#626262" stroke-width="2" stroke-linecap="round" stroke-linejoin="round"/>
<path d="M16.333 22.5555H20.2219V16.3333" stroke="#626262" stroke-width="2" stroke-linecap="round" stroke-linejoin="round"/>
<path d="M20.2222 17.8889H22.5555" stroke="#626262" stroke-width="2" stroke-linecap="round" stroke-linejoin="round"/>
</svg>
