<svg width="24" height="24" viewBox="0 0 24 24" fill="none" xmlns="http://www.w3.org/2000/svg">
<path d="M5.6 7.30254L6.24821 17.9318C6.31987 19.0938 7.29748 20.0001 8.48197 20.0001H15.1911C16.3497 20.0001 17.3167 19.1318 17.4216 17.9979L18.4 7.30254M5.6 7.30254C4.63715 7.36848 4 7.42022 4 7.42022M5.6 7.30254C7.29113 7.18672 9.98698 7.0271 12 7.0271C14.013 7.0271 16.7089 7.18672 18.4 7.30254M18.4 7.30254C19.3628 7.36848 20 7.42022 20 7.42022" stroke="#292D32" stroke-width="1.5" stroke-linecap="round"/>
<path d="M9.6001 6.59459V5C9.6001 4.44771 10.0478 4 10.6001 4H13.4001C13.9524 4 14.4001 4.44772 14.4001 5V6.59459" stroke="#292D32" stroke-width="1.5" stroke-linecap="round"/>
<path d="M8.7998 6.59473L10.3998 6.59473" stroke="#292D32" stroke-width="1.5" stroke-linecap="round"/>
<path d="M13.6001 6.59473H15.2001" stroke="#292D32" stroke-width="1.5" stroke-linecap="round"/>
<path d="M12 10.9189V16.1081" stroke="#292D32" stroke-width="1.5" stroke-linecap="round"/>
<path d="M8.7998 11.7837L8.7998 15.2432" stroke="#292D32" stroke-width="1.5" stroke-linecap="round"/>
<path d="M15.2002 11.7837L15.2002 15.2432" stroke="#292D32" stroke-width="1.5" stroke-linecap="round"/>
</svg>
