<svg width="40" height="40" viewBox="0 0 40 40" fill="none" xmlns="http://www.w3.org/2000/svg">
<g clip-path="url(#clip0_437_180)">
<path d="M40 0H0V40H40V0Z" fill="white"/>
<path d="M20 40C31.0457 40 40 31.0457 40 20C40 8.9543 31.0457 0 20 0C8.9543 0 0 8.9543 0 20C0 31.0457 8.9543 40 20 40Z" fill="#419AFC"/>
<path d="M25.9375 11.5625H12.1875C10.4616 11.5625 9.0625 12.9616 9.0625 14.6875V25.625C9.0625 27.3509 10.4616 28.75 12.1875 28.75H25.9375C27.6634 28.75 29.0625 27.3509 29.0625 25.625V14.6875C29.0625 12.9616 27.6634 11.5625 25.9375 11.5625Z" fill="white"/>
<path d="M28.75 16.4062H25.3125C24.3633 16.4062 23.5938 17.1758 23.5938 18.125V21.875C23.5938 22.8242 24.3633 23.5938 25.3125 23.5938H28.75C29.6992 23.5938 30.4688 22.8242 30.4688 21.875V18.125C30.4688 17.1758 29.6992 16.4062 28.75 16.4062Z" fill="white" stroke="#419AFC" stroke-width="3"/>
</g>
<defs>
<clipPath id="clip0_437_180">
<rect width="40" height="40" fill="white"/>
</clipPath>
</defs>
</svg>
