<svg width="24" height="24" viewBox="0 0 24 24" fill="none" xmlns="http://www.w3.org/2000/svg">
<path d="M4 14.5901V7.32251C4 5.39081 5.62239 3.87795 7.49985 4.05896L8.41629 4.14731C9.19867 4.22274 9.94589 3.79795 10.2973 3.07795C10.9989 1.64068 13.0011 1.64068 13.7027 3.07795C14.0541 3.79795 14.8013 4.22274 15.5837 4.14731L16.5001 4.05896C18.3776 3.87795 20 5.39081 20 7.32251V14.5901C20 15.5582 19.5822 16.4768 18.8587 17.0997L14.0587 21.2316C12.8685 22.2561 11.1315 22.2561 9.9413 21.2316L5.1413 17.0997C4.41777 16.4768 4 15.5582 4 14.5901Z" stroke="#292D32" stroke-width="1.5" stroke-linecap="round"/>
</svg>
