<svg width="49" height="35" viewBox="0 0 49 35" fill="none" xmlns="http://www.w3.org/2000/svg">
<rect width="49" height="35" rx="4" fill="#F0592C"/>
<path fill-rule="evenodd" clip-rule="evenodd" d="M5.68119 23.1264C6.03897 23.468 6.49602 23.6317 6.95263 23.7952C7.41254 23.9599 7.872 24.1245 8.22911 24.4705C8.55376 24.7445 8.59013 25.2445 8.40572 25.6081C8.16677 26.0146 7.6642 26.1691 7.21877 26.1873C6.48245 26.1899 5.84352 25.7769 5.25784 25.3782C5.24169 25.3917 5.22443 25.4057 5.20652 25.4202C5.01702 25.5739 4.75595 25.7857 4.99681 26.0159C5.9552 26.895 7.60317 27.26 8.67713 26.386C9.44462 25.7691 9.41216 24.5211 8.67064 23.8978C8.31353 23.5251 7.84275 23.3619 7.37159 23.1986C6.97921 23.0626 6.58657 22.9266 6.25908 22.6693C5.71755 22.2953 5.96819 21.3512 6.58504 21.2122C7.21228 21.0018 7.8577 21.233 8.4213 21.5109C8.79921 21.7226 9.04205 21.0538 8.70181 20.8811C7.96808 20.3941 6.95775 20.2434 6.1448 20.6162C5.21758 21.0135 4.90331 22.4381 5.68119 23.1264ZM9.77448 26.112L9.77517 26.178C9.77702 26.3696 9.7789 26.5635 9.81733 26.7522C9.96018 26.934 10.3147 26.9561 10.4329 26.7379C10.5313 26.3883 10.5111 26.0085 10.491 25.6296C10.4602 25.0488 10.4295 24.4701 10.8264 24.0056C11.2679 23.4199 12.4029 23.4667 12.6445 24.2108C12.7243 24.6497 12.7123 25.0958 12.7003 25.5421C12.6895 25.9448 12.6787 26.3477 12.7354 26.7457C12.9276 27.0158 13.4691 26.8924 13.408 26.5275C13.4145 25.8263 13.4197 25.125 13.4145 24.4237C13.421 23.5783 12.6029 22.8589 11.7731 22.8901C11.3017 22.8446 10.8783 23.0732 10.4861 23.3017C10.4857 23.0359 10.4887 22.7698 10.4917 22.5036V22.5035V22.5035V22.5035V22.5035V22.5034V22.5034V22.5034V22.5034V22.5033V22.5033V22.5033V22.5033V22.5033V22.5033C10.4981 21.9295 10.5045 21.3554 10.477 20.7824C10.4861 20.5655 10.3147 20.3668 10.0849 20.424C9.80954 20.3993 9.77707 20.72 9.77837 20.9226C9.77612 21.6722 9.77704 22.4218 9.77796 23.1713C9.77916 24.1515 9.78036 25.1317 9.77448 26.112ZM32.3095 27.0301L32.3103 27.0301C32.4557 27.0285 32.6013 27.0268 32.7473 27.0249C32.8153 26.589 32.8921 26.1552 32.9688 25.7215L32.9689 25.7213L32.9691 25.7201C33.0139 25.4668 33.0587 25.2136 33.1018 24.9601C33.2144 24.9582 33.3271 24.9578 33.4398 24.9575C33.8006 24.9562 34.1617 24.955 34.5199 24.9055C35.5121 24.7536 36.3808 23.7848 36.2172 22.755C36.1276 22.1161 35.5172 21.6693 34.8978 21.6408C34.5239 21.6267 34.15 21.6294 33.7762 21.6322C33.4618 21.6345 33.1474 21.6368 32.833 21.6291C32.6483 22.6498 32.4673 23.6709 32.2863 24.6922L32.2863 24.6925L32.2862 24.6927L32.2862 24.6929L32.2861 24.6932L32.2861 24.6935L32.286 24.6937L32.2857 24.6955C32.1475 25.4754 32.0093 26.2553 31.8694 27.0353C32.0161 27.0333 32.1627 27.0317 32.3095 27.0301ZM33.2498 24.1277C33.3101 23.8094 33.3673 23.4907 33.4245 23.1724C33.4672 22.9347 33.5099 22.6972 33.5537 22.4602C33.7039 22.466 33.856 22.4613 34.0084 22.4567C34.3384 22.4467 34.6698 22.4366 34.9861 22.5316C35.4887 22.755 35.4173 23.49 35.0588 23.8173C34.7043 24.1679 34.2163 24.1489 33.7427 24.1305C33.5744 24.1239 33.4079 24.1174 33.2498 24.1277ZM14.5392 26.2081C14.0223 25.6003 13.8859 24.6692 14.295 23.9679C14.5703 23.4744 15.069 23.1355 15.6053 22.9797C16.6118 22.6862 17.7507 23.3654 18.0481 24.3536C18.1909 24.9133 18.1299 25.5458 17.7922 26.0263C17.1091 27.1041 15.3391 27.1989 14.5392 26.2081ZM17.3416 25.3302C17.7169 24.4289 16.7429 23.4238 15.8248 23.6822C14.9158 23.8004 14.421 25.0055 15.0534 25.6964C15.6378 26.5093 17.0364 26.2756 17.3416 25.3302ZM19.1831 22.9589C18.9415 22.8576 18.6922 23.1459 18.7376 23.3822C18.7282 24.2107 18.7299 25.0391 18.7316 25.8677C18.7332 26.6445 18.7348 27.4215 18.7272 28.1989C18.7307 28.2573 18.7305 28.3177 18.7303 28.3786C18.7295 28.5665 18.7288 28.7594 18.8376 28.9183C19.0402 29.0001 19.4376 29.0313 19.4402 28.7248C19.4756 28.2029 19.4669 27.6792 19.4583 27.1558C19.4542 26.912 19.4502 26.6683 19.4506 26.4249C20.3999 27.1703 22.0037 27.0301 22.6127 25.9211C23.2348 24.9419 22.7439 23.529 21.679 23.1017C20.9687 22.7316 20.1064 22.9394 19.5051 23.4238C19.4803 23.3782 19.4628 23.322 19.4448 23.2647C19.4 23.1211 19.3529 22.97 19.1831 22.9589ZM20.2869 23.7666C20.9037 23.5069 21.7076 23.7108 22.0167 24.3341C22.4296 24.9627 22.0245 25.8444 21.3544 26.0925C20.683 26.4132 19.8181 26.0081 19.5947 25.3094C19.3428 24.7133 19.7246 24.0173 20.2869 23.7666ZM26.8917 26.5626C26.1229 27.0405 25.0555 27.1054 24.2802 26.6028C23.227 25.8159 23.2673 23.9848 24.3399 23.2342C25.1879 22.629 26.584 22.9173 27.0034 23.9056C27.1489 24.2627 27.2437 24.6809 27.1034 25.0549C26.9833 25.1391 26.8363 25.1429 26.694 25.1466C26.6564 25.1476 26.6191 25.1485 26.5827 25.151C26.3079 25.1523 26.0329 25.151 25.7579 25.1497C25.2401 25.1473 24.7222 25.1448 24.2049 25.1601C24.2268 25.2144 24.2477 25.2708 24.2688 25.328L24.2689 25.3281L24.2689 25.3282L24.2689 25.3283L24.269 25.3283C24.3793 25.6266 24.497 25.9446 24.8074 26.0808C25.3788 26.3483 26.0359 26.1886 26.5944 25.9639C26.9255 25.7782 27.2177 26.3977 26.8917 26.5626ZM25.9515 23.7666C25.6308 23.6342 25.262 23.6316 24.9308 23.7238C24.6441 23.8037 24.4966 24.068 24.3594 24.3139L24.3594 24.314L24.3593 24.3141C24.3337 24.3599 24.3085 24.4051 24.2828 24.4484C25.0074 24.4601 25.7334 24.4588 26.4593 24.4484C26.434 24.4008 26.4099 24.3509 26.3857 24.3006L26.3856 24.3005C26.283 24.0876 26.1763 23.8664 25.9515 23.7666ZM28.5202 26.5288C29.2773 27.1171 30.398 27.0509 31.1993 26.5847C31.5551 26.4016 31.2396 25.7237 30.8798 25.9795C30.3526 26.1977 29.737 26.3249 29.1903 26.1055C28.8432 25.97 28.7085 25.6181 28.5843 25.2936L28.5843 25.2935L28.5842 25.2933L28.5842 25.2932C28.5667 25.2476 28.5495 25.2026 28.5319 25.1588C29.064 25.1446 29.5962 25.1473 30.1283 25.1501C30.3753 25.1514 30.6224 25.1527 30.8694 25.1523C30.9105 25.1496 30.9529 25.1488 30.9957 25.1481H30.9957C31.159 25.1453 31.3289 25.1423 31.4564 25.0302C31.6019 24.4874 31.4084 23.8913 31.059 23.4667C30.4253 22.8173 29.2981 22.729 28.5839 23.3004C27.6372 24.0705 27.5943 25.7237 28.5202 26.5288ZM28.6202 24.451C28.8007 24.0069 29.1721 23.5965 29.6994 23.6614C30.224 23.5926 30.6526 23.9601 30.7863 24.4497C30.0643 24.4588 29.3423 24.4575 28.6202 24.451ZM38.5067 23.9381C37.9678 23.5835 37.3029 23.8796 36.8613 24.251L36.3432 23.7952C36.7756 23.4147 37.2951 23.103 37.8847 23.0667C38.3898 23.0368 38.9846 23.0874 39.3391 23.4965C39.604 23.7718 39.6469 24.1887 39.5859 24.551C39.4879 25.1708 39.3747 25.7876 39.2615 26.4048L39.2607 26.4091L39.2606 26.4095C39.2225 26.6172 39.1844 26.8248 39.1469 27.0327C38.8664 27.0314 38.5859 27.0301 38.3067 27.0301L38.4054 26.5782C37.8639 27.1223 36.9613 27.3807 36.2808 26.9418C35.6393 26.5106 35.7783 25.5224 36.3107 25.0601C36.9665 24.4445 37.9574 24.4913 38.7638 24.7289C38.7547 24.6655 38.7515 24.5967 38.7482 24.5267C38.7376 24.2984 38.7263 24.0563 38.5067 23.9381ZM38.6418 25.4172C38.1366 25.2146 37.5119 25.077 37.0263 25.4003C36.6964 25.6094 36.5717 26.1821 36.9834 26.3769C37.6989 26.6886 38.4379 26.0925 38.6418 25.4172ZM40.3498 24.348C40.2485 23.9621 40.1471 23.5764 40.0443 23.1913H40.9936C41.093 23.5886 41.1878 23.9871 41.2826 24.3856C41.3933 24.8506 41.5039 25.3158 41.6221 25.7795C41.9766 25.2398 42.2984 24.6809 42.6203 24.1219C42.7995 23.8106 42.9787 23.4993 43.1636 23.1913C43.474 23.1913 43.7844 23.1926 44.096 23.1939L44.0999 23.1939C43.6875 23.8603 43.2778 24.5284 42.8681 25.1965C42.1568 26.3565 41.4455 27.5165 40.7196 28.6677C40.523 28.6651 40.3265 28.6636 40.1299 28.6622C40.0317 28.6615 39.9334 28.6607 39.8352 28.6599C39.9687 28.4479 40.1037 28.2367 40.2388 28.0256C40.4991 27.6186 40.7595 27.2115 41.0092 26.7976C40.7797 25.9841 40.5647 25.1658 40.3498 24.348Z" fill="white"/>
</svg>
