<svg width="40" height="40" viewBox="0 0 40 40" fill="none" xmlns="http://www.w3.org/2000/svg">
<g clip-path="url(#clip0_437_256)">
<path d="M40 0H0V40H40V0Z" fill="white"/>
<path d="M20 40C31.0457 40 40 31.0457 40 20C40 8.9543 31.0457 0 20 0C8.9543 0 0 8.9543 0 20C0 31.0457 8.9543 40 20 40Z" fill="#419AFC"/>
<path d="M19.6875 31.25C24.6926 31.25 28.75 27.1926 28.75 22.1875C28.75 17.1824 24.6926 13.125 19.6875 13.125C14.6824 13.125 10.625 17.1824 10.625 22.1875C10.625 27.1926 14.6824 31.25 19.6875 31.25Z" fill="white"/>
<path d="M21.0407 16.4062C20.4393 17.4479 18.9358 17.4479 18.3344 16.4062L14.8162 10.3125C14.2147 9.27084 14.9665 7.96875 16.1693 7.96875H23.2058C24.4086 7.96875 25.1604 9.27084 24.559 10.3125L21.0407 16.4062Z" fill="white"/>
<path d="M29.4282 13.7006C29.6597 13.5848 29.7536 13.3033 29.6378 13.0717C29.5221 12.8401 29.2405 12.7463 29.0089 12.8621L29.4282 13.7006ZM20.4552 14.3528C21.0865 14.1508 22.1325 13.8759 23.1992 13.7135C24.2891 13.5476 25.3105 13.5144 25.9453 13.726L26.2418 12.8366C25.3767 12.5483 24.1584 12.6192 23.0582 12.7867C21.9348 12.9576 20.8402 13.2452 20.1694 13.4599L20.4552 14.3528ZM25.9453 13.726C27.5608 14.2645 28.8981 13.9656 29.4282 13.7006L29.0089 12.8621C28.7057 13.0137 27.6263 13.2981 26.2418 12.8366L25.9453 13.726Z" fill="white"/>
</g>
<defs>
<clipPath id="clip0_437_256">
<rect width="40" height="40" fill="white"/>
</clipPath>
</defs>
</svg>
