<svg width="41" height="41" viewBox="0 0 41 41" fill="none" xmlns="http://www.w3.org/2000/svg">
<g clip-path="url(#clip0_994_1301)">
<path d="M41 0H0V41H41V0Z" fill="white"/>
<path d="M20.5 41C31.8218 41 41 31.8218 41 20.5C41 9.17816 31.8218 0 20.5 0C9.17816 0 0 9.17816 0 20.5C0 31.8218 9.17816 41 20.5 41Z" fill="#02BC79" fill-opacity="0.2"/>
<path d="M26.5859 11.8516H12.4922C10.7232 11.8516 9.28906 13.2857 9.28906 15.0547V26.2656C9.28906 28.0347 10.7232 29.4688 12.4922 29.4688H26.5859C28.355 29.4688 29.7891 28.0347 29.7891 26.2656V15.0547C29.7891 13.2857 28.355 11.8516 26.5859 11.8516Z" fill="#02BC79"/>
<path d="M29.4688 16.8164H25.9453C24.9723 16.8164 24.1836 17.6052 24.1836 18.5781V22.4219C24.1836 23.3948 24.9723 24.1836 25.9453 24.1836H29.4688C30.4417 24.1836 31.2305 23.3948 31.2305 22.4219V18.5781C31.2305 17.6052 30.4417 16.8164 29.4688 16.8164Z" fill="#02BC79" stroke="#CCF2E4"/>
<path d="M18.7383 17.9375H15.5352V20.5H18.7383" stroke="#CCF2E4" stroke-linecap="round" stroke-linejoin="round"/>
<path d="M18.7383 20.5H15.5352V23.0625H18.7383" stroke="#CCF2E4" stroke-linecap="round" stroke-linejoin="round"/>
</g>
<defs>
<clipPath id="clip0_994_1301">
<rect width="41" height="41" fill="white"/>
</clipPath>
</defs>
</svg>
