<svg width="128" height="128" viewBox="0 0 128 128" fill="none" xmlns="http://www.w3.org/2000/svg">
<path d="M27 103.769V18C27 15.7909 28.7909 14 31 14H98C100.209 14 102 15.7909 102 18V103.769C102 107.411 97.5306 109.158 95.0608 106.483L86.1892 96.8716C84.6054 95.1558 81.8946 95.1558 80.3108 96.8717L67.4392 110.816C65.8554 112.532 63.1446 112.532 61.5608 110.816L48.6892 96.8716C47.1054 95.1558 44.3946 95.1558 42.8108 96.8717L33.9392 106.483C31.4694 109.158 27 107.411 27 103.769Z" fill="#292D32" stroke="#292D32" stroke-width="7.5"/>
<line x1="48.75" y1="30.25" x2="81.25" y2="30.25" stroke="white" stroke-width="7.5" stroke-linecap="round"/>
<line x1="48.75" y1="49.25" x2="81.25" y2="49.25" stroke="white" stroke-width="7.5" stroke-linecap="round"/>
<line x1="48.75" y1="68.25" x2="81.25" y2="68.25" stroke="white" stroke-width="7.5" stroke-linecap="round"/>
</svg>
