<svg width="32" height="32" viewBox="0 0 32 32" fill="none" xmlns="http://www.w3.org/2000/svg">
<path fill-rule="evenodd" clip-rule="evenodd" d="M12.621 21.5001L13.061 21.9391C13.342 22.2207 13.4999 22.6023 13.4999 23.0001C13.4999 23.3979 13.342 23.7795 13.061 24.0611C12.7794 24.3421 12.3978 24.5 12 24.5C11.6022 24.5 11.2206 24.3421 10.939 24.0611L7.939 21.0611C7.65798 20.7795 7.50015 20.3979 7.50015 20.0001C7.50015 19.6023 7.65798 19.2207 7.939 18.9391L10.939 15.9391C11.2206 15.6581 11.6022 15.5002 12 15.5002C12.3978 15.5002 12.7794 15.6581 13.061 15.9391C13.342 16.2207 13.4999 16.6023 13.4999 17.0001C13.4999 17.3979 13.342 17.7795 13.061 18.0611L12.621 18.5001H23C23.3978 18.5001 23.7794 18.6581 24.0607 18.9394C24.342 19.2207 24.5 19.6023 24.5 20.0001C24.5 20.3979 24.342 20.7795 24.0607 21.0608C23.7794 21.3421 23.3978 21.5001 23 21.5001H12.621ZM19.379 10.5001L18.939 10.0611C18.658 9.7795 18.5001 9.39793 18.5001 9.0001C18.5001 8.60227 18.658 8.22069 18.939 7.9391C19.2206 7.65807 19.6022 7.50024 20 7.50024C20.3978 7.50024 20.7794 7.65807 21.061 7.9391L24.061 10.9391C24.342 11.2207 24.4999 11.6023 24.4999 12.0001C24.4999 12.3979 24.342 12.7795 24.061 13.0611L21.061 16.0611C20.7794 16.3421 20.3978 16.4999 20 16.4999C19.6022 16.4999 19.2206 16.3421 18.939 16.0611C18.658 15.7795 18.5001 15.3979 18.5001 15.0001C18.5001 14.6023 18.658 14.2207 18.939 13.9391L19.379 13.5001H9C8.60218 13.5001 8.22064 13.3421 7.93934 13.0608C7.65804 12.7795 7.5 12.3979 7.5 12.0001C7.5 11.6023 7.65804 11.2207 7.93934 10.9394C8.22064 10.6581 8.60218 10.5001 9 10.5001H19.379Z" fill="#0A6DED"/>
</svg>
