<svg width="41" height="41" viewBox="0 0 41 41" fill="none" xmlns="http://www.w3.org/2000/svg">
<g clip-path="url(#clip0_450_62)">
<path d="M41 0H0V41H41V0Z" fill="white"/>
<path d="M20.5 41C31.8218 41 41 31.8218 41 20.5C41 9.17816 31.8218 0 20.5 0C9.17816 0 0 9.17816 0 20.5C0 31.8218 9.17816 41 20.5 41Z" fill="#419AFC"/>
<path d="M29.4688 24.3438H11.8516C11.1439 24.3438 10.5703 24.9174 10.5703 25.625V28.1875C10.5703 28.8951 11.1439 29.4688 11.8516 29.4688H29.4688C30.1764 29.4688 30.75 28.8951 30.75 28.1875V25.625C30.75 24.9174 30.1764 24.3438 29.4688 24.3438Z" fill="white"/>
<path d="M19.9469 9.44703C20.3786 9.15763 20.9422 9.15763 21.3739 9.44703L30.0613 15.2716C31.1127 15.9766 30.6137 17.6171 29.3477 17.6171H11.9731C10.7071 17.6171 10.2081 15.9766 11.2595 15.2716L19.9469 9.44703Z" fill="white"/>
<path d="M27.8672 16.6562H25.3047V24.9844H27.8672V16.6562Z" fill="white"/>
<path d="M16.3359 16.6562H13.7734V24.9844H16.3359V16.6562Z" fill="white"/>
<path d="M22.1016 16.6562H19.5391V24.9844H22.1016V16.6562Z" fill="white"/>
</g>
<defs>
<clipPath id="clip0_450_62">
<rect width="41" height="41" fill="white"/>
</clipPath>
</defs>
</svg>
