<svg width="128" height="128" viewBox="0 0 128 128" fill="none" xmlns="http://www.w3.org/2000/svg">
<path d="M25 104.769V19C25 16.7909 26.7909 15 29 15H96C98.2091 15 100 16.7909 100 19V104.769C100 108.411 95.5306 110.158 93.0608 107.483L84.1892 97.8716C82.6054 96.1558 79.8946 96.1558 78.3108 97.8717L65.4392 111.816C63.8554 113.532 61.1446 113.532 59.5608 111.816L46.6892 97.8716C45.1054 96.1558 42.3946 96.1558 40.8108 97.8717L31.9392 107.483C29.4694 110.158 25 108.411 25 104.769Z" stroke="#292D32" stroke-width="7.5"/>
<line x1="46.75" y1="31.25" x2="79.25" y2="31.25" stroke="#292D32" stroke-width="7.5" stroke-linecap="round"/>
<line x1="46.75" y1="50.25" x2="79.25" y2="50.25" stroke="#292D32" stroke-width="7.5" stroke-linecap="round"/>
<line x1="46.75" y1="69.25" x2="79.25" y2="69.25" stroke="#292D32" stroke-width="7.5" stroke-linecap="round"/>
</svg>
