<svg width="236" height="152" viewBox="0 0 236 152" fill="none" xmlns="http://www.w3.org/2000/svg">
<path d="M199.038 106.227H218.536V100.021H199.038V106.227Z" fill="#EBEBEB"/>
<path d="M80.5333 6.20557L100.032 6.20557V8.58307e-06L80.5333 8.58307e-06V6.20557Z" fill="#EBEBEB"/>
<path d="M209.913 114.057L219.729 113.891L224.581 113.824H229.412L229.157 114.079V107.874L229.434 108.151L219.685 108.112L214.81 108.062L209.935 108.001L210.068 107.874L209.913 114.057ZM209.913 114.057L209.786 107.851V107.707H209.919L214.793 107.646L219.668 107.596L229.417 107.563H229.694V107.846V114.051V114.301H229.445H224.526L219.629 114.234L209.913 114.057Z" fill="#EBEBEB"/>
<path d="M117.201 67.7788L127.017 67.618L131.869 67.5514L136.699 67.5237L136.444 67.7788V61.5732L136.722 61.8505L126.972 61.8117L122.098 61.7673L117.223 61.7063L117.356 61.5732L117.201 67.7788ZM117.201 67.7788L117.068 61.5732V61.4457H117.201L122.076 61.3847L126.95 61.3403L136.699 61.3015H136.977V61.5788L136.949 67.7788V68.0339H136.699L131.78 68.0062L126.884 67.9396L117.201 67.7788Z" fill="#EBEBEB"/>
<path d="M128.076 75.6202L137.892 75.4594L142.744 75.3928L147.574 75.3651L147.319 75.6202V69.4147L147.597 69.6919L137.847 69.6531L132.973 69.6087L128.098 69.5478L128.231 69.4147L128.076 75.6202ZM128.076 75.6202L127.943 69.4424V69.3148H128.076L132.951 69.2538L137.825 69.2095L147.574 69.1707H147.852V69.4479V75.6535V75.9086H147.602L142.683 75.8808L137.786 75.8143L128.076 75.6202Z" fill="#EBEBEB"/>
<path d="M138.906 67.7954H158.405V61.5899H138.906V67.7954Z" fill="#EBEBEB"/>
<path d="M0.000110626 114.052H19.4985V107.846H0.000110626V114.052Z" fill="#EBEBEB"/>
<path d="M160.202 128.465H224.953L227.038 87.377H158.117L160.202 128.465Z" fill="#EBEBEB"/>
<path d="M220.233 106.21H163.158L162.398 91.8965H221.182L220.233 106.21ZM163.668 105.655H219.679L220.527 92.451H162.953L163.668 105.655Z" fill="#DBDBDB"/>
<path d="M219.457 122.62H164.794L164.156 109.698H220.266L219.457 122.62ZM165.326 122.065H218.963L219.701 110.253H164.738L165.326 122.065Z" fill="#DBDBDB"/>
<path d="M198.272 100.625H186.139L185.689 97.1372H198.722L198.272 100.625ZM186.627 100.071H197.784L198.095 97.6918H186.322L186.627 100.071Z" fill="#DBDBDB"/>
<path d="M198.272 117.906H186.139L185.689 114.412H198.722L198.272 117.906ZM186.627 117.351H197.784L198.095 114.966H186.322L186.627 117.351Z" fill="#DBDBDB"/>
<path d="M169.18 128.465L168.554 132.94L167.289 141.935H164.816V128.465H169.18Z" fill="#EBEBEB"/>
<path d="M169.18 128.465L168.554 132.94H164.816V128.465H169.18Z" fill="#DBDBDB"/>
<path d="M215.975 128.465L216.601 132.94L217.866 141.935H220.339V128.465H215.975Z" fill="#EBEBEB"/>
<path d="M215.975 128.465L216.601 132.94H220.339V128.465H215.975Z" fill="#DBDBDB"/>
<path d="M11.2021 143.648L39.2852 143.515L67.3683 143.465L123.534 143.371L179.7 143.465L207.784 143.515L235.867 143.648L207.784 143.787L179.7 143.837L123.534 143.926L67.3683 143.837L39.2852 143.787L11.2021 143.648Z" fill="#263238"/>
<path d="M107.01 3.12231V12.4501H109.4V16.7036L113.54 12.4501H141.64V3.12231H107.01Z" fill="white"/>
<path d="M107.01 3.11674C107.01 6.26111 107.118 9.37221 107.123 12.4445L107.01 12.328H109.519V12.45V16.7035L109.293 16.6037L113.416 12.3447L113.459 12.3003H113.523L127.555 12.267H141.586L141.391 12.4667V3.13892L141.564 3.31084L124.295 3.24984L107.01 3.11674ZM107.01 3.11674L124.279 3.00583L141.64 2.94482H141.807V3.11674L141.834 12.4445V12.6441H141.64H127.609L113.577 12.6108L113.68 12.5665L109.53 16.8089L109.309 17.0363V16.7146V12.4611L109.427 12.5831H106.896V12.4667C106.896 9.30566 106.988 6.19456 107.01 3.11674Z" fill="#263238"/>
<path d="M113.065 6.49417V7.74748H112.72V6.49417C112.729 6.38258 112.715 6.27029 112.68 6.16439C112.644 6.05848 112.588 5.96126 112.514 5.87888C112.44 5.7965 112.351 5.73074 112.251 5.68576C112.151 5.64078 112.044 5.61756 111.935 5.61756C111.826 5.61756 111.718 5.64078 111.618 5.68576C111.518 5.73074 111.429 5.7965 111.355 5.87888C111.281 5.96126 111.225 6.05848 111.189 6.16439C111.154 6.27029 111.14 6.38258 111.149 6.49417V7.74748H110.804V6.49417C110.793 6.33484 110.815 6.17496 110.866 6.02445C110.918 5.87394 111 5.73602 111.106 5.61927C111.212 5.50251 111.34 5.40942 111.483 5.34577C111.625 5.28212 111.779 5.24927 111.935 5.24927C112.09 5.24927 112.244 5.28212 112.386 5.34577C112.529 5.40942 112.657 5.50251 112.763 5.61927C112.869 5.73602 112.951 5.87394 113.003 6.02445C113.055 6.17496 113.076 6.33484 113.065 6.49417Z" fill="#263238"/>
<path d="M110.809 6.82129L111.149 6.83793V7.74742H110.809V6.82129Z" fill="#263238"/>
<path d="M113.065 6.91532V7.74716H112.719V6.89868L113.065 6.91532Z" fill="#263238"/>
<path d="M113.502 7.28711H110.366V9.96565H113.502V7.28711Z" fill="#263238"/>
<path d="M118.51 6.68262C118.297 7.10711 118.02 7.4945 117.689 7.83057C117.357 8.16838 116.975 8.44923 116.556 8.66241C116.773 8.23568 117.055 7.84796 117.393 7.51446C117.718 7.17563 118.095 6.89453 118.51 6.68262Z" fill="#263238"/>
<path d="M116.556 6.68262C116.979 6.90514 117.362 7.19951 117.689 7.55328C118.024 7.88853 118.304 8.27597 118.521 8.70123C118.105 8.48165 117.728 8.19309 117.403 7.8472C117.061 7.50953 116.774 7.11605 116.556 6.68262Z" fill="#263238"/>
<path d="M118.909 7.68066C118.465 7.82642 118 7.89758 117.533 7.8914C117.066 7.90029 116.601 7.82906 116.157 7.68066C116.602 7.53393 117.067 7.46459 117.533 7.47547C118 7.46701 118.465 7.5363 118.909 7.68066Z" fill="#263238"/>
<path d="M117.533 6.2666C117.807 7.18844 117.807 8.17303 117.533 9.09487C117.39 8.63823 117.323 8.16026 117.334 7.68074C117.325 7.20137 117.393 6.7238 117.533 6.2666Z" fill="#263238"/>
<path d="M123.259 6.68262C123.046 7.11024 122.765 7.49825 122.428 7.83057C122.103 8.17548 121.725 8.4639 121.311 8.68459C121.527 8.25932 121.807 7.8719 122.142 7.53665C122.465 7.18991 122.843 6.90124 123.259 6.68262Z" fill="#263238"/>
<path d="M121.311 6.68262C122.137 7.13959 122.814 7.83569 123.259 8.68459C122.433 8.22762 121.755 7.53152 121.311 6.68262Z" fill="#263238"/>
<path d="M123.663 7.68066C123.219 7.82642 122.754 7.89758 122.287 7.8914C121.82 7.90029 121.355 7.82906 120.911 7.68066C121.356 7.53393 121.821 7.46459 122.287 7.47547C122.754 7.46701 123.218 7.5363 123.663 7.68066Z" fill="#263238"/>
<path d="M122.288 6.2666C122.428 6.7238 122.496 7.20137 122.487 7.68074C122.498 8.16026 122.431 8.63823 122.288 9.09487C122.143 8.6385 122.074 8.16056 122.083 7.68074C122.077 7.2011 122.146 6.7236 122.288 6.2666Z" fill="#263238"/>
<path d="M128.013 6.68262C127.8 7.11024 127.519 7.49825 127.182 7.83057C126.855 8.17396 126.478 8.46219 126.064 8.68459C126.279 8.25825 126.56 7.87057 126.896 7.53665C127.219 7.18991 127.596 6.90124 128.013 6.68262Z" fill="#263238"/>
<path d="M126.064 6.68262C126.891 7.13959 127.568 7.83569 128.013 8.68459C127.187 8.22762 126.509 7.53152 126.064 6.68262Z" fill="#263238"/>
<path d="M128.418 7.68083C127.973 7.82659 127.508 7.89775 127.042 7.89156C126.573 7.90014 126.106 7.82893 125.66 7.68083C126.106 7.5345 126.573 7.46517 127.042 7.47564C127.508 7.46718 127.973 7.53647 128.418 7.68083Z" fill="#263238"/>
<path d="M127.042 6.2666C127.307 7.18964 127.307 8.17184 127.042 9.09487C126.769 8.17303 126.769 7.18844 127.042 6.2666Z" fill="#263238"/>
<path d="M132.768 6.68262C132.553 7.10895 132.273 7.49664 131.937 7.83057C131.611 8.17396 131.234 8.46219 130.82 8.68459C131.035 8.25825 131.315 7.87057 131.651 7.53665C131.974 7.18991 132.352 6.90124 132.768 6.68262Z" fill="#263238"/>
<path d="M130.82 6.68262C131.646 7.13959 132.323 7.83569 132.768 8.68459C132.354 8.46219 131.977 8.17396 131.651 7.83057C131.315 7.49664 131.035 7.10895 130.82 6.68262Z" fill="#263238"/>
<path d="M133.173 7.68066C132.728 7.82642 132.263 7.89758 131.797 7.8914C131.328 7.90028 130.861 7.82907 130.415 7.68066C130.861 7.53393 131.328 7.46459 131.797 7.47547C132.263 7.46701 132.728 7.5363 133.173 7.68066Z" fill="#263238"/>
<path d="M131.796 6.2666C132.062 7.18964 132.062 8.17184 131.796 9.09487C131.523 8.17303 131.523 7.18844 131.796 6.2666Z" fill="#263238"/>
<path d="M72.4488 113.665L40.4229 139.485H42.2307L79.2145 113.665H72.4488Z" fill="#C7C7C7"/>
<path d="M75.454 113.665L59.6323 139.485H61.4347L80.8333 113.665H75.454Z" fill="#C7C7C7"/>
<path d="M83.2126 113.665L99.0343 139.485H97.2319L77.8389 113.665H83.2126Z" fill="#C7C7C7"/>
<path d="M85.98 113.665L118 139.485H116.198L79.2144 113.665H85.98Z" fill="#C7C7C7"/>
<path d="M139.423 104.193V96.6394L95.452 94.8371L72.2214 32.8203H19L37.8329 104.193L82.8191 116.825H85.6418L139.423 104.193Z" fill="#455A64"/>
<path opacity="0.1" d="M19 32.8203H25.0891L44.7095 97.8816L84.5105 109.156L139.423 96.6394V104.193L85.6418 116.825H82.8191L37.8329 104.193L19 32.8203Z" fill="black"/>
<path d="M115.483 151.231C114.141 150.715 83.9561 125.987 83.4015 124.318C83.1853 123.686 86.5293 119.077 90.7329 113.626C91.6368 112.45 92.5851 111.241 93.55 110.016C99.8055 102.063 106.632 93.7725 106.632 93.7725L126.874 110.249L113.231 126.037L110.237 129.503C110.237 129.503 117.563 144.143 117.973 146.04C118.383 147.937 116.825 151.741 115.483 151.231Z" fill="#AD6359"/>
<path d="M115.483 151.23C114.141 150.715 83.9559 125.987 83.4014 124.318C83.1407 123.541 88.1373 116.903 93.5499 110.015L113.231 126.048L110.237 129.514C110.237 129.514 117.562 144.154 117.973 146.051C118.383 147.947 116.825 151.741 115.483 151.23Z" fill="#EBEBEB"/>
<path d="M115.483 151.231C114.141 150.715 83.9561 125.987 83.4015 124.318C83.1853 123.685 86.5293 119.077 90.7329 113.626L110.237 129.514C110.237 129.514 117.563 144.154 117.973 146.051C118.383 147.948 116.825 151.741 115.483 151.231Z" fill="#0A6DED"/>
<path d="M116.043 149.667C111.052 145.397 90.6829 128.643 85.4534 124.8C85.4146 124.767 85.3924 124.8 85.4534 124.828C90.2448 129.17 110.764 145.74 115.971 149.75C116.082 149.833 116.143 149.755 116.043 149.667Z" fill="#263238"/>
<path d="M116.919 143.372C116.369 142.897 115.726 142.541 115.031 142.327C114.336 142.114 113.604 142.046 112.882 142.13C111.586 142.273 110.395 142.908 109.555 143.905C109.555 143.932 109.588 143.982 109.616 143.955C110.608 143.092 111.853 142.575 113.165 142.482C114.476 142.389 115.782 142.725 116.886 143.439C116.89 143.443 116.896 143.446 116.902 143.448C116.907 143.45 116.913 143.45 116.919 143.449C116.925 143.448 116.931 143.445 116.936 143.442C116.941 143.438 116.945 143.433 116.947 143.428C116.95 143.423 116.951 143.417 116.951 143.411C116.951 143.404 116.95 143.399 116.947 143.393C116.945 143.388 116.941 143.383 116.936 143.379C116.931 143.376 116.925 143.373 116.919 143.372Z" fill="#263238"/>
<path d="M111.79 131.627C109.788 129.935 106.854 128.727 104.236 129.353C104.137 129.381 104.175 129.52 104.236 129.542C106.768 130.061 109.235 130.854 111.596 131.904C111.632 131.93 111.678 131.94 111.722 131.932C111.766 131.924 111.805 131.899 111.831 131.863C111.857 131.826 111.867 131.78 111.859 131.736C111.851 131.692 111.826 131.653 111.79 131.627Z" fill="#263238"/>
<path d="M112.854 133.54C110.852 131.877 107.919 130.64 105.301 131.266C105.201 131.266 105.235 131.433 105.301 131.455C107.832 131.975 110.299 132.768 112.66 133.817C112.697 133.843 112.743 133.853 112.787 133.845C112.831 133.838 112.87 133.813 112.896 133.776C112.922 133.739 112.932 133.694 112.924 133.649C112.916 133.605 112.891 133.566 112.854 133.54Z" fill="#263238"/>
<path d="M113.919 135.409C111.917 133.717 108.984 132.509 106.366 133.135C106.266 133.135 106.3 133.302 106.366 133.324C108.897 133.844 111.364 134.636 113.725 135.686C113.762 135.712 113.808 135.722 113.852 135.714C113.896 135.706 113.935 135.681 113.961 135.645C113.987 135.608 113.997 135.562 113.989 135.518C113.981 135.474 113.956 135.435 113.919 135.409Z" fill="#263238"/>
<path d="M114.984 137.294C112.982 135.631 110.048 134.4 107.431 135.026C107.331 135.026 107.364 135.193 107.431 135.209C109.961 135.734 112.428 136.528 114.79 137.577C114.827 137.603 114.873 137.613 114.918 137.604C114.963 137.596 115.002 137.57 115.028 137.533C115.054 137.495 115.064 137.449 115.055 137.404C115.047 137.36 115.021 137.32 114.984 137.294Z" fill="#263238"/>
<path d="M90.6827 121.046C88.4035 119.193 85.5197 122.709 87.799 124.589C90.0782 126.469 92.962 122.903 90.6827 121.046Z" fill="white"/>
<path d="M118.405 127.994C118.078 126.303 116.104 126.076 114.751 126.442C112.429 127.106 110.325 128.373 108.651 130.113C108.641 130.118 108.634 130.126 108.628 130.135C108.623 130.144 108.62 130.155 108.62 130.165C108.62 130.176 108.623 130.187 108.628 130.196C108.634 130.205 108.641 130.213 108.651 130.218C108.627 130.263 108.615 130.312 108.614 130.363C108.613 130.413 108.624 130.463 108.646 130.509C108.668 130.554 108.701 130.593 108.741 130.624C108.781 130.654 108.828 130.675 108.878 130.684C111.141 130.867 113.531 131.344 115.777 130.828C117.124 130.551 118.716 129.614 118.405 127.994ZM112.394 130.263C111.285 130.196 110.176 130.08 109.066 130.057C110.231 129.308 111.432 128.618 112.666 127.989C113.269 127.694 113.892 127.441 114.529 127.229C115.516 126.924 118.888 126.858 117.302 129.225C116.398 130.556 113.719 130.357 112.394 130.285V130.263Z" fill="#263238"/>
<path d="M103 126.763C104.542 128.477 106.771 129.464 108.723 130.645C108.768 130.666 108.818 130.677 108.868 130.675C108.918 130.674 108.968 130.661 109.012 130.637C109.056 130.614 109.094 130.58 109.123 130.539C109.152 130.498 109.17 130.451 109.178 130.401C109.222 130.401 109.261 130.373 109.25 130.318C108.887 127.936 107.901 125.692 106.394 123.813C105.495 122.704 103.754 121.783 102.512 122.976C101.27 124.168 102.118 125.776 103 126.763ZM102.717 124.606C102.773 121.744 105.49 123.741 106.122 124.562C106.529 125.102 106.899 125.669 107.231 126.259C107.919 127.468 108.418 128.749 108.984 130.018C108.058 129.392 107.087 128.854 106.139 128.266C105.013 127.562 102.712 126.181 102.739 124.606H102.717Z" fill="#263238"/>
<path d="M147.919 79.2873C146.388 89.8905 119.852 120.225 116.786 123.702C116.331 124.212 116.087 124.495 116.087 124.495L94.642 107.598L94.8971 107.276L114.262 82.5537L57.4087 81.5277L79.203 65.0017C79.203 65.0017 80.9388 66.0332 84.5878 65.5563C97.1542 63.8926 125.492 60.1493 132.164 60.4987C140.737 60.9534 149.294 69.5603 147.919 79.2873Z" fill="#263238"/>
<path d="M121.189 73.359C120.472 74.1484 119.805 74.9819 119.193 75.8546C118.511 76.7308 117.812 77.5959 117.13 78.4721V78.4998C117.252 78.2392 117.368 77.9841 117.496 77.729C117.934 76.8528 118.283 75.9488 118.793 75.1114C118.797 75.1063 118.799 75.1006 118.8 75.0947C118.801 75.0887 118.801 75.0826 118.8 75.0767C118.798 75.0708 118.796 75.0651 118.792 75.0602C118.789 75.0552 118.785 75.0509 118.779 75.0477C118.774 75.0444 118.769 75.0422 118.763 75.0411C118.757 75.04 118.751 75.0401 118.745 75.0414C118.739 75.0427 118.733 75.0451 118.728 75.0486C118.723 75.052 118.719 75.0564 118.716 75.0615C118.189 75.8934 117.607 76.6809 117.13 77.5515C116.919 77.9619 116.714 78.3778 116.525 78.7993C116.425 79.0322 116.32 79.2651 116.226 79.5036C116.174 79.6127 116.131 79.7258 116.098 79.8419C115.788 80.2467 115.488 80.6571 115.194 81.073C114.54 81.9936 113.963 82.9696 113.298 83.8846C113.264 83.929 113.342 83.9789 113.381 83.9345C114.046 83.0749 114.795 82.2708 115.472 81.4224C116.148 80.5739 116.819 79.6589 117.468 78.7605C118.117 77.8621 118.721 76.997 119.353 76.1152C120.046 75.2524 120.683 74.3467 121.261 73.4034C121.267 73.3938 121.269 73.3823 121.266 73.3714C121.264 73.3605 121.257 73.351 121.247 73.3451C121.238 73.3393 121.226 73.3374 121.215 73.34C121.204 73.3426 121.195 73.3495 121.189 73.359Z" fill="#37474F"/>
<path d="M119.015 119.515C117.795 118.45 116.486 117.469 115.2 116.482C113.913 115.494 112.616 114.502 111.318 113.526C108.717 111.568 106.122 109.594 103.493 107.675C102.051 106.616 100.598 105.579 99.0953 104.597C99.0288 104.558 98.9567 104.664 99.0177 104.714C101.491 106.827 104.12 108.751 106.715 110.703C109.31 112.655 111.933 114.585 114.568 116.526C116.009 117.574 117.446 118.655 118.949 119.615C119.01 119.676 119.082 119.559 119.015 119.515Z" fill="#37474F"/>
<path d="M72.8647 37.0019C78.7652 48.2318 85.7638 60.1493 92.3964 61.874C98.7018 63.5377 113.714 47.7992 116.243 42.5752C117.124 40.7784 105.24 32.8981 103.554 34.218C100.388 36.719 93.4445 44.6271 92.4629 44.4275C91.4813 44.2278 83.0354 36.7301 75.4545 30.4248C70.835 26.6038 68.7831 29.2214 72.8647 37.0019Z" fill="#AD6359"/>
<path d="M105.717 15.9728L101.175 31.8721C101.115 31.9583 101.08 32.0599 101.075 32.165C101.071 32.2702 101.096 32.3745 101.148 32.4658C101.2 32.5571 101.278 32.6316 101.371 32.6806C101.464 32.7297 101.569 32.7512 101.674 32.7427L109.943 33.0034C110.196 32.9917 110.441 32.9084 110.649 32.7632C110.857 32.6179 111.02 32.4166 111.118 32.1826L115.66 16.2833C115.849 15.8175 115.621 15.4293 115.161 15.4182L106.881 15.1631C106.631 15.1752 106.389 15.2575 106.183 15.4007C105.977 15.5439 105.815 15.7421 105.717 15.9728Z" fill="#A6A6A6"/>
<path d="M106.698 16.0005L102.156 31.8998C101.973 32.3657 102.195 32.7539 102.656 32.7705L110.93 33.0311C111.182 33.0185 111.426 32.9347 111.633 32.7895C111.84 32.6443 112.002 32.4435 112.1 32.2104L116.642 16.3111C116.83 15.8452 116.603 15.457 116.142 15.4459L107.874 15.1853C107.621 15.1965 107.376 15.2789 107.168 15.4232C106.96 15.5674 106.797 15.7676 106.698 16.0005Z" fill="#DBDBDB"/>
<path d="M108.945 16.8046C108.946 16.9012 108.928 16.9971 108.89 17.0862C108.853 17.1754 108.798 17.2559 108.728 17.3228C108.658 17.3897 108.576 17.4415 108.485 17.4751C108.394 17.5086 108.298 17.5232 108.202 17.5179C108.105 17.5125 108.011 17.4874 107.924 17.444C107.838 17.4007 107.762 17.34 107.7 17.2659C107.638 17.1917 107.592 17.1056 107.565 17.0129C107.537 16.9202 107.53 16.8229 107.542 16.727C107.54 16.6304 107.559 16.5345 107.596 16.4454C107.633 16.3563 107.688 16.2757 107.758 16.2089C107.828 16.142 107.911 16.0901 108.001 16.0566C108.092 16.023 108.188 16.0084 108.285 16.0138C108.381 16.0191 108.476 16.0442 108.562 16.0876C108.648 16.1309 108.725 16.1916 108.787 16.2658C108.848 16.3399 108.894 16.4261 108.922 16.5188C108.949 16.6115 108.957 16.7088 108.945 16.8046Z" fill="#455A64"/>
<path d="M120.085 33.5746C120.784 28.9551 120.252 27.663 122.914 24.075C124.661 21.7181 123.906 19.5941 121.161 20.914C116.669 23.0823 114.507 28.8553 114.346 31.0736L120.085 33.5746Z" fill="#AD6359"/>
<path d="M114.124 45.6861C114.124 45.6861 118.439 40.6507 119.67 35.7983C120.518 32.4432 121.555 24.9399 114.224 17.6641C112.483 15.9394 108.784 14.7138 110.597 18.5625C111.889 21.2965 113.536 22.6441 113.997 24.3688C113.997 24.3688 109.1 23.3705 107.442 25.1784C105.989 26.7617 104.651 28.4463 103.438 30.2194C103.712 30.5146 104.005 30.7924 104.314 31.0512C104.314 31.0512 102.922 32.8924 103.205 36.3861L114.124 45.6861Z" fill="#AD6359"/>
<path d="M119.969 32.471C119.148 30.8517 117.351 27.4522 114.917 25.1785C112.211 22.6608 106.316 18.5237 104.475 20.5479C103.127 22.0286 105.24 23.7976 105.24 23.7976C105.24 23.7976 102.467 22.6053 101.513 24.208C100.67 25.6721 102.384 26.942 102.384 26.942C102.384 26.942 100.565 26.515 100.021 28.0789C99.367 29.9588 103.293 30.5522 104.275 33.0311C104.497 33.5857 119.969 32.471 119.969 32.471Z" fill="#AD6359"/>
<path d="M112.727 28.4836C110.792 26.1964 108.205 24.5539 105.312 23.7754C105.234 23.7754 105.184 23.8087 105.245 23.8364C107.914 25.0837 110.419 26.6538 112.704 28.5113C112.704 28.5113 112.738 28.5003 112.727 28.4836Z" fill="#263238"/>
<path d="M110.103 31.14C109.1 30.0309 105.75 27.5187 102.417 26.8865C102.345 26.8865 102.295 26.9198 102.362 26.9475C105.085 28.0602 107.675 29.4758 110.081 31.1677C110.081 31.1677 110.115 31.1566 110.103 31.14Z" fill="#263238"/>
<path d="M99.4784 36.2643L111.873 49.3908C111.873 49.3908 98.8018 64.0479 92.6628 62.5173C86.5238 60.9867 74.9168 44.3665 71.1957 33.8187C68.617 26.5096 72.6653 27.6908 76.9354 31.2677C81.2056 34.8446 92.3523 43.7287 92.8403 43.6012C93.3283 43.4736 99.4784 36.2643 99.4784 36.2643Z" fill="#0A6DED"/>
<path opacity="0.1" d="M95.2854 62.3841C94.4314 62.6536 93.5225 62.6994 92.6457 62.5172C86.5067 60.9866 74.8997 44.3719 71.1786 33.8186C69.4816 29.0106 70.6684 27.8793 72.8977 28.7C79.5857 38.6211 88.4865 51.9195 95.2854 62.3841Z" fill="black"/>
<path d="M107.841 51.5757C106.05 49.7623 98.9684 42.0871 97.5709 40.3292C97.4711 40.2072 97.5265 40.1129 97.643 40.2293C103.144 45.5254 106.244 49.6569 107.913 51.5036C107.952 51.548 107.886 51.6201 107.841 51.5757Z" fill="#263238"/>
<path d="M86.6343 72.5382C86.6343 72.5382 45.9904 79.9694 45.7797 79.7476C45.569 79.5257 50.255 35.5655 64.047 28.1344C66.2653 26.9587 71.517 26.2655 73.7685 28.5614C80.1903 35.0942 87.1667 71.9449 86.6343 72.5382Z" fill="#0A6DED"/>
<path d="M86.2074 68.8945L46.1846 75.76C46.3343 74.5511 46.5339 73.1092 46.7835 71.4843L85.4698 64.8296C85.7693 66.3824 86.0133 67.7521 86.2074 68.8945Z" fill="#EBEBEB"/>
<path d="M85.0429 62.7059L47.144 69.2109C47.2605 68.49 47.3881 67.7524 47.5267 66.9927L84.6048 60.6318C84.76 61.3306 84.9042 62.0293 85.0429 62.7059Z" fill="#EBEBEB"/>
<path d="M71.972 35.2328C69.7038 35.2328 66.8145 31.0514 66.0049 28.0235C65.9494 27.8183 66.6925 25.966 67.4911 23.6701C67.968 22.2782 68.4671 20.7143 68.8165 19.2336L77.4344 23.6701C76.4781 25.3698 75.7331 27.18 75.2162 29.0605C75.1674 29.2623 75.1396 29.4686 75.133 29.6761C75.133 29.7038 75.133 29.7371 75.133 29.7759C75.0165 30.9959 74.1625 35.2383 71.972 35.2328Z" fill="#AD6359"/>
<path d="M77.4402 23.7367C76.4831 25.436 75.7381 27.2463 75.2219 29.127C75.1732 29.3288 75.1453 29.5351 75.1387 29.7426C75.1412 29.774 75.1412 29.8055 75.1387 29.8369C74.8159 29.8113 74.4964 29.7537 74.1849 29.665C68.8888 28.2564 68.9776 21.2966 69.1051 19.4277L77.4402 23.7367Z" fill="#263238"/>
<path d="M68.4502 9.22369C67.0693 12.4291 67.7625 22.2115 69.8865 24.6128C72.9698 28.0899 78.5432 28.9994 81.6266 25.1674C84.6212 21.4629 83.4899 8.73013 81.072 6.49524C77.4895 3.21778 70.4854 4.48218 68.4502 9.22369Z" fill="#AD6359"/>
<path d="M77.3732 16.261C77.3732 16.2332 77.3289 16.2942 77.3289 16.322C77.4121 16.9764 77.3954 17.7361 76.8242 17.9857C76.8242 17.9857 76.8242 18.03 76.8242 18.0245C77.5452 17.8747 77.5562 16.8654 77.3732 16.261Z" fill="#263238"/>
<path d="M76.7301 15.6344C75.6709 15.6344 75.7818 17.7639 76.7634 17.7473C77.7449 17.7306 77.6174 15.6177 76.7301 15.6344Z" fill="#263238"/>
<path d="M81.2217 16.0503C81.2217 16.0503 81.2772 16.078 81.2772 16.1058C81.2772 16.7601 81.4158 17.5088 82.0203 17.6973V17.7362C81.2883 17.6696 81.133 16.6714 81.2217 16.0503Z" fill="#263238"/>
<path d="M81.7709 15.3351C82.8191 15.2021 83.0132 17.3094 82.0427 17.4314C81.0722 17.5534 80.8947 15.4516 81.7709 15.3351Z" fill="#263238"/>
<path d="M75.8259 14.7084C76.0995 14.6114 76.3679 14.5003 76.63 14.3757C76.9305 14.3022 77.1966 14.128 77.3843 13.8821C77.4344 13.7924 77.4519 13.6881 77.4337 13.587C77.4155 13.4858 77.3627 13.3941 77.2844 13.3276C77.1207 13.2217 76.932 13.1608 76.7373 13.151C76.5426 13.1413 76.3487 13.1831 76.1753 13.2721C75.7903 13.4017 75.4678 13.6708 75.2714 14.0263C75.2272 14.1092 75.2085 14.2032 75.2176 14.2966C75.2266 14.39 75.263 14.4787 75.3222 14.5515C75.3814 14.6243 75.4608 14.6781 75.5504 14.706C75.64 14.7339 75.7358 14.7347 75.8259 14.7084Z" fill="#263238"/>
<path d="M82.5308 14.226C82.2368 14.1927 81.9762 14.1151 81.6823 14.0541C81.3733 14.0331 81.0795 13.9124 80.8449 13.7102C80.7819 13.6315 80.7476 13.5337 80.7476 13.4329C80.7476 13.3321 80.7819 13.2344 80.8449 13.1557C80.9877 13.0141 81.1664 12.914 81.3618 12.8661C81.5572 12.8182 81.7619 12.8244 81.954 12.8839C82.3517 12.9389 82.7161 13.1359 82.9799 13.4385C83.0475 13.513 83.0897 13.607 83.1007 13.7069C83.1116 13.8069 83.0907 13.9077 83.0408 13.9951C82.991 14.0824 82.9149 14.1518 82.8232 14.1933C82.7316 14.2347 82.6293 14.2462 82.5308 14.226Z" fill="#263238"/>
<path d="M77.7118 20.1596C77.8915 20.41 78.1214 20.6202 78.3868 20.7768C78.6523 20.9334 78.9474 21.0329 79.2535 21.0691C79.5201 21.1082 79.791 21.1082 80.0576 21.0691C80.157 21.0592 80.2553 21.0406 80.3515 21.0136C80.3864 21.0063 80.4178 20.9877 80.4409 20.9606C80.4639 20.9335 80.4774 20.8995 80.4791 20.8639L80.3626 19.4664C80.5512 19.5496 81.5105 19.9212 81.4717 19.655C81.2942 17.3844 80.8854 15.1379 80.2517 12.9503C80.2499 12.9423 80.2465 12.9347 80.2418 12.928C80.237 12.9213 80.231 12.9156 80.224 12.9112C80.2171 12.9069 80.2093 12.9039 80.2012 12.9025C80.1931 12.9011 80.1848 12.9013 80.1768 12.9032C80.1688 12.905 80.1612 12.9084 80.1545 12.9131C80.1478 12.9179 80.1421 12.9239 80.1378 12.9308C80.1334 12.9378 80.1304 12.9455 80.129 12.9536C80.1276 12.9617 80.1279 12.97 80.1297 12.978C80.285 15.0743 80.8063 17.1317 80.9948 19.239C80.6522 19.101 80.2919 19.0114 79.9245 18.9729C79.8857 18.9729 80.1131 20.6865 80.1075 20.7031C79.6963 20.7654 79.2768 20.7445 78.8738 20.6416C78.4709 20.5387 78.0927 20.356 77.7617 20.1042C77.7229 20.0598 77.673 20.1097 77.7118 20.1596Z" fill="#263238"/>
<path d="M79.8466 20.9638C79.5587 21.3439 79.1763 21.6422 78.7375 21.8289C78.4941 21.9262 78.2261 21.9437 77.9722 21.8788C77.4176 21.7401 77.4176 21.2355 77.5064 20.8029C77.562 20.5725 77.6439 20.3492 77.7504 20.1375C78.3439 20.6281 79.0779 20.9175 79.8466 20.9638Z" fill="#263238"/>
<path d="M78.7375 21.8345C78.4941 21.9319 78.2261 21.9493 77.9722 21.8844C77.4176 21.7458 77.4176 21.2412 77.5064 20.8086C77.7971 20.8161 78.0768 20.9215 78.3002 21.1076C78.5236 21.2938 78.6777 21.5499 78.7375 21.8345Z" fill="#FF9CBD"/>
<path d="M67.5465 18.0579C70.0975 18.2575 71.4284 15.2241 70.8739 12.7729C70.8739 12.7729 77.6451 13.7212 78.0111 8.28096C78.5499 9.03314 79.2507 9.6548 80.0617 10.1001C80.8727 10.5455 81.7733 10.8031 82.6972 10.8541L83.1464 12.7674C83.8451 12.5733 84.5993 10.599 82.9079 9.03517C82.9079 9.03517 82.8136 6.32335 80.8227 4.6763C80.2851 4.20512 79.623 3.89904 78.9157 3.79477C78.2085 3.6905 77.4862 3.79248 76.8354 4.08847C75.6608 3.22662 74.1974 2.85479 72.7539 3.05143C72.0006 3.16608 71.2857 3.45954 70.6692 3.90723C70.0527 4.35492 69.5524 4.94381 69.2102 5.6246C69.2102 5.6246 65.844 6.24017 65.2562 8.62479C65.0737 9.29725 65.0357 10.0007 65.1447 10.6889C65.2537 11.3771 65.5071 12.0344 65.8884 12.6176C65.8884 12.6176 65.0343 13.5493 65.4503 15.5901C65.7164 16.8989 66.7812 17.9969 67.5465 18.0579Z" fill="#263238"/>
<path d="M77.8667 7.79297C77.9112 8.2355 77.9112 8.68138 77.8667 9.12392C77.8321 9.56125 77.7465 9.99305 77.6116 10.4105C77.3451 11.2335 76.779 11.9263 76.0256 12.3515C75.2496 12.749 74.3909 12.958 73.519 12.9615C73.0809 12.9615 72.6372 12.9615 72.1936 12.9171C71.7499 12.8728 71.3118 12.8118 70.8682 12.7729C71.3007 12.8783 71.7388 12.9726 72.1769 13.0724C72.615 13.1722 73.0698 13.1556 73.519 13.2C74.4389 13.2434 75.3548 13.0526 76.1809 12.6454C76.9933 12.176 77.5902 11.4079 77.8446 10.5048C78.08 9.61711 78.0877 8.68437 77.8667 7.79297Z" fill="#263238"/>
<path d="M81.3383 10.9817C80.5988 10.7292 79.9071 10.3543 79.2919 9.87254C78.9917 9.62967 78.7251 9.34809 78.4989 9.03515C78.2762 8.71305 78.0902 8.36707 77.9443 8.00366C77.9791 8.41331 78.1021 8.81058 78.3048 9.16824C78.5027 9.53446 78.7724 9.857 79.0978 10.1165C79.417 10.3752 79.7743 10.5829 80.157 10.7321C80.5343 10.8798 80.9335 10.9641 81.3383 10.9817Z" fill="#263238"/>
<path d="M76.0868 19.5663C75.5541 19.54 75.0394 19.3648 74.6013 19.0605C74.1632 18.7562 73.8193 18.335 73.6086 17.845C73.398 17.3549 73.3291 16.8156 73.4097 16.2883C73.4904 15.761 73.7174 15.267 74.0649 14.8623C74.4124 14.4576 74.8665 14.1586 75.3756 13.9992C75.8846 13.8398 76.4282 13.8264 76.9444 13.9605C77.4607 14.0947 77.9289 14.3711 78.2959 14.7582C78.6629 15.1453 78.914 15.6276 79.0205 16.1502C79.1681 16.8897 79.0179 17.6575 78.6025 18.2867C78.1871 18.916 77.5401 19.356 76.8022 19.5109C76.5671 19.5598 76.3267 19.5785 76.0868 19.5663ZM76.3475 14.2481C76.141 14.2371 75.9339 14.2539 75.7319 14.298C75.119 14.4265 74.578 14.7837 74.2192 15.2969C73.8603 15.8102 73.7105 16.4409 73.8003 17.0607C73.89 17.6804 74.2125 18.2428 74.7022 18.6331C75.1919 19.0235 75.8119 19.2127 76.4361 19.1621C77.0603 19.1114 77.6418 18.8249 78.0622 18.3607C78.4825 17.8965 78.7103 17.2896 78.699 16.6635C78.6877 16.0373 78.4382 15.439 78.0014 14.9903C77.5645 14.5416 76.9731 14.2761 76.3475 14.2481Z" fill="#68BDAE"/>
<path d="M82.6138 19.0838C81.5047 19.0284 80.5897 17.8638 80.4899 16.3831C80.424 15.6741 80.5872 14.9627 80.9557 14.3534C81.0961 14.0822 81.3039 13.8516 81.5592 13.6839C81.8144 13.5163 82.1085 13.417 82.4132 13.3959C82.7179 13.3747 83.0229 13.4323 83.2989 13.5631C83.5749 13.6939 83.8126 13.8935 83.9892 14.1427C84.429 14.7004 84.6865 15.38 84.7267 16.0892C84.8321 17.6586 83.967 19.0006 82.8024 19.0838H82.6138ZM82.5806 13.7711H82.4364C82.1948 13.7996 81.9636 13.8854 81.762 14.0214C81.5604 14.1575 81.3942 14.3397 81.2773 14.5531C80.9557 15.0962 80.8122 15.7265 80.867 16.3554C80.9612 17.7141 81.8153 18.7677 82.7747 18.7012C83.7341 18.6346 84.4384 17.4756 84.3441 16.1169C84.3134 15.4867 84.0865 14.8817 83.6952 14.3867C83.5646 14.2086 83.3978 14.0601 83.2056 13.9512C83.0135 13.8422 82.8005 13.7752 82.5806 13.7545V13.7711Z" fill="#68BDAE"/>
<path d="M78.9483 16.4828L78.6821 16.2111C79.087 15.8173 80.0519 15.2628 80.8006 15.956L80.5399 16.2333C79.8744 15.6122 78.9871 16.4495 78.9483 16.4828Z" fill="#68BDAE"/>
<path d="M66.8865 18.1522L66.5371 17.9969C66.6092 17.8361 67.2525 16.3998 68.0954 16.2002C68.9384 16.0005 73.4414 16.0837 73.6411 16.0892V16.4719C71.8161 16.4072 69.9889 16.4405 68.1675 16.5717C67.6241 16.7048 67.0584 17.7529 66.8865 18.1522Z" fill="#68BDAE"/>
<path d="M69.9536 17.8861C69.9536 17.8861 68.0625 14.5587 66.5818 15.2298C65.1012 15.9008 66.3323 20.5314 67.9294 21.2967C68.127 21.4123 68.3462 21.4859 68.5735 21.5129C68.8008 21.54 69.0312 21.5198 69.2504 21.4537C69.4695 21.3876 69.6727 21.277 69.8471 21.1288C70.0215 20.9806 70.1635 20.798 70.2641 20.5924L69.9536 17.8861Z" fill="#AD6359"/>
<path d="M66.9533 16.5552C66.9533 16.5552 66.92 16.5885 66.9533 16.5995C68.0624 17.1541 68.5837 18.302 68.9109 19.4555C68.8545 19.3331 68.7721 19.2245 68.6694 19.1372C68.5667 19.0499 68.4462 18.986 68.3163 18.9501C68.1864 18.9142 68.0503 18.9071 67.9173 18.9293C67.7844 18.9514 67.6579 19.0023 67.5467 19.0784C67.5409 19.0819 67.5362 19.0868 67.5329 19.0926C67.5296 19.0984 67.5278 19.105 67.5278 19.1117C67.5278 19.1184 67.5296 19.125 67.5329 19.1308C67.5362 19.1367 67.5409 19.1415 67.5467 19.145C67.7564 19.098 67.9756 19.117 68.1741 19.1994C68.3727 19.2818 68.5409 19.4236 68.6558 19.6053C68.8442 19.9137 69.0003 20.2408 69.1216 20.5813C69.166 20.6867 69.3545 20.6479 69.3268 20.5258V20.4981C69.5043 19.023 68.5393 16.8491 66.9533 16.5552Z" fill="#263238"/>
<path d="M75.2381 30.8515H75.2104C75.1161 32.7037 74.7778 36.9517 71.7998 36.3971C70.6222 36.0695 69.561 35.4159 68.7386 34.5116C67.1341 32.8179 65.7937 30.8924 64.7624 28.7996C64.7347 28.7497 64.6681 28.7996 64.6848 28.844C65.0437 29.9271 65.5295 30.964 66.1322 31.9329C66.8025 33.0545 67.6235 34.0789 68.5722 34.9774C69.4762 35.8093 70.5687 36.6411 71.8442 36.8519C72.3909 36.9449 72.953 36.849 73.4378 36.5798C73.9227 36.3107 74.3014 35.8844 74.5116 35.3712C75.1046 33.9424 75.3534 32.3942 75.2381 30.8515Z" fill="#263238"/>
<path d="M59.4886 31.6224C53.1444 37.168 36.879 59.0733 40.8719 63.7593C44.8647 68.4454 69.9698 65.1956 77.1847 62.6058C79.3364 61.835 72.8258 48.2759 70.4523 47.738C68.4669 47.2832 57.7472 50.9489 57.5088 50.3278C57.2703 49.7067 59.361 44.8709 62.7217 36.2086C66.5981 26.2265 62.2946 29.1657 59.4886 31.6224Z" fill="#AD6359"/>
<path d="M81.0444 44.6326C86.0965 44.4385 87.4219 45.1871 91.5811 42.736C94.3207 41.1444 96.5167 42.2091 94.7643 45.0041C91.8972 49.5682 85.431 51.1875 83.0298 51.1043L81.0444 44.6326Z" fill="#AD6359"/>
<path d="M67.3359 48.0984C67.3359 48.0984 73.242 45.5529 78.5991 44.8098C82.3091 44.2996 90.5 44.0834 97.4542 52.8399C99.1179 54.9195 99.972 59.0455 96.0512 56.6276C93.2784 54.914 92.0195 52.9841 90.2172 52.2798C90.2172 52.2798 90.7052 57.6591 88.5535 59.2285C86.6761 60.5986 84.7043 61.8347 82.653 62.9274C82.3691 62.5965 82.1062 62.2483 81.8655 61.8848C81.8655 61.8848 79.7249 63.1603 76.0038 62.4394L67.3359 48.0984Z" fill="#AD6359"/>
<path d="M82.22 44.8931C83.8837 45.9689 87.2998 48.3092 89.4293 51.1984C91.8139 54.4094 95.5295 61.2416 93.156 62.9774C91.4035 64.2529 89.751 61.7684 89.751 61.7684C89.751 61.7684 90.6937 64.9128 88.8581 65.7169C87.1944 66.4489 86.0243 64.4525 86.0243 64.4525C86.0243 64.4525 86.2738 66.46 84.527 66.8593C82.4252 67.3362 82.2588 63.0495 79.7134 61.6908C79.1533 61.3858 82.22 44.8931 82.22 44.8931Z" fill="#AD6359"/>
<path d="M85.6303 53.1284C87.856 55.4852 89.3107 58.4643 89.8006 61.6687C89.8006 61.7519 89.7507 61.8018 89.7285 61.7297C88.7038 58.7142 87.3184 55.8336 85.6025 53.1506C85.6025 53.1506 85.6192 53.1284 85.6303 53.1284Z" fill="#263238"/>
<path d="M82.4807 55.6572C83.5566 56.8662 85.8525 60.7648 86.1353 64.4249C86.1353 64.5081 86.0798 64.558 86.0576 64.4803C85.1904 61.4189 83.9812 58.4648 82.453 55.6739C82.453 55.6739 82.4474 55.6406 82.4807 55.6572Z" fill="#263238"/>
<path d="M90.2116 52.2523C91.7865 52.8956 92.7626 53.794 94.038 54.8865C94.661 55.4335 95.3146 55.9445 95.9957 56.4171C96.6223 56.8441 97.5429 57.4819 98.3026 56.9717C98.4835 56.8133 98.6189 56.6096 98.695 56.3815C98.771 56.1534 98.7849 55.9092 98.7352 55.674C98.6012 54.9957 98.3617 54.3426 98.0254 53.7386C98.0254 53.7386 98.0531 53.6942 98.0642 53.7386C98.3958 54.289 98.6691 54.8726 98.8794 55.4799C99.0054 55.8976 99.0054 56.3432 98.8794 56.7609C98.5522 57.6316 97.4819 57.6427 96.761 57.3155C96.3319 57.1098 95.9249 56.8608 95.5465 56.5724C95.1749 56.3062 94.8144 56.0178 94.4373 55.7294C93.7164 55.1305 93.0343 54.4928 92.3244 53.8827C91.6209 53.3074 90.8798 52.7794 90.1062 52.3023C90.0996 52.2883 90.0988 52.2723 90.104 52.2577C90.1092 52.2431 90.12 52.2312 90.1339 52.2246C90.1479 52.218 90.1639 52.2172 90.1785 52.2224C90.193 52.2276 90.2049 52.2384 90.2116 52.2523Z" fill="#263238"/>
<path d="M67.336 48.0984L73.5249 65.4063C73.5249 65.4063 42.1255 69.2106 40.0127 63.6096C37.8998 58.0085 51.9247 38.2716 57.9084 32.7204C64.846 26.2819 65.4005 28.7664 63.3986 34.8832C61.3079 41.294 57.5812 50.4886 57.5812 50.4886L67.336 48.0984Z" fill="#0A6DED"/>
<path d="M47.8097 53.9492C49.3364 53.111 50.9209 52.3827 52.5512 51.7697C54.172 51.1758 55.8347 50.7032 57.5256 50.3556C58.485 50.1393 59.4499 49.9729 60.4204 49.801C60.4204 49.801 60.4537 49.8398 60.4204 49.8454C58.7311 50.212 57.0646 50.6767 55.4293 51.2373C53.7915 51.7734 52.1704 52.3409 50.5658 52.9399C49.6508 53.2837 48.758 53.6608 47.8596 54.049C47.8463 54.0556 47.831 54.0567 47.817 54.052C47.8029 54.0473 47.7913 54.0373 47.7847 54.024C47.7781 54.0108 47.777 53.9955 47.7817 53.9814C47.7864 53.9674 47.7964 53.9558 47.8097 53.9492Z" fill="#263238"/>
<path d="M67.2581 48.0432C67.0973 48.0709 58.4239 50.0008 58.1355 50.1006C58.1799 49.9786 60.1375 45.6641 60.4259 45.0319L60.5091 44.8433C60.6921 44.5661 60.8751 44.2888 61.0636 44.0059C61.2522 43.7231 61.5017 43.2795 61.718 42.8968L61.0193 43.956C60.9139 44.1224 60.8085 44.2888 60.7087 44.4607C60.9028 44.0115 61.0914 43.5623 61.2633 43.1131C61.5627 42.3922 61.8178 41.6657 62.1173 40.9392H62.0785C61.5239 42.1981 60.8862 43.4348 60.3094 44.6936C59.7327 45.9525 57.5366 50.5664 57.5366 50.5664C57.5366 50.5664 67.1139 48.2317 67.3025 48.1707C67.3194 48.1648 67.3333 48.1525 67.3411 48.1364C67.3489 48.1202 67.3499 48.1017 67.3441 48.0848C67.3382 48.0678 67.3258 48.054 67.3097 48.0462C67.2936 48.0384 67.275 48.0373 67.2581 48.0432Z" fill="#263238"/>
<path d="M66.7425 58.8738C66.0604 56.9439 65.4005 54.9919 64.6463 53.1008C64.2192 52.0194 63.7978 50.938 63.3652 49.8566C63.3652 49.8178 63.2765 49.8566 63.2876 49.8566C63.8921 51.8198 64.5021 53.7885 65.2008 55.7239C65.8996 57.6593 66.565 59.6058 67.2804 61.5024C67.6908 62.5894 68.1308 63.6652 68.6003 64.73C68.6003 64.73 68.6447 64.73 68.6391 64.73C68.1012 62.7557 67.4246 60.8203 66.7425 58.8738Z" fill="#263238"/>
<path d="M73.8961 65.7005C73.641 65.1459 73.3415 64.3917 73.0476 63.8649C72.9755 63.7207 72.8701 63.7429 72.9256 63.8649C73.1141 64.3474 73.2528 64.8853 73.4413 65.3844C72.9977 65.4232 72.5596 65.4565 72.1215 65.5064L70.5964 65.6672C69.5982 65.7707 68.6 65.865 67.6018 65.95C65.5832 66.1164 63.5609 66.2403 61.5349 66.3216C57.4695 66.5094 53.3971 66.4835 49.3345 66.244C48.2254 66.1719 47.0663 66.0776 45.935 65.95C44.8037 65.8225 43.5504 65.6672 42.6076 65.4565C42.5799 65.4565 42.5688 65.4953 42.6076 65.5064C43.5444 65.8045 44.503 66.0288 45.4747 66.1774C46.4951 66.3272 47.5155 66.4547 48.5415 66.5434C50.5878 66.7264 52.6397 66.7985 54.6916 66.8152C58.7584 66.8484 62.8252 66.7117 66.8919 66.4048C68.0288 66.3216 69.1601 66.2218 70.297 66.1109L72.0106 65.9279C72.5762 65.8835 73.9404 65.7948 73.8961 65.7005Z" fill="#263238"/>
<path d="M114.352 65.3179H74.8169V67.0869H114.352V65.3179Z" fill="#C7C7C7"/>
<path d="M114.352 65.3179V67.0869H87.4775L88.8307 65.3179H114.352Z" fill="#A6A6A6"/>
<path d="M92.9121 67.0867H127.511L132.519 42.6748H97.9198L92.9121 67.0867Z" fill="#A6A6A6"/>
<path d="M94.5317 67.0867H129.131L134.139 42.6748H99.5394L94.5317 67.0867Z" fill="#C7C7C7"/>
<path d="M117.452 53.9715C117.49 54.5162 117.343 55.058 117.035 55.5089C116.727 55.9599 116.276 56.2936 115.755 56.4559C114.767 56.6666 113.941 55.9013 113.902 54.7423C113.874 54.1983 114.028 53.6603 114.34 53.214C114.653 52.7678 115.106 52.439 115.627 52.28C116.586 52.0527 117.418 52.8235 117.452 53.9715Z" fill="white"/>
<path d="M194.924 117.763C194.408 119.105 169.58 149.207 167.906 149.761C167.273 149.972 162.676 146.611 157.241 142.391C156.066 141.482 154.857 140.533 153.637 139.563C145.707 133.28 137.438 126.431 137.438 126.431L154.019 106.245L169.758 119.931L173.218 122.937C173.218 122.937 187.848 115.661 189.75 115.24C191.652 114.818 195.44 116.421 194.924 117.763Z" fill="#AD6359"/>
<path d="M194.924 117.763C194.408 119.105 169.58 149.207 167.906 149.761C167.135 150.011 160.508 145.003 153.637 139.563L169.719 119.931L173.18 122.937C173.18 122.937 187.848 115.661 189.75 115.24C191.652 114.818 195.44 116.421 194.924 117.763Z" fill="#EBEBEB"/>
<path d="M194.924 117.763C194.408 119.105 169.581 149.207 167.906 149.761C167.274 149.972 162.676 146.611 157.242 142.391L173.191 122.937C173.191 122.937 187.848 115.661 189.75 115.24C191.652 114.818 195.44 116.421 194.924 117.763Z" fill="#0A6DED"/>
<path d="M193.36 117.203C189.073 122.144 172.259 142.491 168.405 147.704C168.377 147.748 168.405 147.77 168.438 147.704C172.791 142.896 189.451 122.41 193.454 117.241C193.532 117.158 193.455 117.097 193.36 117.203Z" fill="#263238"/>
<path d="M187.071 116.299C186.594 116.848 186.236 117.491 186.019 118.185C185.802 118.88 185.732 119.612 185.813 120.336C185.955 121.629 186.585 122.82 187.576 123.663C187.609 123.663 187.654 123.63 187.626 123.602C186.771 122.604 186.261 121.357 186.172 120.046C186.083 118.735 186.42 117.431 187.132 116.326C187.166 116.31 187.105 116.26 187.071 116.299Z" fill="#263238"/>
<path d="M175.309 121.395C173.612 123.392 172.397 126.32 173.013 128.937C173.013 129.037 173.179 129.004 173.196 128.937C173.729 126.408 174.53 123.943 175.586 121.584C175.611 121.547 175.621 121.502 175.612 121.458C175.604 121.414 175.579 121.376 175.542 121.351C175.505 121.326 175.46 121.316 175.416 121.325C175.372 121.333 175.334 121.358 175.309 121.395Z" fill="#263238"/>
<path d="M177.2 120.336C175.509 122.332 174.289 125.26 174.904 127.878C174.904 127.978 175.076 127.944 175.093 127.878C175.622 125.348 176.421 122.883 177.477 120.524C177.502 120.488 177.512 120.442 177.503 120.399C177.495 120.355 177.47 120.316 177.433 120.291C177.396 120.266 177.351 120.257 177.307 120.265C177.264 120.274 177.225 120.299 177.2 120.336Z" fill="#263238"/>
<path d="M179.096 119.277C177.4 121.273 176.185 124.201 176.801 126.819C176.801 126.924 176.967 126.885 176.984 126.819C177.515 124.289 178.317 121.824 179.374 119.465C179.399 119.429 179.408 119.383 179.4 119.34C179.391 119.296 179.366 119.257 179.329 119.232C179.293 119.207 179.247 119.198 179.204 119.206C179.16 119.215 179.121 119.24 179.096 119.277Z" fill="#263238"/>
<path d="M180.988 118.217C179.296 120.214 178.076 123.148 178.692 125.765C178.719 125.865 178.864 125.832 178.88 125.765C179.411 123.236 180.21 120.771 181.265 118.412C181.291 118.375 181.301 118.329 181.293 118.285C181.285 118.241 181.26 118.202 181.223 118.176C181.187 118.15 181.141 118.14 181.097 118.148C181.053 118.156 181.013 118.181 180.988 118.217Z" fill="#263238"/>
<path d="M164.661 142.469C162.798 144.737 166.325 147.637 168.194 145.358C170.063 143.079 166.53 140.195 164.661 142.469Z" fill="white"/>
<path d="M171.716 114.762C170.052 115.09 169.791 117.058 170.152 118.417C170.816 120.735 172.076 122.838 173.806 124.517C173.845 124.556 173.89 124.517 173.917 124.517C173.962 124.541 174.011 124.553 174.061 124.554C174.111 124.555 174.161 124.544 174.206 124.522C174.251 124.499 174.29 124.467 174.32 124.426C174.35 124.386 174.369 124.339 174.378 124.29C174.572 122.033 175.054 119.637 174.544 117.391C174.25 116.055 173.318 114.457 171.716 114.762ZM173.984 120.785C173.917 121.894 173.795 123.003 173.768 124.112C173.023 122.946 172.339 121.743 171.716 120.508C171.42 119.906 171.168 119.283 170.962 118.644C170.657 117.657 170.601 114.28 172.969 115.872C174.25 116.781 174.045 119.454 173.984 120.785Z" fill="#263238"/>
<path d="M170.417 130.146C172.137 128.61 173.129 126.386 174.299 124.434C174.421 124.234 174.244 124.024 174.055 123.979C174.056 123.969 174.055 123.958 174.051 123.949C174.047 123.939 174.042 123.93 174.034 123.922C174.027 123.915 174.018 123.909 174.008 123.906C173.999 123.902 173.988 123.901 173.978 123.902C171.594 124.261 169.348 125.24 167.462 126.741C166.352 127.634 165.426 129.375 166.613 130.623C167.8 131.871 169.408 131.044 170.417 130.146ZM168.26 130.418C165.399 130.357 167.406 127.645 168.227 127.013C168.768 126.617 169.335 126.257 169.924 125.937C171.147 125.29 172.404 124.709 173.689 124.196C173.063 125.116 172.519 126.087 171.931 127.029C171.21 128.155 169.835 130.451 168.26 130.418Z" fill="#263238"/>
<path d="M168.921 116.848L150.492 138.686L94.9142 99.1127L89.4351 95.2308C89.4351 95.2308 87.8602 96.2678 85.4922 97.5378C82.2036 99.3068 77.3845 101.536 73.1421 102.107C66.0215 103.039 55.3073 102.806 49.4123 94.7206C44.4213 87.9106 46.146 79.1319 46.146 79.1319L53.993 75.8655C53.993 75.8655 72.6485 60.7037 84.616 60.3876C89.6958 60.2434 97.0493 64.1864 103.848 68.2901C110.647 72.3939 168.921 116.848 168.921 116.848Z" fill="#263238"/>
<path d="M89.435 95.2087C89.435 95.2087 87.8601 96.2457 85.4921 97.5157C81.3939 92.4858 72.6983 83.3355 72.4321 83.0083L89.435 95.2087Z" fill="#37474F"/>
<path d="M60.8192 70.8135C59.7101 71.5677 58.601 72.3663 57.5307 73.1427C56.4604 73.9191 55.3124 74.6178 54.3087 75.4497C53.3049 76.2815 52.2679 77.2021 51.2808 78.1171C50.8038 78.5552 50.3325 78.9989 49.8722 79.4592C49.388 79.8999 48.9375 80.3763 48.5246 80.8844C48.4913 80.9343 48.5579 80.9897 48.6078 80.962C49.1304 80.5994 49.6287 80.2029 50.0995 79.7752L51.6579 78.4831C52.6616 77.6513 53.682 76.8194 54.6858 76.0098C55.6895 75.2001 56.599 74.274 57.5861 73.431C58.5733 72.5881 59.7434 71.7008 60.8525 70.8745C60.8525 70.8357 60.8525 70.7969 60.8192 70.8135Z" fill="#37474F"/>
<path d="M163.231 114.746C162.122 115.922 161.079 117.186 160.037 118.428C158.994 119.67 157.952 120.924 156.92 122.183C154.852 124.7 152.772 127.207 150.737 129.752C149.628 131.15 148.518 132.558 147.481 134.017C147.437 134.078 147.542 134.156 147.592 134.1C149.811 131.716 151.846 129.176 153.903 126.658C155.961 124.14 158.029 121.611 160.053 119.066C161.162 117.668 162.305 116.293 163.325 114.818C163.37 114.763 163.275 114.685 163.231 114.746Z" fill="#37474F"/>
<path d="M121.455 117.946C118.633 115.666 112.211 111.208 109.283 109.073C106.355 106.938 103.46 104.808 100.504 102.74C99.6554 102.146 98.7958 101.564 97.9418 100.982C97.0878 100.399 96.1949 99.8725 95.3631 99.2514C95.3132 99.2181 95.2688 99.3013 95.3132 99.3345C96.084 99.8891 96.8049 100.532 97.5591 101.115C98.3133 101.697 98.9955 102.224 99.7219 102.778C101.142 103.854 102.572 104.908 104.003 105.967C106.898 108.119 109.821 110.237 112.771 112.322C114.434 113.498 119.614 116.992 121.328 118.112C121.428 118.184 121.55 118.012 121.455 117.946Z" fill="#37474F"/>
<path d="M139.706 94.5155C137.1 92.2972 131.155 88.0382 128.421 85.9863C125.687 83.9344 122.875 81.8215 120.102 79.7586L111.873 73.6473C109.2 71.6675 106.543 69.6544 103.721 67.8965C102.173 66.9315 100.587 66.0387 98.9569 65.2346C97.3754 64.3976 95.7239 63.6999 94.0213 63.1494C93.9714 63.1494 93.9437 63.2049 93.988 63.2326C95.38 64.0312 96.844 64.7077 98.2582 65.4841C99.6723 66.2605 101.031 67.048 102.373 67.8909C105.174 69.6378 107.819 71.6176 110.475 73.5752C115.993 77.6457 121.5 81.7328 127.057 85.7756C130.162 87.9938 136.357 92.6577 139.59 94.7317C139.684 94.7484 139.8 94.5931 139.706 94.5155Z" fill="#37474F"/>
</svg>
