<svg width="99" height="20" viewBox="0 0 99 20" fill="none" xmlns="http://www.w3.org/2000/svg">
<path d="M0.333008 0.0703125H5.90088C7.04248 0.0703125 8.02344 0.241211 8.84375 0.583008C9.6709 0.924805 10.3066 1.43066 10.751 2.10059C11.1953 2.77051 11.4175 3.59424 11.4175 4.57178C11.4175 5.37158 11.2808 6.05859 11.0073 6.63281C10.7407 7.2002 10.3613 7.67529 9.86914 8.05811C9.38379 8.43408 8.81299 8.73486 8.15674 8.96045L7.18262 9.47314H2.34277L2.32227 7.07373H5.92139C6.46143 7.07373 6.90918 6.97803 7.26465 6.78662C7.62012 6.59521 7.88672 6.32861 8.06445 5.98682C8.24902 5.64502 8.34131 5.24854 8.34131 4.79736C8.34131 4.31885 8.25244 3.90527 8.07471 3.55664C7.89697 3.20801 7.62695 2.94141 7.26465 2.75684C6.90234 2.57227 6.44775 2.47998 5.90088 2.47998H3.40918V15H0.333008V0.0703125ZM8.67969 15L5.27539 8.34521L8.52588 8.32471L11.9712 14.8564V15H8.67969ZM16.5547 6.03809V19.2656H13.6016V3.90527H16.3394L16.5547 6.03809ZM23.5786 9.32959V9.54492C23.5786 10.3516 23.4829 11.1001 23.2915 11.7905C23.1069 12.481 22.8335 13.0825 22.4712 13.5952C22.1089 14.1011 21.6577 14.4976 21.1177 14.7847C20.5845 15.0649 19.9692 15.2051 19.272 15.2051C18.5952 15.2051 18.0073 15.0684 17.5083 14.7949C17.0093 14.5215 16.5889 14.1387 16.2471 13.6465C15.9121 13.1475 15.6421 12.5698 15.437 11.9136C15.2319 11.2573 15.0747 10.5532 14.9653 9.80127V9.2373C15.0747 8.43066 15.2319 7.69238 15.437 7.02246C15.6421 6.3457 15.9121 5.76123 16.2471 5.26904C16.5889 4.77002 17.0059 4.38379 17.498 4.11035C17.9971 3.83691 18.5815 3.7002 19.2515 3.7002C19.9556 3.7002 20.5742 3.8335 21.1074 4.1001C21.6475 4.3667 22.0986 4.74951 22.4609 5.24854C22.8301 5.74756 23.1069 6.34229 23.2915 7.03271C23.4829 7.72314 23.5786 8.48877 23.5786 9.32959ZM20.6152 9.54492V9.32959C20.6152 8.85791 20.5742 8.42383 20.4922 8.02734C20.417 7.62402 20.2939 7.27197 20.123 6.97119C19.959 6.67041 19.7402 6.43799 19.4668 6.27393C19.2002 6.10303 18.8755 6.01758 18.4927 6.01758C18.0894 6.01758 17.7441 6.08252 17.457 6.2124C17.1768 6.34229 16.9478 6.53027 16.77 6.77637C16.5923 7.02246 16.459 7.31641 16.3701 7.6582C16.2812 8 16.2266 8.38623 16.2061 8.81689V10.2422C16.2402 10.748 16.3359 11.2026 16.4932 11.606C16.6504 12.0024 16.8931 12.3169 17.2212 12.5493C17.5493 12.7817 17.98 12.8979 18.5132 12.8979C18.9028 12.8979 19.231 12.8125 19.4976 12.6416C19.7642 12.4639 19.9795 12.2212 20.1436 11.9136C20.3145 11.606 20.4341 11.2505 20.5024 10.8472C20.5776 10.4438 20.6152 10.0098 20.6152 9.54492ZM31.6484 12.6245C31.6484 11.8953 31.8991 11.2858 32.4004 10.7959C32.9131 10.306 33.591 10.061 34.4341 10.061C35.2772 10.061 35.9494 10.306 36.4507 10.7959C36.9634 11.2858 37.2197 11.8953 37.2197 12.6245C37.2197 13.3537 36.9634 13.9632 36.4507 14.4531C35.9494 14.943 35.2772 15.188 34.4341 15.188C33.591 15.188 32.9131 14.943 32.4004 14.4531C31.8991 13.9632 31.6484 13.3537 31.6484 12.6245ZM41.7998 12.6245C41.7998 11.8953 42.0505 11.2858 42.5518 10.7959C43.0645 10.306 43.7424 10.061 44.5854 10.061C45.4285 10.061 46.1007 10.306 46.6021 10.7959C47.1147 11.2858 47.3711 11.8953 47.3711 12.6245C47.3711 13.3537 47.1147 13.9632 46.6021 14.4531C46.1007 14.943 45.4285 15.188 44.5854 15.188C43.7424 15.188 43.0645 14.943 42.5518 14.4531C42.0505 13.9632 41.7998 13.3537 41.7998 12.6245ZM51.9512 12.6245C51.9512 11.8953 52.2018 11.2858 52.7031 10.7959C53.2158 10.306 53.8937 10.061 54.7368 10.061C55.5799 10.061 56.2521 10.306 56.7534 10.7959C57.2661 11.2858 57.5225 11.8953 57.5225 12.6245C57.5225 13.3537 57.2661 13.9632 56.7534 14.4531C56.2521 14.943 55.5799 15.188 54.7368 15.188C53.8937 15.188 53.2158 14.943 52.7031 14.4531C52.2018 13.9632 51.9512 13.3537 51.9512 12.6245ZM62.1025 12.6245C62.1025 11.8953 62.3532 11.2858 62.8545 10.7959C63.3672 10.306 64.0451 10.061 64.8882 10.061C65.7313 10.061 66.4035 10.306 66.9048 10.7959C67.4175 11.2858 67.6738 11.8953 67.6738 12.6245C67.6738 13.3537 67.4175 13.9632 66.9048 14.4531C66.4035 14.943 65.7313 15.188 64.8882 15.188C64.0451 15.188 63.3672 14.943 62.8545 14.4531C62.3532 13.9632 62.1025 13.3537 62.1025 12.6245ZM72.2539 12.6245C72.2539 11.8953 72.5046 11.2858 73.0059 10.7959C73.5186 10.306 74.1965 10.061 75.0396 10.061C75.8826 10.061 76.5549 10.306 77.0562 10.7959C77.5688 11.2858 77.8252 11.8953 77.8252 12.6245C77.8252 13.3537 77.5688 13.9632 77.0562 14.4531C76.5549 14.943 75.8826 15.188 75.0396 15.188C74.1965 15.188 73.5186 14.943 73.0059 14.4531C72.5046 13.9632 72.2539 13.3537 72.2539 12.6245ZM82.4053 12.6245C82.4053 11.8953 82.6559 11.2858 83.1572 10.7959C83.6699 10.306 84.3478 10.061 85.1909 10.061C86.034 10.061 86.7062 10.306 87.2075 10.7959C87.7202 11.2858 87.9766 11.8953 87.9766 12.6245C87.9766 13.3537 87.7202 13.9632 87.2075 14.4531C86.7062 14.943 86.034 15.188 85.1909 15.188C84.3478 15.188 83.6699 14.943 83.1572 14.4531C82.6559 13.9632 82.4053 13.3537 82.4053 12.6245ZM92.5566 12.6245C92.5566 11.8953 92.8073 11.2858 93.3086 10.7959C93.8213 10.306 94.4992 10.061 95.3423 10.061C96.1854 10.061 96.8576 10.306 97.3589 10.7959C97.8716 11.2858 98.1279 11.8953 98.1279 12.6245C98.1279 13.3537 97.8716 13.9632 97.3589 14.4531C96.8576 14.943 96.1854 15.188 95.3423 15.188C94.4992 15.188 93.8213 14.943 93.3086 14.4531C92.8073 13.9632 92.5566 13.3537 92.5566 12.6245Z" fill="#383838"/>
</svg>
