<svg width="41" height="41" viewBox="0 0 41 41" fill="none" xmlns="http://www.w3.org/2000/svg">
<g clip-path="url(#clip0_994_1275)">
<path d="M41 0H0V41H41V0Z" fill="white"/>
<path d="M20.5 41C31.8218 41 41 31.8218 41 20.5C41 9.17816 31.8218 0 20.5 0C9.17816 0 0 9.17816 0 20.5C0 31.8218 9.17816 41 20.5 41Z" fill="#3A0CA3" fill-opacity="0.2"/>
<path d="M16.7667 15.9943C19.762 15.9944 21.6062 19.2688 20.0537 21.8304L17.6518 25.7933C16.1275 28.3082 12.4587 28.2496 11.0156 25.6873L8.78347 21.7242C7.3403 19.1618 9.1919 15.994 12.1327 15.9941L16.7667 15.9943Z" fill="#7209B7"/>
<path d="M28.6182 15.9514C31.6136 15.9515 33.4577 19.2258 31.9052 21.7874L29.5033 25.7503C27.9791 28.2653 24.3103 28.2066 22.8671 25.6443L20.635 21.6812C19.1919 19.1189 21.0435 15.9511 23.9843 15.9512L28.6182 15.9514Z" fill="#7209B7"/>
<path d="M28.1875 14.7364L13.1328 14.7611C12.4252 14.7622 11.8525 15.3368 11.8537 16.0444L11.8616 20.8491C11.8627 21.5567 12.4373 22.1294 13.1449 22.1283L28.1996 22.1035C28.9072 22.1024 29.4799 21.5278 29.4787 20.8202L29.4708 16.0155C29.4697 15.3079 28.8951 14.7352 28.1875 14.7364Z" fill="#7209B7"/>
<path d="M14.2539 23.2227C15.1384 23.2227 15.8555 22.5056 15.8555 21.6211C15.8555 20.7366 15.1384 20.0195 14.2539 20.0195C13.3694 20.0195 12.6523 20.7366 12.6523 21.6211C12.6523 22.5056 13.3694 23.2227 14.2539 23.2227Z" stroke="#D8CEED"/>
<path d="M27.2266 19.6992C27.2266 19.4339 27.0114 19.2188 26.7461 19.2188C26.4807 19.2188 26.2656 19.4339 26.2656 19.6992V22.9023C26.2656 23.1677 26.4807 23.3828 26.7461 23.3828C27.0114 23.3828 27.2266 23.1677 27.2266 22.9023V19.6992Z" fill="#D8CEED"/>
<path d="M28.3477 21.7812C28.613 21.7812 28.8281 21.5661 28.8281 21.3008C28.8281 21.0354 28.613 20.8203 28.3477 20.8203H25.1445C24.8792 20.8203 24.6641 21.0354 24.6641 21.3008C24.6641 21.5661 24.8792 21.7812 25.1445 21.7812H28.3477Z" fill="#D8CEED"/>
</g>
<defs>
<clipPath id="clip0_994_1275">
<rect width="41" height="41" fill="white"/>
</clipPath>
</defs>
</svg>
